# Blender 5.0.1
# www.blender.org
mtllib hair.mtl
o short4
v 0.560511 16.806499 1.203341
v 0.578223 16.725500 1.211715
v 0.771210 16.848200 0.930709
v 0.760263 16.671801 0.924243
v 0.533574 16.888100 1.181293
v 0.703560 17.063000 0.897955
v 0.475641 16.962801 1.190727
v 0.578469 17.235201 0.893503
v 0.396798 16.999701 1.222209
v 0.416724 17.337999 0.878451
v 0.269739 17.018801 1.270545
v 0.234930 17.371799 0.907813
v 0.474042 17.383600 0.550063
v 0.267402 17.447901 0.561193
v 0.845994 16.805901 0.627761
v 0.813522 16.607901 0.699311
v 0.803682 17.021400 0.576245
v 0.674655 17.236601 0.551971
v 0.639477 16.817699 1.108577
v 0.653130 16.718599 1.124901
v 0.587448 16.929701 1.115361
v 0.522873 17.038300 1.118435
v 0.421398 17.101000 1.128505
v 0.266049 17.122101 1.191257
v 0.645258 16.574900 1.196133
v 0.769242 16.483799 0.927635
v 0.823608 16.433100 0.738849
v 0.715983 16.549799 1.089073
v 0.717582 16.079800 1.121403
v 0.763461 16.035099 0.958799
v 0.778590 16.020100 0.845909
v 0.738000 16.055300 1.068297
v 0.744888 16.199699 1.071053
v 0.732957 16.366100 1.073279
v 0.691137 16.389299 1.138681
v 0.703437 16.226799 1.134017
v 0.800730 16.141800 0.820893
v 0.820041 16.282799 0.787397
v 0.787692 16.320799 0.933995
v 0.782895 16.163300 0.948941
v 0.890397 16.689499 0.403783
v 0.907248 16.513899 0.502045
v 0.857064 16.921301 0.299797
v 0.873915 16.381599 0.596385
v 0.789660 16.017900 0.739697
v 0.815490 16.137499 0.699841
v 0.848085 16.258200 0.656169
v 0.880065 16.391399 0.362973
v 0.910077 16.321199 0.502363
v 0.863337 16.245199 0.585255
v 0.836892 16.139900 0.600943
v 0.807003 16.008600 0.615571
v 0.857679 16.774200 0.086949
v 0.822870 16.186100 0.371241
v 0.824223 16.133499 0.464945
v 0.839475 15.946200 0.349405
v 0.894579 15.984100 0.472259
v 0.783756 15.871800 0.414701
v 0.811923 15.913800 0.508617
v 0.705036 15.997900 1.105185
v 0.741813 15.965700 0.958587
v 0.761124 15.953900 0.858629
v 0.720780 15.980100 1.055577
v 0.773547 15.951200 0.767893
v 0.790275 15.952001 0.631153
v 0.899622 16.483000 0.218389
v 0.877236 16.182800 0.204291
v 0.825822 15.990300 0.316121
v 0.731481 15.873000 0.251885
v 0.809709 16.620100 -0.093887
v 0.846732 16.373301 0.008509
v 0.724962 16.455999 -0.256809
v 0.723363 16.251600 -0.178369
v 0.580191 16.318399 -0.367897
v 0.579453 16.147800 -0.298255
v 0.812784 16.157799 0.067021
v 0.670719 16.067699 -0.104169
v 0.546243 15.988800 -0.193209
v 0.711186 15.963201 0.085889
v 0.588924 15.875200 -0.027001
v 0.465186 15.747500 -0.125687
v 0.650793 15.795900 0.117265
v 0.556821 15.688700 0.010947
v 0.467646 15.594200 -0.088587
v 0.755466 17.139601 0.225703
v 0.774285 17.007200 -0.043643
v 0.709833 16.846001 -0.237411
v 0.636033 16.658899 -0.370971
v 0.575763 16.483999 -0.415067
v 0.563586 17.318001 0.193585
v 0.579330 17.203001 -0.127913
v 0.547719 17.033100 -0.334507
v 0.491508 16.815701 -0.460223
v 0.447105 16.526899 -0.503259
v 0.409713 16.286400 -0.482589
v 0.395691 16.123100 -0.424607
v 0.366048 15.948400 -0.324967
v 0.325704 15.636800 -0.239213
v 0.321276 15.498301 -0.250237
v 0.295446 16.901600 -0.522339
v 0.256701 16.598099 -0.569827
v 0.322014 17.148201 -0.378497
v 0.341571 17.303301 -0.176779
v 0.315987 17.418100 0.162421
v 0.189543 15.544900 -0.318077
v 0.168879 15.438500 -0.320197
v 0.211560 15.909400 -0.392701
v 0.218817 16.123899 -0.541843
v 0.222015 16.301500 -0.566329
v -0.560511 16.806499 1.203341
v -0.578223 16.725500 1.211715
v -0.771210 16.848200 0.930709
v -0.760263 16.671801 0.924243
v -0.533574 16.888100 1.181293
v -0.703560 17.063000 0.897955
v -0.475641 16.962801 1.190727
v -0.578469 17.235201 0.893503
v -0.396798 16.999701 1.222209
v -0.416724 17.337999 0.878451
v -0.269739 17.018801 1.270545
v -0.234930 17.371799 0.907813
v 0.000000 17.045799 1.282947
v -0.005289 17.400400 0.851633
v -0.474042 17.383600 0.550063
v -0.267402 17.447901 0.561193
v -0.003813 17.459700 0.533103
v -0.845994 16.805901 0.627761
v -0.812784 16.608200 0.699205
v -0.803682 17.021400 0.576245
v -0.674655 17.236601 0.551971
v -0.639477 16.817600 1.108577
v -0.653130 16.718599 1.124901
v -0.587448 16.929701 1.115361
v -0.522873 17.038300 1.118435
v -0.421398 17.101000 1.128505
v -0.266049 17.122101 1.191257
v 0.000000 17.156700 1.219241
v -0.645258 16.574900 1.196133
v -0.769242 16.483799 0.927635
v -0.820287 16.434401 0.738319
v -0.715983 16.549799 1.089073
v -0.717582 16.079800 1.121403
v -0.763461 16.035099 0.958799
v -0.778590 16.020100 0.845909
v -0.738000 16.055300 1.068297
v -0.744888 16.199699 1.071053
v -0.732957 16.366100 1.073279
v -0.691137 16.389299 1.138681
v -0.703437 16.226799 1.134017
v -0.800730 16.141699 0.820893
v -0.818196 16.283699 0.786973
v -0.787692 16.320900 0.933995
v -0.782895 16.163300 0.948941
v -0.890397 16.689499 0.403783
v -0.904542 16.514999 0.501515
v -0.857064 16.921301 0.299797
v -0.867888 16.383900 0.595219
v -0.789537 16.017900 0.739697
v -0.815121 16.137699 0.699735
v -0.844641 16.259600 0.655533
v -0.878958 16.391199 0.363291
v -0.906141 16.323799 0.501727
v -0.860016 16.246500 0.584513
v -0.836154 16.140299 0.600837
v -0.807003 16.008600 0.615571
v -0.857679 16.774200 0.086949
v -0.822870 16.186100 0.371241
v -0.824223 16.133499 0.464945
v -0.839475 15.946200 0.349405
v -0.894579 15.984100 0.472259
v -0.783756 15.871800 0.414701
v -0.811923 15.913800 0.508617
v -0.705036 15.997900 1.105185
v -0.741813 15.965700 0.958587
v -0.761124 15.953900 0.858629
v -0.720780 15.980100 1.055577
v -0.773547 15.951200 0.767893
v -0.790275 15.952001 0.631153
v -0.899622 16.483000 0.218389
v -0.877236 16.182800 0.204291
v -0.825822 15.990300 0.316121
v -0.731481 15.873000 0.251885
v -0.809709 16.620100 -0.093887
v -0.846732 16.373301 0.008509
v -0.724962 16.455999 -0.256809
v -0.723363 16.251600 -0.178369
v -0.580191 16.318399 -0.367897
v -0.579453 16.147800 -0.298255
v -0.812784 16.157799 0.067021
v -0.670719 16.067699 -0.104169
v -0.546243 15.988800 -0.193209
v -0.711186 15.963201 0.085889
v -0.588924 15.875200 -0.027001
v -0.465186 15.747500 -0.125687
v -0.650793 15.795900 0.117265
v -0.556821 15.688700 0.010947
v -0.467646 15.594200 -0.088587
v -0.755466 17.139601 0.225703
v -0.774285 17.007200 -0.043643
v -0.709833 16.846001 -0.237411
v -0.636033 16.658899 -0.370971
v -0.575763 16.483999 -0.415067
v -0.563586 17.318001 0.193585
v -0.579330 17.203001 -0.127913
v -0.547719 17.033100 -0.334507
v -0.491508 16.815701 -0.460223
v -0.447105 16.526899 -0.503259
v -0.409713 16.286400 -0.482589
v -0.395691 16.123100 -0.424607
v -0.366048 15.948400 -0.324967
v -0.325704 15.636700 -0.239213
v -0.321276 15.498301 -0.250237
v -0.006519 17.448200 0.124367
v -0.006027 17.344000 -0.206883
v -0.008241 17.185501 -0.403513
v -0.012669 16.943701 -0.560393
v 0.002214 16.617899 -0.619223
v 0.006396 16.312000 -0.613711
v -0.001845 16.117800 -0.575975
v 0.011562 15.887500 -0.433511
v 0.050184 15.561400 -0.337899
v 0.038007 15.426400 -0.343835
v -0.295446 16.901600 -0.522339
v -0.256701 16.598099 -0.569827
v -0.322014 17.148201 -0.378497
v -0.341571 17.303301 -0.176779
v -0.315987 17.418100 0.162421
v -0.189543 15.544900 -0.318077
v -0.168879 15.438500 -0.320197
v -0.211560 15.909400 -0.392701
v -0.218817 16.123899 -0.541843
v -0.222015 16.301500 -0.566329
v 0.712908 16.698000 1.043175
v 0.701838 16.847300 1.027805
v 0.642798 17.001501 1.031303
v 0.556329 17.155001 1.012965
v 0.413895 17.243401 0.994309
v 0.240834 17.268000 1.052291
v 0.000000 17.319401 1.003849
v 0.744273 16.517700 1.005015
v 0.752391 16.045500 1.014131
v 0.764199 16.344200 0.999821
v 0.768504 16.181200 1.011481
v 0.732096 15.973400 1.007453
v -0.712908 16.698000 1.043175
v -0.701838 16.847300 1.027805
v -0.642798 17.001501 1.031303
v -0.556329 17.155001 1.012965
v -0.413895 17.243401 0.994309
v -0.240834 17.268000 1.052291
v -0.744273 16.517700 1.005015
v -0.752391 16.045500 1.014131
v -0.764199 16.344200 0.999821
v -0.768504 16.181200 1.011481
v -0.732096 15.973400 1.007453
v 0.151659 17.032900 1.275527
v 0.106887 17.388300 0.877391
v 0.123861 17.455299 0.552607
v 0.148092 17.141001 1.208535
v 0.130380 16.611599 -0.589755
v 0.108363 15.431400 -0.327087
v 0.148461 16.929899 -0.545341
v 0.164820 17.167700 -0.385281
v 0.180318 17.321001 -0.185895
v 0.165312 17.432600 0.142811
v 0.124476 15.547800 -0.332069
v 0.124722 15.899200 -0.415703
v 0.113529 16.122799 -0.560711
v 0.114021 16.309900 -0.593995
v 0.118695 17.295500 1.027805
v -0.151659 17.032900 1.275527
v -0.106887 17.388300 0.877391
v -0.123861 17.455299 0.552607
v -0.148092 17.141001 1.208535
v -0.130380 16.611599 -0.589755
v -0.108363 15.431400 -0.327087
v -0.148461 16.929899 -0.545341
v -0.164820 17.167700 -0.385281
v -0.180318 17.321001 -0.185895
v -0.165312 17.432600 0.142811
v -0.124476 15.547800 -0.332069
v -0.124722 15.899200 -0.415703
v -0.113529 16.122799 -0.560711
v -0.114021 16.309900 -0.593995
v -0.118695 17.295500 1.027805
v 0.549441 16.894300 1.167407
v 0.716106 17.074400 0.862763
v 0.482898 16.980700 1.174403
v 0.599748 17.260900 0.841457
v 0.274659 17.042299 1.250193
v 0.245508 17.385201 0.836369
v 0.285114 17.452101 0.535647
v 0.805158 17.031601 0.577941
v 0.681297 17.258501 0.541159
v 0.600978 16.955900 1.113877
v 0.527301 17.072401 1.108895
v 0.268878 17.124701 1.184261
v 0.856818 16.930300 0.313789
v 0.869118 16.790899 0.098609
v 0.861861 16.677799 -0.041417
v 0.459528 16.141100 -0.435737
v 0.384006 15.996800 -0.410297
v 0.227427 15.739400 -0.337157
v 0.171462 15.531900 -0.379027
v 0.752883 17.164600 0.227611
v 0.765060 17.029800 -0.046717
v 0.731850 16.873600 -0.252887
v 0.673671 16.706600 -0.345637
v 0.647841 16.558599 -0.398849
v 0.313896 16.917900 -0.519795
v 0.283392 16.669300 -0.543751
v 0.348582 17.158400 -0.392065
v 0.355101 17.328199 -0.167345
v 0.328287 17.422100 0.165283
v 0.173430 15.634900 -0.349241
v 0.175521 15.497700 -0.362279
v 0.191388 15.949800 -0.464887
v 0.206025 16.116100 -0.573113
v 0.238743 16.335800 -0.601203
v -0.596673 16.728199 1.189137
v -0.780312 16.694099 0.912371
v -0.549441 16.894300 1.167407
v -0.730866 17.075201 0.862551
v -0.274659 17.042299 1.250193
v -0.246000 17.384501 0.837853
v 0.010332 17.073101 1.268425
v 0.002706 17.409700 0.794393
v -0.304548 17.440001 0.528015
v 0.004797 17.458500 0.488477
v -0.809094 16.639299 0.696131
v -0.812661 17.030100 0.574231
v -0.649563 16.720200 1.124477
v -0.588309 16.928801 1.112499
v -0.268878 17.124701 1.184261
v 0.004920 17.162901 1.200585
v -0.903804 16.541399 0.505119
v -0.864936 16.928400 0.311987
v -0.915735 16.413700 0.381205
v -0.869856 16.790100 0.100199
v -0.836646 16.206400 0.362549
v -0.870348 16.017000 0.385551
v -0.825084 15.919800 0.406645
v -0.818442 16.639200 -0.079471
v -0.749685 16.486300 -0.255643
v -0.649194 16.372400 -0.346379
v 0.003075 17.453300 0.128077
v 0.002337 17.353001 -0.199781
v -0.003198 17.203400 -0.423971
v -0.004059 16.962101 -0.571417
v 0.003690 16.686899 -0.648585
v 0.004674 16.121901 -0.579473
v 0.018450 15.955800 -0.484815
v 0.039483 15.633101 -0.374045
v 0.045018 15.495501 -0.357403
v -0.355224 16.889101 -0.508347
v -0.215865 16.650900 -0.593783
v -0.422997 17.141701 -0.387083
v -0.405777 17.296801 -0.169783
v -0.404055 17.391100 0.147475
v -0.157440 15.654000 -0.350831
v -0.152889 15.512900 -0.341397
v -0.175029 15.966200 -0.480681
v -0.143664 16.130499 -0.569615
v 0.645258 17.021999 1.025049
v 0.559650 17.184299 0.995157
v 0.247599 17.285299 1.016675
v 0.006027 17.328199 0.981483
v -0.710202 16.702499 1.035013
v -0.656328 17.021999 1.016781
v -0.251781 17.289400 1.025261
v 0.145386 17.063601 1.263231
v 0.102336 17.405300 0.824285
v 0.117096 17.445900 0.515083
v 0.141327 17.145700 1.197405
v 0.130011 16.682499 -0.622721
v 0.110085 15.499100 -0.360795
v 0.144894 16.949900 -0.554775
v 0.157317 17.179300 -0.393231
v 0.168264 17.345900 -0.179535
v 0.157809 17.448601 0.143023
v 0.118818 15.639800 -0.364611
v 0.125952 15.957000 -0.472519
v 0.109593 16.123699 -0.576081
v 0.114267 17.326300 1.008937
v 0.553254 16.884701 1.167619
v 0.568875 16.841801 1.173237
v 0.572565 16.832399 1.172813
v 0.768381 16.916201 0.889899
v 0.769119 16.946100 0.889899
v 0.724593 17.045401 0.868063
v 0.841320 16.873301 0.624475
v 0.844272 16.901899 0.617479
v 0.820164 16.998701 0.584513
v 0.639600 16.872200 1.116951
v 0.628653 16.887800 1.111121
v 0.599010 16.936001 1.104761
v 0.882279 16.764599 0.391063
v 0.877236 16.795599 0.377601
v 0.858540 16.901501 0.329477
v 0.900606 16.598600 0.200687
v 0.888921 16.635201 0.184893
v 0.876498 16.761900 0.119067
v 0.871947 16.497700 0.035963
v 0.873177 16.526300 0.023773
v 0.855711 16.651699 -0.022867
v 0.522135 16.276199 -0.425137
v 0.004674 16.179800 -0.600991
v 0.005904 16.222500 -0.604277
v 0.204918 16.179300 -0.575975
v 0.222138 16.253901 -0.593041
v -0.553254 16.884701 1.167619
v -0.568875 16.841801 1.173237
v -0.572565 16.832399 1.172813
v -0.761862 16.913700 0.885447
v -0.754236 16.941700 0.880889
v -0.739353 17.046200 0.867851
v -0.841812 16.871601 0.620765
v -0.821517 16.895700 0.605819
v -0.820902 16.996700 0.580803
v -0.626070 16.846701 1.113559
v -0.619305 16.861601 1.113559
v -0.594951 16.913799 1.114195
v -0.882894 16.760599 0.383961
v -0.893964 16.792900 0.369227
v -0.891012 16.901100 0.320891
v -0.894579 16.595299 0.195493
v -0.905649 16.632000 0.177791
v -0.878220 16.759699 0.117583
v -0.858909 16.459400 -0.015023
v -0.854358 16.493799 -0.027531
v -0.832587 16.606699 -0.065373
v -0.752145 16.329500 -0.191513
v -0.742428 16.359600 -0.198615
v -0.738123 16.456999 -0.238365
v -0.651039 16.239201 -0.301753
v -0.645012 16.257000 -0.305357
v -0.634680 16.351999 -0.334507
v -0.124476 16.295900 -0.608835
v 0.698394 16.905500 1.025791
v 0.704175 16.927401 1.034377
v 0.678222 16.999901 1.033317
v -0.664938 16.996500 1.021657
v -0.703191 16.925100 1.028123
v -0.703806 16.903400 1.025685
v 0.105165 16.183199 -0.592617
v 0.110577 16.303101 -0.618693
v 0.514386 16.943100 1.170163
v 0.520659 16.934401 1.169421
v 0.677115 17.164101 0.860325
v 0.652761 17.184801 0.856615
v 0.747717 17.137100 0.566599
v 0.744765 17.173700 0.565539
v 0.562725 17.008801 1.107411
v 0.560880 17.026501 1.108683
v 0.632589 16.502699 -0.407011
v 0.807864 16.816700 -0.130351
v 0.808725 16.793699 -0.114557
v 0.836154 16.932400 0.020593
v 0.843042 16.901701 0.041581
v 0.803190 17.057600 0.270011
v 0.831234 17.034100 0.277431
v 0.006765 16.589899 -0.646571
v 0.009471 16.407999 -0.642119
v 0.264204 16.452299 -0.598659
v 0.278472 16.557400 -0.559227
v -0.514386 16.943100 1.170163
v -0.520659 16.934401 1.169421
v -0.668874 17.159700 0.855661
v -0.653376 17.183399 0.854071
v -0.738369 17.134901 0.562041
v -0.746118 17.171801 0.560663
v -0.576132 17.011301 1.117905
v -0.560019 17.021900 1.110485
v -0.709956 16.614599 -0.331645
v -0.697533 16.589500 -0.305145
v -0.639108 16.464699 -0.376695
v -0.635295 16.483000 -0.383479
v -0.763461 16.779499 -0.170737
v -0.799131 16.751699 -0.163211
v -0.835785 16.931101 0.014657
v -0.848823 16.900801 0.029285
v -0.819426 17.061800 0.263863
v -0.816843 17.028801 0.271813
v -0.170970 16.504799 -0.614559
v 0.616107 17.103100 1.007135
v 0.615738 17.123701 1.017099
v -0.607497 17.119400 1.012329
v -0.608727 17.094900 1.005227
v 0.120171 16.467100 -0.616785
v 0.423489 17.012199 1.193801
v 0.432468 17.007500 1.191469
v 0.474042 16.986099 1.177053
v 0.569736 17.271400 0.841457
v 0.491262 17.312500 0.832023
v 0.463710 17.321899 0.824497
v 0.532713 17.357700 0.532255
v 0.547473 17.327499 0.534269
v 0.647472 17.272400 0.539145
v 0.508236 17.080299 1.106775
v 0.464079 17.109400 1.108259
v 0.452025 17.120399 1.113347
v 0.557805 16.802599 -0.418353
v 0.569613 16.784000 -0.398743
v 0.656328 16.724899 -0.359947
v 0.622749 16.568800 -0.403407
v 0.592245 17.002901 -0.302601
v 0.620535 16.980101 -0.291789
v 0.707865 16.896500 -0.264653
v 0.649686 17.184401 -0.113285
v 0.673548 17.160700 -0.105017
v 0.747717 17.058901 -0.061875
v 0.605775 17.301201 0.202701
v 0.636402 17.287300 0.203973
v 0.716844 17.190201 0.222099
v 0.215742 15.730100 -0.346485
v 0.226443 15.740800 -0.316275
v 0.204549 15.728100 -0.367897
v 0.161253 15.532500 -0.397047
v 0.207624 15.603601 -0.315533
v 0.202458 15.590800 -0.342351
v 0.305286 15.983100 -0.412735
v 0.317709 15.992300 -0.387719
v 0.345261 15.995100 -0.406905
v 0.383268 16.130499 -0.446019
v 0.408237 16.133200 -0.432663
v 0.427056 16.139400 -0.446655
v 0.534189 17.195499 0.991235
v 0.476256 17.236799 0.987313
v 0.462480 17.252300 0.990069
v 0.496920 16.287699 -0.455665
v 0.461619 16.287300 -0.461177
v 0.504054 16.268700 -0.448351
v 0.443784 16.180901 -0.443051
v 0.408606 16.180799 -0.449517
v 0.613647 16.505800 -0.418565
v 0.536895 16.500200 -0.447079
v 0.536034 16.500599 -0.477077
v 0.527424 16.368700 -0.459163
v 0.498888 16.368299 -0.468173
v 0.288681 17.039801 1.244893
v 0.354855 17.028601 1.219771
v 0.369492 17.026899 1.213941
v 0.389910 17.373301 0.828525
v 0.361251 17.374100 0.831493
v 0.276750 17.388599 0.842411
v 0.436527 17.408400 0.531089
v 0.409098 17.415100 0.531725
v 0.314142 17.441900 0.534163
v 0.379086 17.134300 1.110909
v 0.358791 17.135601 1.119601
v 0.289173 17.121901 1.176629
v 0.337266 16.902901 -0.501563
v 0.433329 16.860300 -0.472837
v 0.464940 16.852400 -0.478773
v 0.385359 17.149300 -0.389945
v 0.482775 17.092800 -0.359735
v 0.510327 17.075300 -0.348393
v 0.386835 17.313499 -0.163211
v 0.496551 17.244801 -0.139785
v 0.535542 17.241600 -0.137029
v 0.358176 17.408701 0.168039
v 0.464817 17.351000 0.185423
v 0.497289 17.337700 0.188815
v 0.193848 15.640901 -0.350513
v 0.114636 15.608500 -0.430331
v 0.129642 15.621400 -0.407859
v 0.218079 15.951000 -0.460117
v 0.204180 15.936400 -0.472095
v 0.220908 15.944201 -0.448563
v 0.233946 16.115499 -0.566011
v 0.274659 16.115299 -0.529759
v 0.284868 16.122900 -0.495945
v 0.255594 16.339199 -0.575975
v 0.423981 16.618099 -0.526579
v 0.403194 16.625099 -0.540041
v 0.323121 16.638300 -0.536119
v 0.098646 15.488200 -0.432769
v 0.088560 15.480000 -0.449199
v 0.188682 15.504700 -0.347863
v 0.377487 17.275200 0.987101
v 0.348336 17.272400 0.980847
v 0.269985 17.281700 1.010209
v 0.341817 16.293400 -0.516721
v 0.330009 16.293400 -0.546719
v 0.250797 16.250000 -0.583607
v 0.314019 16.181000 -0.505591
v 0.288312 16.179199 -0.521067
v 0.237636 16.171600 -0.578837
v 0.350304 16.383101 -0.527851
v 0.374412 16.378700 -0.519265
v 0.276381 16.450399 -0.565799
v 0.302088 16.550800 -0.548733
v 0.395937 16.532700 -0.555729
v 0.411927 16.525700 -0.534423
v 0.209469 17.055201 1.255811
v 0.222015 17.053400 1.253479
v 0.219432 16.938601 -0.541737
v 0.236406 16.930500 -0.531455
v 0.242310 17.169500 -0.386023
v 0.264573 17.170401 -0.391111
v 0.251535 17.336000 -0.158653
v 0.275766 17.333300 -0.179853
v 0.231609 17.436201 0.162527
v 0.253134 17.431900 0.154577
v 0.151167 15.640500 -0.344365
v 0.160023 15.641700 -0.342563
v 0.171831 15.955000 -0.458739
v 0.180687 15.956100 -0.453651
v 0.163098 16.122700 -0.570039
v 0.176505 16.125700 -0.555305
v 0.166911 16.344700 -0.618269
v 0.181671 16.343500 -0.614559
v 0.181917 17.403000 0.831069
v 0.164082 17.404800 0.829903
v 0.203196 17.454100 0.530135
v 0.184992 17.461800 0.526955
v 0.216357 17.133699 1.188607
v 0.200982 17.136400 1.189667
v 0.209715 16.669500 -0.595479
v 0.192249 16.671299 -0.598341
v 0.150552 15.499200 -0.353587
v 0.144525 15.498700 -0.354647
v 0.188928 17.312799 1.025155
v 0.172077 17.316101 1.023035
v 0.179703 16.300301 -0.606927
v 0.165189 16.300499 -0.614029
v 0.171831 16.184900 -0.576929
v 0.157932 16.183899 -0.584137
v 0.187452 16.579899 -0.614453
v 0.202950 16.572599 -0.597917
v 0.084870 17.402201 0.815063
v 0.022632 17.408199 0.797891
v 0.098892 17.454401 0.510419
v 0.026199 17.469200 0.499183
v 0.122016 17.148800 1.197405
v 0.031734 17.158600 1.201009
v 0.103320 16.677000 -0.610849
v 0.027429 16.692101 -0.645617
v 0.102582 15.498500 -0.362173
v 0.058179 15.495800 -0.356661
v 0.092742 17.318901 1.004379
v 0.028044 17.339701 0.994733
v 0.031611 17.071701 1.267365
v 0.129273 17.065100 1.264291
v 0.022509 16.966200 -0.573219
v 0.114513 16.946701 -0.546401
v 0.026445 17.206800 -0.425561
v 0.129273 17.187500 -0.404043
v 0.030135 17.368401 -0.208685
v 0.140343 17.348801 -0.192573
v 0.032103 17.457901 0.126911
v 0.128904 17.437700 0.136133
v 0.057441 15.636100 -0.368745
v 0.107871 15.638300 -0.366837
v 0.037269 15.954700 -0.490539
v 0.111684 15.955100 -0.480151
v 0.025461 16.121099 -0.581063
v 0.093357 16.122799 -0.571523
v 0.093726 16.302099 -0.627491
v 0.023370 16.218000 -0.618481
v 0.085977 16.184500 -0.584667
v 0.022755 16.180500 -0.599295
v 0.028044 16.407099 -0.645935
v 0.098277 16.468300 -0.611697
v 0.027798 16.588800 -0.642437
v -0.080688 17.421900 0.821105
v -0.064206 17.423800 0.817395
v -0.091758 17.468300 0.518369
v -0.072078 17.469700 0.514553
v -0.111069 17.149601 1.197723
v -0.085731 17.152300 1.198677
v -0.045756 16.678699 -0.626007
v -0.026691 16.679199 -0.637031
v -0.087576 15.497601 -0.360159
v -0.072078 15.496100 -0.361325
v -0.094464 17.066900 1.262913
v -0.112914 17.065201 1.261853
v -0.063837 16.947701 -0.563679
v -0.092619 16.952600 -0.560923
v -0.093111 17.184500 -0.403619
v -0.124599 17.190100 -0.409555
v -0.098769 17.351000 -0.193421
v -0.125214 17.340500 -0.185789
v -0.087822 17.436701 0.143977
v -0.118695 17.451700 0.143129
v -0.069618 15.642600 -0.349029
v -0.089913 15.644600 -0.346167
v -0.072447 15.954600 -0.483437
v -0.098031 15.957100 -0.472625
v -0.050061 16.122099 -0.580957
v -0.075399 16.125000 -0.567177
v -0.066420 17.326099 0.988691
v -0.083394 17.333401 1.000139
v -0.034194 16.263199 -0.603959
v -0.053259 16.263300 -0.601415
v -0.042312 16.217699 -0.614877
v -0.057318 16.222399 -0.603005
v -0.040467 16.401800 -0.616679
v -0.021402 16.401300 -0.626961
v -0.037884 16.580799 -0.621343
v -0.015867 16.581800 -0.625583
v -0.190158 17.056299 1.255175
v -0.206025 17.054300 1.253055
v -0.218817 16.941401 -0.543221
v -0.242310 16.937300 -0.541843
v -0.277857 17.182301 -0.402029
v -0.299136 17.175200 -0.396835
v -0.282777 17.326099 -0.186107
v -0.306393 17.317400 -0.180171
v -0.214512 17.435101 0.149807
v -0.238251 17.433001 0.152669
v -0.141081 15.642700 -0.337687
v -0.152643 15.642500 -0.341821
v -0.153627 15.952800 -0.470929
v -0.164451 15.957100 -0.453969
v -0.105411 16.123800 -0.571417
v -0.124230 16.126600 -0.562725
v -0.061746 16.339600 -0.606821
v -0.082041 16.337900 -0.620601
v -0.153873 17.314501 1.012329
v -0.173922 17.315800 1.023035
v -0.161868 17.394300 0.822695
v -0.143787 17.413300 0.834991
v -0.185361 17.454000 0.528333
v -0.156087 17.452000 0.525895
v -0.202458 17.135900 1.189455
v -0.182409 17.139400 1.190939
v -0.122508 16.667299 -0.606503
v -0.103320 16.669300 -0.624311
v -0.142557 15.499001 -0.354859
v -0.130749 15.500500 -0.354753
v -0.088314 16.180901 -0.591769
v -0.102090 16.184401 -0.581275
v -0.082779 16.513599 -0.612863
v -0.062238 16.514500 -0.617103
v -0.093603 16.572100 -0.619011
v -0.071955 16.572800 -0.617739
v -0.288681 17.039801 1.244893
v -0.354855 17.028601 1.219771
v -0.369492 17.026899 1.213941
v -0.377118 17.357401 0.825557
v -0.356700 17.369101 0.835839
v -0.276996 17.388800 0.842623
v -0.432714 17.400900 0.529075
v -0.400119 17.401899 0.532785
v -0.328533 17.426001 0.527591
v -0.382530 17.139900 1.115997
v -0.369246 17.146400 1.138575
v -0.289665 17.142601 1.149599
v -0.379578 16.877300 -0.501139
v -0.434805 16.867201 -0.496475
v -0.453747 16.849400 -0.477077
v -0.443292 17.122400 -0.358463
v -0.480192 17.092400 -0.361643
v -0.506883 17.076500 -0.349453
v -0.448581 17.300800 -0.171055
v -0.505653 17.260099 -0.151975
v -0.537141 17.245001 -0.145403
v -0.429639 17.366100 0.153093
v -0.463587 17.351200 0.180441
v -0.496059 17.338600 0.184151
v -0.179334 15.663100 -0.347651
v -0.113898 15.666000 -0.381465
v -0.130872 15.672100 -0.365459
v -0.184623 15.976900 -0.449941
v -0.165435 15.965400 -0.477607
v -0.179703 15.971400 -0.452591
v -0.167895 16.130600 -0.553185
v -0.367770 16.613699 -0.553291
v -0.348336 16.625599 -0.568237
v -0.236898 16.640200 -0.569827
v -0.117219 15.534700 -0.356449
v -0.106518 15.530500 -0.369911
v -0.165312 15.521100 -0.328253
v -0.279579 17.295700 1.027487
v -0.359037 17.283701 1.000563
v -0.381300 17.280100 0.993567
v -0.153996 16.294800 -0.598447
v -0.227673 16.204300 -0.560499
v -0.254487 16.201000 -0.548309
v -0.284991 16.371000 -0.560181
v -0.261990 16.372999 -0.578943
v -0.190404 16.498199 -0.589225
v -0.333576 16.518999 -0.554351
v -0.317709 16.528599 -0.576505
v -0.428655 17.009701 1.191999
v -0.439848 17.003500 1.189031
v -0.498027 17.307199 0.823225
v -0.475272 17.325600 0.825027
v -0.548211 17.352600 0.541477
v -0.572811 17.327000 0.539675
v -0.463833 17.100401 1.104231
v -0.457437 17.116301 1.112711
v -0.554607 16.793400 -0.440189
v -0.563586 16.770000 -0.414113
v -0.606759 16.992201 -0.309597
v -0.657435 16.954401 -0.224691
v -0.647349 17.165199 -0.106077
v -0.691752 17.139999 -0.098445
v -0.615492 17.293100 0.204397
v -0.631359 17.260300 0.211075
v -0.170601 15.695800 -0.349665
v -0.190773 15.716500 -0.326981
v -0.177489 15.571000 -0.320091
v -0.155718 15.561400 -0.341715
v -0.264819 15.979000 -0.416975
v -0.289665 15.987500 -0.401711
v -0.312543 16.125599 -0.508347
v -0.351657 16.128500 -0.483755
v -0.459282 17.242901 0.979363
v -0.475026 17.223600 0.977455
v -0.353994 16.292299 -0.513329
v -0.385974 16.293900 -0.500927
v -0.421398 16.452000 -0.501563
v -0.445506 16.450100 -0.515343
v 0.586218 16.783800 1.180445
v 0.588063 16.772900 1.181929
v 0.784740 16.785099 0.909403
v 0.786954 16.813601 0.905799
v 0.837876 16.734400 0.666981
v 0.825822 16.766699 0.651505
v 0.656328 16.798000 1.115785
v 0.648825 16.814800 1.113241
v 0.896547 16.628500 0.455617
v 0.889905 16.656900 0.435159
v 0.848331 15.997300 0.301175
v 0.858294 15.999800 0.326827
v 0.794211 15.919600 0.335519
v 0.794826 15.928600 0.307005
v 0.913398 16.227400 0.256019
v 0.902082 16.225100 0.281989
v 0.930495 16.459600 0.301387
v 0.903681 16.446301 0.320467
v 0.727545 16.800499 1.035013
v 0.704052 16.823500 1.022611
v -0.585234 16.788900 1.180127
v -0.586587 16.780199 1.181293
v -0.595197 16.737900 1.186805
v -0.756204 16.719000 0.901877
v -0.786954 16.799099 0.905799
v -0.779205 16.823200 0.900605
v -0.836523 16.663000 0.694011
v -0.834063 16.751299 0.657759
v -0.836892 16.775200 0.648749
v -0.646242 16.735001 1.121403
v -0.639846 16.783499 1.112075
v -0.638985 16.797699 1.111545
v -0.896055 16.564899 0.490491
v -0.913152 16.638700 0.446289
v -0.912537 16.660999 0.432933
v -0.854235 15.985200 0.288879
v -0.858540 15.982600 0.295769
v -0.870102 16.000000 0.363185
v -0.814014 15.918200 0.392229
v -0.797286 15.925000 0.306051
v -0.800238 15.924400 0.290681
v -0.898638 16.222099 0.243723
v -0.900852 16.221500 0.262909
v -0.831972 16.204700 0.336791
v -0.915489 16.467600 0.291635
v -0.914751 16.455099 0.307853
v -0.901221 16.409199 0.371665
v -0.725946 16.830700 1.033105
v -0.704052 16.790400 1.029077
v -0.709464 16.721600 1.034377
vn 0.8804 0.0133 0.4741
vn 0.7883 0.3127 0.5299
vn 0.7056 0.4939 0.5082
vn 0.3885 0.7195 0.5757
vn 0.2695 0.7675 0.5817
vn 0.0283 0.8675 0.4966
vn 0.0554 0.9757 0.2120
vn 0.2597 0.9437 0.2047
vn 0.8110 0.5473 0.2069
vn 0.9330 0.2822 0.2233
vn 0.9662 -0.0689 0.2482
vn 0.5521 0.8133 0.1836
vn 0.7423 0.2162 0.6342
vn 0.6729 0.3268 0.6636
vn 0.5927 0.3465 0.7271
vn 0.4497 0.5074 0.7351
vn 0.3687 0.5779 0.7281
vn 0.1004 0.5111 0.8536
vn 0.7956 0.2335 0.5591
vn 0.9699 0.0783 0.2306
vn 0.8921 0.1505 0.4261
vn 0.8819 -0.0029 0.4714
vn 0.9778 -0.1410 0.1551
vn 0.9397 -0.0773 0.3332
vn 0.8415 0.0363 0.5390
vn 0.8469 0.0513 0.5293
vn 0.9699 0.0860 0.2280
vn 0.9807 -0.0484 0.1897
vn 0.9411 0.0779 0.3290
vn 0.9289 0.0563 0.3660
vn 0.9735 -0.1397 0.1812
vn 0.9797 -0.1636 0.1160
vn 0.9617 0.0051 0.2739
vn 0.9299 0.0855 0.3576
vn 0.9742 0.2007 0.1035
vn 0.9585 0.0838 0.2725
vn 0.9995 0.0147 0.0270
vn 0.9364 -0.1001 0.3364
vn 0.9567 -0.1925 0.2185
vn 0.9687 -0.1774 0.1738
vn 0.9913 0.1098 -0.0730
vn 0.9992 -0.0314 -0.0234
vn 0.9073 -0.3091 -0.2849
vn 0.9474 0.2203 -0.2320
vn 0.7163 -0.6976 -0.0180
vn 0.9326 -0.3597 0.0308
vn 0.9581 0.1569 0.2396
vn 0.9684 -0.2106 0.1333
vn 0.9706 -0.2080 0.1210
vn 0.8797 -0.2421 0.4094
vn 0.9485 -0.2565 0.1858
vn 0.9223 -0.2712 0.2755
vn 0.7882 -0.4421 0.4281
vn 0.7283 -0.5722 -0.3770
vn 0.9807 -0.0391 0.1914
vn 0.9702 -0.1549 0.1863
vn 0.9636 0.0258 -0.2661
vn 0.8905 -0.1073 -0.4421
vn 0.7255 -0.2567 -0.6385
vn 0.7189 -0.4548 -0.5257
vn 0.8415 -0.3257 -0.4311
vn 0.9536 -0.1277 -0.2728
vn 0.7456 -0.4453 -0.4958
vn 0.7733 -0.4715 -0.4239
vn 0.8291 -0.4429 -0.3412
vn 0.7715 -0.2006 -0.6038
vn 0.8002 -0.3098 -0.5135
vn 0.7112 -0.1229 -0.6922
vn 0.8495 0.0590 -0.5242
vn 0.9126 0.1337 -0.3864
vn 0.9368 0.3176 -0.1464
vn 0.8784 0.4763 0.0398
vn 0.5595 0.0294 -0.8283
vn 0.6797 0.2283 -0.6971
vn 0.7305 0.4298 -0.5307
vn 0.7114 0.6621 -0.2356
vn 0.6393 0.7686 -0.0235
vn 0.8443 -0.4207 -0.3318
vn 0.1608 0.1554 -0.9747
vn 0.7166 -0.0669 -0.6942
vn 0.6679 -0.3314 -0.6664
vn 0.5569 -0.5080 -0.6571
vn 0.5678 -0.3157 -0.7602
vn 0.5475 -0.1809 -0.8170
vn 0.1339 0.5423 -0.8294
vn 0.1549 0.7728 -0.6154
vn 0.1352 0.9427 -0.3051
vn 0.1534 -0.0135 -0.9881
vn 0.1187 -0.2477 -0.9615
vn 0.1594 -0.5220 -0.8379
vn 0.1547 -0.1843 -0.9706
vn 0.2040 -0.0061 -0.9790
vn 0.3486 0.0936 -0.9326
vn 0.4002 0.4059 -0.8216
vn 0.4339 0.6776 -0.5938
vn 0.4054 0.8710 -0.2776
vn 0.4581 0.0008 -0.8889
vn 0.5217 -0.2422 -0.8181
vn 0.4638 -0.5080 -0.7259
vn 0.4620 -0.2305 -0.8564
vn 0.3503 -0.0890 -0.9324
vn 0.3420 0.9380 -0.0559
vn 0.0714 0.9967 -0.0383
vn -0.8804 0.0133 0.4741
vn -0.7883 0.3127 0.5299
vn -0.7056 0.4939 0.5082
vn -0.3885 0.7195 0.5757
vn -0.2695 0.7675 0.5817
vn -0.0295 0.8671 0.4973
vn -0.0554 0.9757 0.2120
vn -0.2597 0.9437 0.2047
vn -0.8110 0.5473 0.2069
vn -0.9330 0.2822 0.2233
vn -0.9663 -0.0711 0.2473
vn -0.5521 0.8133 0.1836
vn -0.7424 0.2164 0.6341
vn -0.6731 0.3267 0.6635
vn -0.5927 0.3465 0.7271
vn -0.4497 0.5074 0.7351
vn -0.3687 0.5779 0.7281
vn -0.1004 0.5111 0.8536
vn -0.7956 0.2335 0.5591
vn -0.9721 0.0706 0.2237
vn -0.8921 0.1505 0.4261
vn -0.8819 -0.0029 0.4714
vn -0.9778 -0.1411 0.1552
vn -0.9397 -0.0773 0.3332
vn -0.8415 0.0363 0.5390
vn -0.8469 0.0513 0.5293
vn -0.9730 0.0882 0.2132
vn -0.9824 -0.0433 0.1819
vn -0.9411 0.0779 0.3290
vn -0.9289 0.0563 0.3660
vn -0.9774 -0.1232 0.1717
vn -0.9800 -0.1632 0.1137
vn -0.9663 0.0129 0.2571
vn -0.9329 0.0650 0.3541
vn -0.9742 0.2007 0.1035
vn -0.9592 0.0748 0.2726
vn -0.9988 0.0084 0.0479
vn -0.9366 -0.0802 0.3410
vn -0.9618 -0.1677 0.2164
vn -0.9696 -0.1735 0.1726
vn -0.9913 0.1098 -0.0730
vn -0.9992 -0.0365 -0.0132
vn -0.9156 -0.3001 -0.2677
vn -0.9474 0.2203 -0.2320
vn -0.7163 -0.6976 -0.0180
vn -0.9403 -0.3381 0.0380
vn -0.9572 0.1593 0.2415
vn -0.9686 -0.2095 0.1338
vn -0.9708 -0.2073 0.1204
vn -0.8797 -0.2421 0.4094
vn -0.9485 -0.2565 0.1858
vn -0.9223 -0.2712 0.2755
vn -0.7882 -0.4421 0.4281
vn -0.7283 -0.5722 -0.3770
vn -0.9807 -0.0391 0.1914
vn -0.9698 -0.1529 0.1899
vn -0.9636 0.0258 -0.2661
vn -0.8905 -0.1073 -0.4421
vn -0.7255 -0.2567 -0.6385
vn -0.7189 -0.4548 -0.5257
vn -0.8415 -0.3257 -0.4311
vn -0.9536 -0.1277 -0.2728
vn -0.7456 -0.4453 -0.4958
vn -0.7733 -0.4715 -0.4239
vn -0.8291 -0.4429 -0.3412
vn -0.7715 -0.2006 -0.6038
vn -0.8002 -0.3098 -0.5135
vn -0.7112 -0.1229 -0.6922
vn -0.8495 0.0590 -0.5242
vn -0.9126 0.1337 -0.3864
vn -0.9368 0.3176 -0.1464
vn -0.8784 0.4763 0.0398
vn -0.5595 0.0294 -0.8283
vn -0.6797 0.2283 -0.6971
vn -0.7305 0.4298 -0.5307
vn -0.7114 0.6621 -0.2356
vn -0.6393 0.7686 -0.0235
vn -0.8443 -0.4207 -0.3318
vn -0.1726 0.1473 -0.9739
vn -0.7167 -0.0669 -0.6942
vn -0.6680 -0.3313 -0.6663
vn -0.5569 -0.5080 -0.6571
vn -0.5678 -0.3157 -0.7602
vn -0.5475 -0.1809 -0.8170
vn -0.1527 0.5422 -0.8263
vn -0.1679 0.7718 -0.6133
vn -0.1451 0.9413 -0.3046
vn -0.0702 0.0027 -0.9975
vn -0.0716 -0.2590 -0.9632
vn -0.1471 -0.5298 -0.8353
vn -0.1488 -0.1781 -0.9727
vn -0.1905 -0.0085 -0.9816
vn -0.3486 0.0936 -0.9326
vn -0.4002 0.4059 -0.8216
vn -0.4339 0.6776 -0.5938
vn -0.4054 0.8710 -0.2776
vn -0.4581 0.0008 -0.8889
vn -0.5216 -0.2421 -0.8181
vn -0.4638 -0.5080 -0.7259
vn -0.4620 -0.2305 -0.8564
vn -0.3503 -0.0890 -0.9324
vn -0.3420 0.9380 -0.0559
vn -0.0766 0.9964 -0.0375
vn 0.7856 0.1546 0.5991
vn 0.6994 0.2662 0.6633
vn 0.6162 0.3948 0.6814
vn 0.3562 0.6150 0.7035
vn 0.3370 0.6674 0.6641
vn 0.0852 0.7808 0.6189
vn 0.9429 0.0726 0.3251
vn 0.9643 -0.1187 0.2368
vn 0.9540 0.1098 0.2789
vn 0.9607 0.0215 0.2766
vn 0.9287 -0.2867 0.2351
vn -0.7856 0.1547 0.5991
vn -0.6994 0.2661 0.6633
vn -0.6162 0.3948 0.6814
vn -0.3562 0.6150 0.7035
vn -0.3370 0.6674 0.6640
vn -0.0852 0.7808 0.6189
vn -0.9429 0.0726 0.3251
vn -0.9643 -0.1187 0.2368
vn -0.9540 0.1098 0.2790
vn -0.9607 0.0215 0.2766
vn -0.9287 -0.2867 0.2351
vn 0.0249 0.8325 0.5535
vn 0.0310 0.9806 0.1934
vn 0.1555 0.5657 0.8098
vn 0.1730 0.1285 -0.9765
vn 0.1632 0.5139 -0.8422
vn 0.1219 0.7817 -0.6117
vn 0.1259 0.9418 -0.3116
vn 0.1652 -0.0399 -0.9855
vn 0.2408 -0.2166 -0.9461
vn 0.2091 -0.5438 -0.8127
vn 0.2055 -0.1551 -0.9663
vn 0.1976 -0.0156 -0.9802
vn 0.0794 0.9953 -0.0558
vn 0.1217 0.7336 0.6686
vn -0.0249 0.8325 0.5535
vn -0.0335 0.9806 0.1933
vn -0.1555 0.5657 0.8098
vn -0.1730 0.1285 -0.9765
vn -0.1632 0.5139 -0.8422
vn -0.1219 0.7817 -0.6117
vn -0.1259 0.9418 -0.3116
vn -0.1652 -0.0399 -0.9855
vn -0.2408 -0.2166 -0.9461
vn -0.2091 -0.5438 -0.8127
vn -0.2055 -0.1551 -0.9663
vn -0.1976 -0.0156 -0.9802
vn -0.0794 0.9953 -0.0558
vn -0.1217 0.7336 0.6686
vn 0.6463 0.6362 0.4214
vn 0.0072 0.8597 0.5108
vn -0.3467 0.8710 0.3482
vn 0.8158 -0.1198 0.5658
vn 0.3621 0.5962 0.7166
vn 0.0821 0.6043 0.7925
vn -0.0261 0.2621 -0.9647
vn -0.1203 0.5193 -0.8461
vn -0.3495 0.7690 -0.5353
vn -0.3609 0.8970 -0.2551
vn 0.1995 -0.0963 -0.9751
vn 0.0067 -0.3405 -0.9402
vn -0.1810 -0.4891 -0.8532
vn 0.0018 -0.3209 -0.9471
vn 0.1587 -0.0229 -0.9871
vn 0.4197 0.0667 -0.9052
vn 0.4211 0.3415 -0.8403
vn 0.3159 0.7601 -0.5679
vn 0.4250 0.8793 -0.2150
vn 0.3537 0.0315 -0.9348
vn 0.1217 -0.3438 -0.9311
vn 0.1837 -0.5460 -0.8174
vn 0.0513 -0.1313 -0.9900
vn 0.3233 0.0906 -0.9419
vn 0.3723 0.9274 -0.0355
vn -0.2862 0.9579 -0.0232
vn -0.7815 0.5261 0.3353
vn -0.7957 0.3428 0.4993
vn 0.2099 0.8707 0.4449
vn -0.9684 -0.0014 0.2495
vn -0.7616 0.2783 0.5852
vn -0.6539 0.3307 0.6805
vn -0.4908 0.5793 0.6508
vn -0.8722 -0.2063 0.4435
vn -0.5470 -0.0537 -0.8354
vn -0.6909 0.1877 -0.6981
vn -0.4185 0.7069 -0.5702
vn -0.2991 0.9282 -0.2213
vn -0.4751 -0.1199 -0.8717
vn -0.7776 -0.2434 -0.5798
vn -0.8172 -0.2025 -0.5396
vn -0.6211 -0.4312 -0.6545
vn 0.9641 -0.0418 -0.2622
vn -0.6143 0.7875 0.0498
vn 0.5488 0.3901 0.7393
vn 0.3158 0.7036 0.6366
vn -0.2797 0.7436 0.6073
vn -0.8211 0.1583 0.5484
vn -0.5796 0.3386 0.7412
vn -0.1595 0.6617 0.7326
vn 0.0895 0.9842 0.1530
vn 0.8935 -0.1806 0.4111
vn 0.8944 0.3836 0.2301
vn 0.9625 -0.0285 0.2696
vn 0.4423 0.4292 0.7875
vn 0.9579 0.2809 0.0587
vn 0.9899 0.0760 0.1201
vn 0.9896 0.1417 -0.0226
vn 0.9751 0.2005 -0.0944
vn 0.9967 -0.0307 -0.0748
vn 0.9798 0.0782 -0.1839
vn 0.6035 -0.0779 -0.7935
vn -0.3450 -0.2459 -0.9058
vn 0.0760 -0.1557 -0.9849
vn 0.0955 0.0492 -0.9942
vn -0.9164 0.1675 0.3635
vn -0.9319 0.2910 0.2167
vn -0.8476 0.5096 0.1480
vn -0.6812 0.2813 0.6759
vn -0.8686 0.4953 0.0164
vn -0.9655 0.2260 0.1294
vn -0.8749 0.3938 -0.2819
vn -0.9531 -0.1982 0.2288
vn -0.9187 0.1449 -0.3673
vn -0.9837 -0.1387 -0.1143
vn -0.9363 -0.1271 -0.3275
vn -0.8392 0.0204 -0.5435
vn -0.8015 -0.5534 -0.2265
vn -0.7028 0.0728 -0.7077
vn -0.5065 -0.1726 -0.8448
vn -0.4363 -0.1821 -0.8812
vn 0.7670 0.0587 0.6390
vn -0.6953 0.0927 0.7127
vn 0.8044 0.4175 0.4225
vn 0.8746 0.4347 0.2149
vn 0.6940 0.1599 0.7020
vn 0.9794 0.0030 -0.2019
vn 0.8664 0.4697 -0.1694
vn 0.8856 0.4626 0.0416
vn 0.0079 -0.0026 -1.0000
vn 0.5268 -0.2649 -0.8077
vn -0.8755 0.2571 0.4091
vn -0.9572 0.1349 0.2562
vn -0.1732 0.4954 0.8512
vn -0.9045 -0.3577 -0.2324
vn -0.8628 0.0560 -0.5024
vn -0.7297 0.4004 -0.5542
vn -0.9860 0.1662 0.0095
vn -0.9532 -0.1029 0.2844
vn -0.7398 -0.1430 -0.6575
vn 0.8986 -0.0749 0.4322
vn -0.7239 0.3630 0.5867
vn 0.2883 0.8248 0.4864
vn 0.4422 0.8084 0.3885
vn 0.3530 0.9312 0.0912
vn 0.6450 0.7374 0.2004
vn 0.2532 0.4985 0.8291
vn 0.5578 0.4048 0.7246
vn 0.4952 0.1738 -0.8512
vn 0.6544 0.1939 -0.7309
vn 0.7213 0.2147 -0.6585
vn 0.7972 0.3989 -0.4532
vn 0.6345 0.4553 -0.6247
vn 0.7385 0.6290 -0.2428
vn 0.5797 0.7819 -0.2293
vn 0.4985 0.8574 -0.1280
vn 0.6930 0.7180 0.0649
vn 0.8335 -0.1098 -0.5415
vn 0.9682 -0.1163 -0.2215
vn 0.4407 -0.4196 -0.7936
vn 0.8927 -0.3842 -0.2354
vn 0.1141 -0.2776 -0.9539
vn 0.6823 -0.5342 -0.4991
vn 0.3100 -0.3195 -0.8955
vn 0.2210 -0.1548 -0.9629
vn 0.7147 -0.1523 -0.6826
vn 0.1915 0.6726 0.7148
vn 0.6659 0.4799 0.5712
vn 0.1657 -0.1926 -0.9672
vn 0.5718 -0.2759 -0.7726
vn 0.3696 0.1054 -0.9232
vn 0.7915 -0.1327 -0.5965
vn 0.6784 -0.2506 -0.6907
vn -0.0597 0.8396 0.5399
vn 0.0945 0.9743 0.2043
vn 0.1404 0.9791 0.1470
vn 0.3425 0.6348 0.6926
vn 0.1961 0.2052 -0.9589
vn 0.2573 0.4134 -0.8734
vn 0.3516 0.7378 -0.5762
vn 0.2385 0.9344 -0.2647
vn 0.8606 -0.1043 -0.4985
vn 0.8437 -0.2916 -0.4508
vn 0.8627 -0.4109 -0.2949
vn 0.7998 -0.2847 -0.5285
vn 0.6908 0.0198 -0.7228
vn 0.3194 0.9387 -0.1298
vn 0.0150 0.6873 0.7262
vn 0.7364 -0.3224 -0.5948
vn 0.8853 -0.1553 -0.4384
vn 0.7732 0.0238 -0.6337
vn 0.2293 0.9552 0.1870
vn 0.0939 0.9052 0.4146
vn 0.1929 0.6283 0.7537
vn 0.3930 0.1664 -0.9044
vn 0.2037 0.5052 -0.8386
vn -0.2901 0.7717 -0.5660
vn -0.0400 0.9555 -0.2923
vn 0.1815 0.0633 -0.9814
vn 0.3791 -0.3343 -0.8629
vn 0.6519 -0.3868 -0.6522
vn 0.6322 -0.1724 -0.7554
vn 0.5172 0.0524 -0.8543
vn 0.2864 0.9578 -0.0245
vn 0.1033 0.6822 0.7239
vn 0.3371 -0.1407 -0.9309
vn 0.4410 -0.2512 -0.8616
vn 0.5535 -0.0132 -0.8327
vn -0.4597 -0.1427 -0.8766
vn -0.3648 0.8469 0.3869
vn 0.1044 0.6258 0.7730
vn -0.3568 0.2399 -0.9028
vn 0.0810 0.5377 -0.8392
vn 0.3880 0.7200 -0.5754
vn -0.0356 0.9584 -0.2832
vn 0.1959 -0.0394 -0.9798
vn 0.3821 -0.3103 -0.8704
vn 0.1318 -0.4890 -0.8623
vn -0.3245 -0.2547 -0.9109
vn -0.0452 0.9987 -0.0230
vn -0.1514 0.7165 0.6810
vn -0.2693 0.9480 0.1696
vn 0.0203 -0.2796 -0.9599
vn -0.3296 0.0002 -0.9441
vn 0.3359 0.8298 0.4457
vn -0.0971 0.6040 0.7910
vn -0.2538 0.2021 -0.9459
vn 0.1401 0.5560 -0.8193
vn -0.0852 0.8041 -0.5884
vn 0.0416 0.9579 -0.2841
vn -0.1028 0.0888 -0.9907
vn -0.2984 -0.3723 -0.8788
vn -0.4322 -0.4037 -0.8063
vn -0.3427 -0.1098 -0.9330
vn 0.2547 0.9638 -0.0787
vn 0.2405 0.7157 0.6557
vn -0.0584 0.9866 0.1522
vn -0.3186 -0.1009 -0.9425
vn -0.5526 -0.2169 -0.8048
vn -0.3611 0.1833 -0.9144
vn -0.3333 -0.0011 -0.9428
vn -0.3642 0.9155 0.1709
vn -0.4039 0.8370 0.3692
vn -0.1711 0.6114 0.7726
vn -0.4167 0.0630 -0.9069
vn -0.2397 0.4547 -0.8578
vn -0.3953 0.7611 -0.5143
vn -0.2603 0.9301 -0.2593
vn 0.1692 0.1152 -0.9788
vn -0.5140 -0.3309 -0.7914
vn -0.6669 -0.2567 -0.6996
vn -0.5198 -0.1093 -0.8472
vn -0.3689 -0.0873 -0.9253
vn -0.0068 0.9988 -0.0493
vn 0.1286 0.6805 0.7214
vn 0.0848 -0.1832 -0.9794
vn 0.2279 -0.0063 -0.9737
vn -0.0674 -0.0697 -0.9953
vn -0.4458 0.8076 0.3861
vn -0.1580 0.9723 0.1721
vn -0.2708 0.9483 0.1654
vn -0.7130 0.3751 0.5924
vn -0.6635 -0.0078 -0.7481
vn -0.6712 0.2572 -0.6952
vn -0.5208 0.6268 -0.5795
vn -0.4160 0.8881 -0.1955
vn -0.7431 -0.1070 -0.6605
vn -0.8002 -0.2941 -0.5227
vn -0.5748 -0.1087 -0.8111
vn -0.6557 -0.1861 -0.7317
vn -0.2031 0.9717 -0.1206
vn -0.6210 0.5499 0.5586
vn -0.6774 -0.2135 -0.7040
vn -0.6550 0.6275 0.4210
vn -0.6714 0.7035 0.2330
vn -0.7492 0.2871 0.5969
vn -0.8894 0.0413 -0.4553
vn -0.7620 0.3449 -0.5481
vn -0.7040 0.6893 -0.1712
vn -0.8192 0.5716 0.0465
vn -0.7584 -0.1104 -0.6424
vn -0.7283 -0.3969 -0.5586
vn -0.5031 -0.5789 -0.6417
vn -0.3967 0.0742 -0.9149
vn -0.8196 0.3922 0.4177
vn -0.4635 -0.1638 -0.8708
vn 0.0246 0.0015 -0.9997
vn 0.7911 0.4542 0.4097
vn 0.9695 0.2009 0.1401
vn 0.6093 0.3117 0.7291
vn 0.9342 0.3438 0.0947
vn 0.9311 -0.1256 0.3425
vn 0.7583 -0.6188 -0.2052
vn 0.9734 -0.2275 0.0264
vn 0.7794 -0.1449 0.6095
vn 0.5949 0.6440 0.4810
vn -0.8683 -0.1824 0.4614
vn -0.9729 0.1515 0.1749
vn -0.7789 0.1209 0.6154
vn -0.9512 0.0964 0.2933
vn -0.8084 0.4103 -0.4221
vn -0.9999 0.0048 0.0098
vn -0.8681 -0.4961 -0.0162
vn -0.7071 -0.6991 -0.1057
vn -0.9743 0.1574 -0.1608
vn -0.9411 -0.2144 -0.2616
vn -0.8673 -0.2570 -0.4263
vn -0.9968 -0.0522 -0.0609
vn -0.7297 -0.3204 0.6041
vt 0.297000 0.909900
vt 0.251300 0.923900
vt 0.242500 0.888700
vt 0.291900 0.881500
vt 0.342100 0.872000
vt 0.341900 0.902600
vt 0.383500 0.873200
vt 0.378600 0.897800
vt 0.419000 0.875400
vt 0.412300 0.901400
vt 0.453000 0.886500
vt 0.449700 0.919600
vt 0.472900 0.917000
vt 0.475000 0.883000
vt 0.496500 0.878200
vt 0.495500 0.912500
vt 0.451700 0.816800
vt 0.474000 0.815200
vt 0.415200 0.812600
vt 0.325200 0.811800
vt 0.370800 0.810900
vt 0.274700 0.817900
vt 0.223800 0.833300
vt 0.295400 0.981500
vt 0.266700 0.983900
vt 0.259900 0.951100
vt 0.292900 0.941800
vt 0.333600 0.936200
vt 0.329000 0.969400
vt 0.369400 0.930500
vt 0.363800 0.967900
vt 0.399600 0.936700
vt 0.392700 0.978600
vt 0.440200 0.959600
vt 0.433400 0.998500
vt 0.464300 1.002100
vt 0.468000 0.964200
vt 0.495300 0.965400
vt 0.495200 1.003100
vt 0.216700 0.971900
vt 0.206000 0.939700
vt 0.188100 0.890500
vt 0.177200 0.840800
vt 0.196400 0.914800
vt 0.100100 0.924200
vt 0.105300 0.944000
vt 0.061700 0.936000
vt 0.056900 0.919600
vt 0.092400 0.850100
vt 0.094300 0.888800
vt 0.054200 0.889300
vt 0.054800 0.855500
vt 0.097100 0.906400
vt 0.055500 0.904500
vt 0.157800 0.954100
vt 0.150100 0.931500
vt 0.139800 0.888700
vt 0.133700 0.846600
vt 0.144700 0.910000
vt 0.094300 0.821800
vt 0.131100 0.815400
vt 0.058700 0.826400
vt 0.167300 0.803600
vt 0.205700 0.782400
vt 0.248100 0.765000
vt 0.303300 0.752700
vt 0.160900 0.777400
vt 0.177800 0.743300
vt 0.129600 0.797400
vt 0.099200 0.796800
vt 0.062700 0.797100
vt 0.206500 0.712100
vt 0.273800 0.700900
vt 0.107400 0.759700
vt 0.122300 0.737800
vt 0.065300 0.755400
vt 0.060400 0.715200
vt 0.030500 0.751600
vt 0.032300 0.716400
vt 0.037200 0.830300
vt 0.039500 0.797500
vt 0.033000 0.859400
vt 0.037400 0.932300
vt 0.033400 0.917900
vt 0.031300 0.891100
vt 0.032300 0.904500
vt 0.027800 0.674900
vt 0.069300 0.708300
vt 0.126800 0.700000
vt 0.189000 0.657900
vt 0.246900 0.654400
vt 0.166900 0.606900
vt 0.218200 0.609100
vt 0.146200 0.560000
vt 0.196100 0.564700
vt 0.106400 0.598300
vt 0.089600 0.553100
vt 0.127500 0.652900
vt 0.045700 0.594600
vt 0.038000 0.541900
vt 0.058300 0.636900
vt 0.010400 0.591400
vt 0.010400 0.542400
vt 0.017700 0.635200
vt 0.237700 0.568800
vt 0.269900 0.599200
vt 0.304700 0.642900
vt 0.331200 0.690300
vt 0.353900 0.746300
vt 0.257500 0.540800
vt 0.319700 0.581400
vt 0.358500 0.628100
vt 0.384100 0.678000
vt 0.400200 0.742600
vt 0.380400 0.531100
vt 0.303400 0.482100
vt 0.318900 0.457800
vt 0.405400 0.507300
vt 0.014100 0.474600
vt 0.036800 0.484700
vt 0.095400 0.495700
vt 0.151100 0.506600
vt 0.200800 0.517800
vt 0.434200 0.591600
vt 0.464600 0.573900
vt 0.462100 0.653400
vt 0.497200 0.644000
vt 0.471100 0.734000
vt 0.496800 0.730500
vt 0.040500 0.417700
vt 0.012200 0.408000
vt 0.012600 0.390800
vt 0.045400 0.398700
vt 0.101500 0.426600
vt 0.104200 0.402500
vt 0.169900 0.435400
vt 0.173200 0.409900
vt 0.223600 0.450100
vt 0.232700 0.425400
vt 0.289000 0.505500
vt 0.357900 0.553300
vt 0.407800 0.607700
vt 0.431600 0.663900
vt 0.445700 0.738700
vt 0.011700 0.425200
vt 0.035700 0.436700
vt 0.099000 0.450700
vt 0.166800 0.460200
vt 0.215100 0.474000
vt 0.496200 0.813200
vt 0.694000 0.910900
vt 0.699300 0.882500
vt 0.748600 0.890000
vt 0.739500 0.925100
vt 0.649100 0.903300
vt 0.649100 0.872800
vt 0.612400 0.898300
vt 0.607700 0.873800
vt 0.578700 0.901800
vt 0.572100 0.875700
vt 0.541200 0.919800
vt 0.538000 0.886700
vt 0.518000 0.917100
vt 0.516100 0.883200
vt 0.517400 0.815300
vt 0.539600 0.817000
vt 0.576200 0.812900
vt 0.620600 0.811400
vt 0.666300 0.812600
vt 0.716800 0.819000
vt 0.767600 0.834800
vt 0.695200 0.982500
vt 0.697900 0.942800
vt 0.730800 0.952400
vt 0.723800 0.985100
vt 0.661600 0.970200
vt 0.657200 0.937000
vt 0.626800 0.968600
vt 0.621500 0.931200
vt 0.597900 0.979100
vt 0.591200 0.937200
vt 0.557100 0.998800
vt 0.550500 0.959900
vt 0.526200 1.002200
vt 0.522700 0.964400
vt 0.784800 0.941300
vt 0.773900 0.973400
vt 0.814200 0.842600
vt 0.803000 0.892200
vt 0.794500 0.916400
vt 0.890700 0.926400
vt 0.934000 0.922100
vt 0.929100 0.938400
vt 0.885500 0.946200
vt 0.898900 0.852400
vt 0.936500 0.858000
vt 0.936900 0.891800
vt 0.896800 0.891000
vt 0.893900 0.908600
vt 0.935500 0.906900
vt 0.840700 0.933400
vt 0.832900 0.956000
vt 0.857600 0.848600
vt 0.851300 0.890700
vt 0.846300 0.912000
vt 0.860400 0.817400
vt 0.897200 0.824000
vt 0.932800 0.828900
vt 0.824400 0.805400
vt 0.786000 0.783900
vt 0.688600 0.753500
vt 0.743700 0.766200
vt 0.814200 0.744900
vt 0.830900 0.779200
vt 0.862100 0.799400
vt 0.892500 0.799000
vt 0.929000 0.799600
vt 0.718500 0.701900
vt 0.785800 0.713500
vt 0.869800 0.739900
vt 0.884500 0.761900
vt 0.931800 0.717700
vt 0.926600 0.757900
vt 0.959900 0.719100
vt 0.961500 0.754300
vt 0.952200 0.800100
vt 0.954200 0.832900
vt 0.958300 0.862100
vt 0.957500 0.920500
vt 0.953400 0.934900
vt 0.959800 0.893800
vt 0.958700 0.907200
vt 0.923000 0.710700
vt 0.964700 0.677700
vt 0.865500 0.702000
vt 0.745700 0.655600
vt 0.803600 0.659500
vt 0.774800 0.610400
vt 0.826100 0.608600
vt 0.797200 0.566200
vt 0.847200 0.561800
vt 0.903800 0.555400
vt 0.886700 0.600500
vt 0.865100 0.654900
vt 0.955500 0.544500
vt 0.947500 0.597200
vt 0.934500 0.639500
vt 0.983200 0.545200
vt 0.982800 0.594200
vt 0.975100 0.638000
vt 0.723100 0.600100
vt 0.755600 0.570000
vt 0.687900 0.643600
vt 0.661000 0.690900
vt 0.637900 0.746900
vt 0.673400 0.581800
vt 0.736000 0.541800
vt 0.634100 0.628300
vt 0.608000 0.678300
vt 0.591600 0.742900
vt 0.613100 0.530700
vt 0.591900 0.511000
vt 0.675000 0.457400
vt 0.690700 0.482700
vt 0.957300 0.487300
vt 0.980000 0.477300
vt 0.898500 0.497800
vt 0.842700 0.508400
vt 0.792800 0.519200
vt 0.558400 0.591000
vt 0.531100 0.575000
vt 0.529800 0.653000
vt 0.520600 0.734000
vt 0.954000 0.420200
vt 0.947300 0.386900
vt 0.981100 0.385100
vt 0.982500 0.410700
vt 0.892900 0.428600
vt 0.889700 0.399800
vt 0.824300 0.437100
vt 0.821200 0.412200
vt 0.770500 0.451400
vt 0.760500 0.423900
vt 0.635400 0.553300
vt 0.704800 0.506300
vt 0.584700 0.607400
vt 0.560400 0.663700
vt 0.546000 0.738800
vt 0.958700 0.439200
vt 0.982800 0.427900
vt 0.895200 0.452700
vt 0.827200 0.461900
vt 0.778900 0.475400
vt 0.560000 0.051400
vt 0.548600 0.076600
vt 0.543200 0.075400
vt 0.555500 0.048400
vt 0.492100 0.433800
vt 0.489600 0.400300
vt 0.494500 0.399900
vt 0.494500 0.433900
vt 0.404100 0.339200
vt 0.410500 0.304600
vt 0.413200 0.303400
vt 0.408800 0.339500
vt 0.589900 0.020000
vt 0.574900 0.033900
vt 0.571400 0.031900
vt 0.587500 0.019500
vt 0.589500 0.328000
vt 0.589100 0.348100
vt 0.585600 0.347000
vt 0.587100 0.327200
vt 0.411500 0.402200
vt 0.408000 0.381600
vt 0.410300 0.381000
vt 0.413200 0.401900
vt 0.483100 0.247300
vt 0.481700 0.301800
vt 0.478700 0.302900
vt 0.479800 0.248300
vt 0.553200 0.278800
vt 0.556800 0.238000
vt 0.560900 0.238200
vt 0.557800 0.279100
vt 0.551000 0.329700
vt 0.555500 0.330500
vt 0.550700 0.403500
vt 0.555300 0.403600
vt 0.381500 0.385500
vt 0.380600 0.403700
vt 0.379300 0.403500
vt 0.379300 0.385400
vt 0.381500 0.349300
vt 0.380200 0.349000
vt 0.481000 0.398100
vt 0.480800 0.360700
vt 0.483100 0.360300
vt 0.483100 0.397600
vt 0.328100 0.408300
vt 0.328100 0.422100
vt 0.326000 0.421800
vt 0.325500 0.408100
vt 0.482400 0.324200
vt 0.479400 0.324000
vt 0.727200 0.074500
vt 0.728100 0.130900
vt 0.721200 0.125300
vt 0.722000 0.072300
vt 0.738100 0.020500
vt 0.732500 0.019500
vt 0.611300 0.279100
vt 0.618700 0.224700
vt 0.624500 0.225200
vt 0.616600 0.279300
vt 0.609100 0.350700
vt 0.614300 0.351500
vt 0.736700 0.306700
vt 0.738100 0.322700
vt 0.735200 0.324000
vt 0.733700 0.307300
vt 0.730300 0.270400
vt 0.726200 0.271100
vt 0.723600 0.234800
vt 0.719100 0.235100
vt 0.722500 0.221700
vt 0.718500 0.221100
vt 0.725500 0.149400
vt 0.721200 0.148700
vt 0.611400 0.426500
vt 0.616200 0.427900
vt 0.553300 0.479700
vt 0.557400 0.477500
vt 0.510700 0.413500
vt 0.513300 0.438800
vt 0.507100 0.439100
vt 0.506900 0.412600
vt 0.347400 0.360500
vt 0.343000 0.359600
vt 0.342800 0.331200
vt 0.348100 0.332500
vt 0.658600 0.403400
vt 0.662200 0.403300
vt 0.662200 0.437700
vt 0.658600 0.437100
vt 0.420500 0.431200
vt 0.421900 0.402700
vt 0.426100 0.399300
vt 0.426100 0.432900
vt 0.513300 0.378900
vt 0.512400 0.394100
vt 0.509500 0.393600
vt 0.511500 0.378700
vt 0.358700 0.403800
vt 0.356400 0.403300
vt 0.352700 0.387100
vt 0.356300 0.387900
vt 0.466900 0.386100
vt 0.469700 0.385400
vt 0.470700 0.405300
vt 0.465500 0.412900
vt 0.495600 0.430000
vt 0.494500 0.400500
vt 0.499500 0.399900
vt 0.499500 0.432900
vt 0.403300 0.243800
vt 0.399800 0.245600
vt 0.383900 0.191400
vt 0.389100 0.190000
vt 0.426800 0.300600
vt 0.420100 0.303400
vt 0.420500 0.354900
vt 0.413200 0.355200
vt 0.415900 0.303400
vt 0.420100 0.307200
vt 0.420500 0.422500
vt 0.415800 0.423400
vt 0.349300 0.422700
vt 0.345700 0.420800
vt 0.348300 0.403800
vt 0.349300 0.405200
vt 0.416300 0.057200
vt 0.411000 0.054900
vt 0.425200 0.019500
vt 0.426800 0.020400
vt 0.399800 0.089600
vt 0.395900 0.088900
vt 0.661500 0.069100
vt 0.665900 0.070900
vt 0.651900 0.120800
vt 0.648700 0.120500
vt 0.702800 0.111900
vt 0.709600 0.169200
vt 0.707000 0.169700
vt 0.698200 0.108900
vt 0.450400 0.442000
vt 0.445600 0.444700
vt 0.443800 0.378200
vt 0.450400 0.376600
vt 0.589500 0.383600
vt 0.585800 0.382700
vt 0.470700 0.441000
vt 0.467000 0.442600
vt 0.437900 0.496800
vt 0.434200 0.498200
vt 0.429800 0.446500
vt 0.433400 0.446500
vt 0.256400 0.256100
vt 0.249600 0.282000
vt 0.244200 0.280700
vt 0.252400 0.254600
vt 0.544400 0.125300
vt 0.538200 0.124000
vt 0.247100 0.328000
vt 0.241000 0.327200
vt 0.280700 0.221500
vt 0.268000 0.236800
vt 0.263900 0.236400
vt 0.278400 0.221000
vt 0.553100 0.174300
vt 0.546300 0.174600
vt 0.258200 0.372700
vt 0.251400 0.372800
vt 0.574100 0.214400
vt 0.567000 0.214800
vt 0.280700 0.410400
vt 0.273300 0.410600
vt 0.589900 0.236000
vt 0.584800 0.238000
vt 0.489600 0.431600
vt 0.483100 0.428000
vt 0.486000 0.399900
vt 0.489600 0.403600
vt 0.722100 0.191200
vt 0.722400 0.207200
vt 0.717900 0.207300
vt 0.717900 0.192200
vt 0.407900 0.438200
vt 0.405700 0.445800
vt 0.404500 0.445900
vt 0.404100 0.437900
vt 0.666100 0.418400
vt 0.668400 0.387100
vt 0.670400 0.387200
vt 0.669200 0.418400
vt 0.386300 0.368300
vt 0.382200 0.367500
vt 0.381500 0.342400
vt 0.386900 0.343100
vt 0.353100 0.290000
vt 0.358700 0.292100
vt 0.388600 0.303400
vt 0.395300 0.303600
vt 0.395300 0.411200
vt 0.392900 0.410900
vt 0.390300 0.393800
vt 0.393900 0.394100
vt 0.603700 0.442200
vt 0.590800 0.396200
vt 0.597100 0.394300
vt 0.609100 0.439400
vt 0.579600 0.449300
vt 0.572400 0.406600
vt 0.578400 0.403200
vt 0.585600 0.448500
vt 0.589900 0.345800
vt 0.596800 0.343800
vt 0.575400 0.356900
vt 0.581800 0.353700
vt 0.594000 0.298700
vt 0.600300 0.296900
vt 0.575800 0.310500
vt 0.581800 0.308300
vt 0.600700 0.255800
vt 0.605900 0.253500
vt 0.578800 0.268400
vt 0.584000 0.266300
vt 0.605400 0.226500
vt 0.609100 0.224700
vt 0.582400 0.239300
vt 0.585600 0.238000
vt 0.647000 0.151200
vt 0.642800 0.150900
vt 0.388200 0.120500
vt 0.384800 0.120100
vt 0.449100 0.052400
vt 0.436900 0.077200
vt 0.432500 0.074700
vt 0.445800 0.050100
vt 0.433200 0.127000
vt 0.426800 0.126300
vt 0.483100 0.020300
vt 0.465900 0.034200
vt 0.462600 0.033500
vt 0.481000 0.019500
vt 0.464400 0.222700
vt 0.483100 0.245300
vt 0.477800 0.247300
vt 0.457300 0.224800
vt 0.441800 0.181800
vt 0.435800 0.179800
vt 0.480700 0.360300
vt 0.744400 0.171500
vt 0.741200 0.141600
vt 0.745700 0.141800
vt 0.748700 0.170900
vt 0.330400 0.363400
vt 0.326700 0.362900
vt 0.325500 0.334900
vt 0.330500 0.335300
vt 0.338400 0.290000
vt 0.342800 0.293700
vt 0.342800 0.408100
vt 0.340600 0.407900
vt 0.333000 0.386600
vt 0.336600 0.387100
vt 0.302400 0.248800
vt 0.296900 0.249700
vt 0.306500 0.222000
vt 0.310200 0.221000
vt 0.292100 0.292700
vt 0.286000 0.293700
vt 0.287500 0.341300
vt 0.280700 0.343100
vt 0.291700 0.392000
vt 0.285800 0.395700
vt 0.310200 0.438300
vt 0.305500 0.443200
vt 0.386800 0.159700
vt 0.381500 0.160300
vt 0.669700 0.358700
vt 0.674700 0.387100
vt 0.670700 0.387000
vt 0.666100 0.359000
vt 0.503400 0.060000
vt 0.491000 0.086100
vt 0.487600 0.084400
vt 0.499800 0.058100
vt 0.373500 0.407600
vt 0.368900 0.355600
vt 0.373500 0.357500
vt 0.377900 0.409400
vt 0.490100 0.141200
vt 0.483100 0.140300
vt 0.674700 0.310200
vt 0.671800 0.333700
vt 0.669000 0.333700
vt 0.672800 0.310000
vt 0.538200 0.020600
vt 0.521900 0.040600
vt 0.519200 0.038600
vt 0.536800 0.019500
vt 0.764600 0.101800
vt 0.766500 0.131800
vt 0.762100 0.131600
vt 0.759700 0.099300
vt 0.765700 0.060700
vt 0.759700 0.057400
vt 0.705900 0.064000
vt 0.699500 0.061300
vt 0.773700 0.022200
vt 0.768100 0.018000
vt 0.717900 0.023400
vt 0.712200 0.019500
vt 0.465500 0.389600
vt 0.465500 0.441000
vt 0.459000 0.439100
vt 0.461100 0.385400
vt 0.506700 0.203600
vt 0.538200 0.251000
vt 0.532000 0.252100
vt 0.500900 0.202300
vt 0.373300 0.290000
vt 0.377900 0.291500
vt 0.769500 0.294200
vt 0.767200 0.319600
vt 0.764200 0.320500
vt 0.764100 0.297900
vt 0.716200 0.313800
vt 0.717900 0.329300
vt 0.715500 0.331600
vt 0.712500 0.316600
vt 0.773700 0.255700
vt 0.768900 0.258200
vt 0.715100 0.280000
vt 0.711600 0.282400
vt 0.769600 0.219800
vt 0.764800 0.222600
vt 0.715300 0.245400
vt 0.711200 0.247700
vt 0.715800 0.232100
vt 0.710800 0.234400
vt 0.715500 0.193500
vt 0.716100 0.209500
vt 0.711100 0.211600
vt 0.711100 0.195300
vt 0.744000 0.189000
vt 0.748100 0.187700
vt 0.764600 0.192100
vt 0.768200 0.189000
vt 0.767500 0.142900
vt 0.763900 0.143700
vt 0.514000 0.409700
vt 0.515900 0.378700
vt 0.519700 0.379500
vt 0.518700 0.410100
vt 0.624500 0.475800
vt 0.619000 0.476300
vt 0.640000 0.469600
vt 0.634800 0.468600
vt 0.626900 0.418700
vt 0.631700 0.420100
vt 0.381500 0.404700
vt 0.381500 0.431900
vt 0.378100 0.430500
vt 0.379200 0.403700
vt 0.742700 0.072200
vt 0.743800 0.123500
vt 0.739300 0.122900
vt 0.738100 0.072000
vt 0.749900 0.021500
vt 0.743700 0.019500
vt 0.625100 0.275500
vt 0.635100 0.225500
vt 0.640000 0.224700
vt 0.631800 0.275900
vt 0.624500 0.345700
vt 0.629700 0.346600
vt 0.745700 0.302900
vt 0.743900 0.320100
vt 0.741400 0.321900
vt 0.741900 0.305200
vt 0.749900 0.263000
vt 0.746000 0.265300
vt 0.749000 0.224300
vt 0.745100 0.226200
vt 0.749700 0.210100
vt 0.745100 0.211200
vt 0.517700 0.438100
vt 0.519700 0.438800
vt 0.718600 0.169500
vt 0.723000 0.169600
vt 0.572400 0.489700
vt 0.569600 0.489800
vt 0.563600 0.439400
vt 0.566500 0.439300
vt 0.501200 0.413900
vt 0.504700 0.379500
vt 0.506900 0.378700
vt 0.503100 0.413100
vt 0.479000 0.380600
vt 0.478700 0.360400
vt 0.480400 0.360300
vt 0.480400 0.380600
vt 0.686500 0.072900
vt 0.681300 0.126600
vt 0.678700 0.126400
vt 0.683100 0.071600
vt 0.698200 0.019500
vt 0.695500 0.020100
vt 0.562300 0.289000
vt 0.568800 0.238000
vt 0.572400 0.238800
vt 0.566400 0.293600
vt 0.560900 0.363300
vt 0.564300 0.365300
vt 0.698200 0.307300
vt 0.697500 0.324800
vt 0.696500 0.324900
vt 0.696700 0.307400
vt 0.693300 0.270700
vt 0.691700 0.271000
vt 0.686100 0.234200
vt 0.683200 0.235000
vt 0.683900 0.221000
vt 0.681500 0.221600
vt 0.681000 0.147200
vt 0.677600 0.145700
vt 0.505200 0.452000
vt 0.506900 0.451600
vt 0.680400 0.192100
vt 0.681300 0.200000
vt 0.678800 0.200200
vt 0.678200 0.192200
vt 0.405700 0.402200
vt 0.407900 0.402300
vt 0.650500 0.344500
vt 0.654900 0.310900
vt 0.658600 0.310000
vt 0.654200 0.345100
vt 0.656800 0.405000
vt 0.653900 0.384700
vt 0.656200 0.384100
vt 0.658600 0.404700
vt 0.646700 0.408900
vt 0.642500 0.354300
vt 0.647200 0.353900
vt 0.650500 0.408700
vt 0.476100 0.439300
vt 0.477900 0.387000
vt 0.480600 0.385400
vt 0.480600 0.439700
vt 0.428800 0.299900
vt 0.434000 0.248200
vt 0.437900 0.247300
vt 0.432900 0.297800
vt 0.426800 0.372200
vt 0.431600 0.370400
vt 0.678900 0.342300
vt 0.680900 0.324900
vt 0.682200 0.325000
vt 0.680900 0.342500
vt 0.677600 0.379200
vt 0.680200 0.379200
vt 0.679900 0.415900
vt 0.682200 0.415800
vt 0.355900 0.418100
vt 0.356800 0.404300
vt 0.358700 0.417800
vt 0.560900 0.528100
vt 0.557500 0.528400
vt 0.670400 0.440600
vt 0.668400 0.440600
vt 0.650500 0.310600
vt 0.647700 0.310000
vt 0.437900 0.417800
vt 0.441200 0.418600
vt 0.443800 0.454800
vt 0.442100 0.453600
vt 0.352100 0.424700
vt 0.350000 0.424600
vt 0.349300 0.403800
vt 0.352100 0.404100
vt 0.358700 0.342000
vt 0.362500 0.342600
vt 0.365700 0.395500
vt 0.363700 0.396100
vt 0.364200 0.290000
vt 0.368900 0.290900
vt 0.535600 0.304300
vt 0.531600 0.303700
vt 0.532200 0.252800
vt 0.536700 0.252100
vt 0.535600 0.378500
vt 0.530600 0.378000
vt 0.588700 0.402500
vt 0.585700 0.402200
vt 0.587800 0.383600
vt 0.589500 0.384000
vt 0.589500 0.438700
vt 0.587400 0.438100
vt 0.662900 0.347600
vt 0.660500 0.347600
vt 0.663400 0.310000
vt 0.666100 0.310000
vt 0.366100 0.417100
vt 0.368900 0.416500
vt 0.535900 0.454500
vt 0.532100 0.454300
vt 0.442500 0.376600
vt 0.443800 0.377300
vt 0.533400 0.504500
vt 0.536700 0.504800
vt 0.663200 0.376700
vt 0.666100 0.402600
vt 0.663200 0.403300
vt 0.661500 0.377000
vt 0.661500 0.369100
vt 0.658600 0.369100
vt 0.366900 0.452700
vt 0.368900 0.452300
vt 0.483100 0.306300
vt 0.497900 0.253300
vt 0.501200 0.252100
vt 0.487800 0.307900
vt 0.486500 0.342300
vt 0.484400 0.342500
vt 0.501200 0.399400
vt 0.499100 0.399900
vt 0.493200 0.380400
vt 0.496000 0.379800
vt 0.379600 0.290000
vt 0.381500 0.290200
vt 0.381500 0.349000
vt 0.378000 0.348500
vt 0.540400 0.439600
vt 0.544600 0.440300
vt 0.550700 0.480700
vt 0.546900 0.480800
vt 0.538200 0.389000
vt 0.542700 0.389700
vt 0.545900 0.314000
vt 0.550300 0.314100
vt 0.352100 0.403900
vt 0.354700 0.403800
vt 0.354700 0.421600
vt 0.353300 0.421500
vt 0.585600 0.289900
vt 0.588800 0.289700
vt 0.589400 0.327000
vt 0.589500 0.327200
vt 0.587200 0.251800
vt 0.589500 0.251600
vt 0.586800 0.238200
vt 0.589400 0.238000
vt 0.424500 0.378400
vt 0.426500 0.398500
vt 0.425000 0.399300
vt 0.421200 0.378500
vt 0.545900 0.238000
vt 0.550700 0.238300
vt 0.422100 0.332900
vt 0.425400 0.303400
vt 0.426500 0.303900
vt 0.426300 0.332700
vt 0.423100 0.366500
vt 0.420500 0.366800
vt 0.465200 0.329600
vt 0.461200 0.331600
vt 0.459000 0.301400
vt 0.463800 0.300100
vt 0.470700 0.437800
vt 0.471700 0.387400
vt 0.476100 0.385400
vt 0.476100 0.437700
vt 0.473400 0.249200
vt 0.478700 0.247300
vt 0.478700 0.383900
vt 0.476200 0.385400
vt 0.469100 0.359300
vt 0.473200 0.356900
vt 0.658600 0.255000
vt 0.653300 0.257400
vt 0.643000 0.202700
vt 0.647300 0.200900
vt 0.677600 0.307800
vt 0.672900 0.310000
vt 0.519700 0.397300
vt 0.525500 0.397200
vt 0.530600 0.447600
vt 0.525300 0.446500
vt 0.522000 0.326800
vt 0.527600 0.326100
vt 0.672500 0.035900
vt 0.669100 0.034100
vt 0.674900 0.019500
vt 0.677600 0.021100
vt 0.647600 0.181400
vt 0.642500 0.182100
vt 0.524800 0.253800
vt 0.530600 0.252100
vt 0.446100 0.325800
vt 0.441200 0.325700
vt 0.437900 0.296500
vt 0.444000 0.297100
vt 0.451700 0.247300
vt 0.459000 0.249000
vt 0.459000 0.376000
vt 0.456600 0.376600
vt 0.449900 0.351800
vt 0.453300 0.351500
vt 0.344100 0.139600
vt 0.326200 0.131800
vt 0.342400 0.081400
vt 0.349900 0.081800
vt 0.332300 0.183400
vt 0.325500 0.183700
vt 0.350100 0.237200
vt 0.342800 0.240700
vt 0.381500 0.286400
vt 0.376500 0.290000
vt 0.399100 0.404900
vt 0.404100 0.407000
vt 0.402600 0.421600
vt 0.397900 0.420700
vt 0.395300 0.370400
vt 0.398700 0.371900
vt 0.397900 0.337900
vt 0.404100 0.338300
vt 0.381500 0.019800
vt 0.381300 0.019500
vt 0.400800 0.304400
vt 0.396000 0.303400
vt 0.408800 0.434000
vt 0.410200 0.402200
vt 0.413200 0.403800
vt 0.413200 0.435100
vt 0.290300 0.041700
vt 0.295200 0.045400
vt 0.279100 0.066200
vt 0.274100 0.063000
vt 0.258100 0.101700
vt 0.251900 0.098000
vt 0.323600 0.019500
vt 0.325500 0.021100
vt 0.309800 0.030700
vt 0.306600 0.028000
vt 0.247500 0.141200
vt 0.241000 0.140000
vt 0.256800 0.177200
vt 0.251800 0.180600
vt 0.345700 0.403800
vt 0.345700 0.426300
vt 0.343400 0.428000
vt 0.342800 0.405700
vt 0.292100 0.203000
vt 0.325500 0.218000
vt 0.323100 0.221000
vt 0.288700 0.206900
vt 0.450400 0.401300
vt 0.451800 0.376600
vt 0.456900 0.377600
vt 0.456700 0.405600
vt 0.639000 0.224700
vt 0.613200 0.200400
vt 0.616400 0.196400
vt 0.642500 0.220900
vt 0.454400 0.442800
vt 0.454000 0.425700
vt 0.456900 0.426500
vt 0.456200 0.443200
vt 0.595300 0.164600
vt 0.599100 0.162000
vt 0.519700 0.374900
vt 0.516300 0.378700
vt 0.501200 0.345900
vt 0.505300 0.344700
vt 0.589900 0.118700
vt 0.593600 0.118300
vt 0.517500 0.271400
vt 0.514300 0.269800
vt 0.516900 0.252100
vt 0.519700 0.253500
vt 0.635800 0.039200
vt 0.633800 0.036900
vt 0.641200 0.019500
vt 0.642500 0.021600
vt 0.510600 0.307800
vt 0.507100 0.306700
vt 0.614900 0.074800
vt 0.611800 0.073300
s 0
usemtl short04
f 234/1/1 233/2/1 4/3/1 3/4/1
f 234/1/2 3/4/2 6/5/2 235/6/2
f 235/6/3 6/5/3 8/7/3 236/8/3
f 236/8/4 8/7/4 10/9/4 237/10/4
f 237/10/5 10/9/5 12/11/5 238/12/5
f 270/13/6 257/14/6 123/15/6 239/16/6
f 257/14/7 12/11/7 14/17/7 258/18/7
f 12/11/8 10/9/8 13/19/8 14/17/8
f 8/7/9 6/5/9 17/20/9 18/21/9
f 6/5/10 3/4/10 15/22/10 17/20/10
f 3/4/11 4/3/11 16/23/11 15/22/11
f 8/7/12 18/21/12 13/19/12 10/9/12
f 1/24/13 2/25/13 20/26/13 19/27/13
f 1/24/14 19/27/14 21/28/14 5/29/14
f 5/29/15 21/28/15 22/30/15 7/31/15
f 7/31/16 22/30/16 23/32/16 9/33/16
f 9/33/17 23/32/17 24/34/17 11/35/17
f 256/36/18 259/37/18 137/38/18 122/39/18
f 20/26/19 2/25/19 25/40/19 28/41/19
f 16/23/20 4/3/20 26/42/20 27/43/20
f 233/2/21 20/26/21 28/41/21 240/44/21
f 33/45/22 36/46/22 29/47/22 32/48/22
f 37/49/23 40/50/23 30/51/23 31/52/23
f 243/53/24 33/45/24 32/48/24 241/54/24
f 28/41/25 25/40/25 35/55/25 34/56/25
f 34/56/26 35/55/26 36/46/26 33/45/26
f 27/43/27 26/42/27 39/57/27 38/58/27
f 38/58/28 39/57/28 40/50/28 37/49/28
f 240/44/29 28/41/29 34/56/29 242/59/29
f 242/59/30 34/56/30 33/45/30 243/53/30
f 38/58/31 37/49/31 46/60/31 47/61/31
f 37/49/32 31/52/32 45/62/32 46/60/32
f 27/43/33 38/58/33 47/61/33 44/63/33
f 16/23/34 27/43/34 44/63/34 42/64/34
f 17/20/35 15/22/35 41/65/35 43/66/35
f 15/22/36 16/23/36 42/64/36 41/65/36
f 42/64/37 44/63/37 49/67/37 48/68/37
f 50/69/38 49/67/38 44/63/38 47/61/38
f 51/70/39 50/69/39 47/61/39 46/60/39
f 52/71/40 51/70/40 46/60/40 45/62/40
f 43/66/41 41/65/41 66/72/41 53/73/41
f 42/64/42 48/68/42 66/72/42 41/65/42
f 48/68/43 49/67/43 55/74/43 54/75/43
f 54/75/44 55/74/44 57/76/44 56/77/44
f 56/77/45 57/76/45 59/78/45 58/79/45
f 49/67/46 50/69/46 51/70/46 55/74/46
f 52/71/47 57/76/47 55/74/47 51/70/47
f 52/71/48 45/62/48 64/80/48 65/81/48
f 45/62/49 31/52/49 62/82/49 64/80/49
f 32/48/50 29/47/50 60/83/50 63/84/50
f 31/52/51 30/51/51 61/85/51 62/82/51
f 241/54/52 32/48/52 63/84/52 244/86/52
f 57/76/53 52/71/53 65/81/53 59/78/53
f 56/77/54 58/79/54 69/87/54 68/88/54
f 54/75/55 56/77/55 68/88/55 67/89/55
f 48/68/56 54/75/56 67/89/56 66/72/56
f 53/73/57 66/72/57 71/90/57 70/91/57
f 70/91/58 71/90/58 73/92/58 72/93/58
f 72/93/59 73/92/59 75/94/59 74/95/59
f 75/94/60 73/92/60 77/96/60 78/97/60
f 73/92/61 71/90/61 76/98/61 77/96/61
f 67/89/62 76/98/62 71/90/62 66/72/62
f 78/97/63 77/96/63 80/99/63 81/100/63
f 77/96/64 76/98/64 79/101/64 80/99/64
f 68/88/65 79/101/65 76/98/65 67/89/65
f 81/100/66 80/99/66 83/102/66 84/103/66
f 80/99/67 79/101/67 82/104/67 83/102/67
f 72/93/68 74/95/68 89/105/68 88/106/68
f 70/91/69 72/93/69 88/106/69 87/107/69
f 53/73/70 70/91/70 87/107/70 86/108/70
f 43/66/71 53/73/71 86/108/71 85/109/71
f 17/20/72 43/66/72 85/109/72 18/21/72
f 88/106/73 89/105/73 94/110/73 93/111/73
f 87/107/74 88/106/74 93/111/74 92/112/74
f 86/108/75 87/107/75 92/112/75 91/113/75
f 85/109/76 86/108/76 91/113/76 90/114/76
f 18/21/77 85/109/77 90/114/77 13/19/77
f 69/87/78 82/104/78 79/101/78 68/88/78
f 262/115/79 260/116/79 217/117/79 216/118/79
f 81/100/80 84/103/80 99/119/80 98/120/80
f 78/97/81 81/100/81 98/120/81 97/121/81
f 75/94/82 78/97/82 97/121/82 96/122/82
f 74/95/83 75/94/83 96/122/83 95/123/83
f 89/105/84 74/95/84 95/123/84 94/110/84
f 263/124/85 262/115/85 216/118/85 215/125/85
f 264/126/86 263/124/86 215/125/86 214/127/86
f 265/128/87 264/126/87 214/127/87 213/129/87
f 266/130/88 261/131/88 222/132/88 221/133/88
f 267/134/89 266/130/89 221/133/89 220/135/89
f 268/136/90 267/134/90 220/135/90 219/137/90
f 269/138/91 268/136/91 219/137/91 218/139/91
f 269/138/92 218/139/92 217/117/92 260/116/92
f 93/111/93 94/110/93 101/140/93 100/141/93
f 92/112/94 93/111/94 100/141/94 102/142/94
f 91/113/95 92/112/95 102/142/95 103/143/95
f 90/114/96 91/113/96 103/143/96 104/144/96
f 98/120/97 99/119/97 106/145/97 105/146/97
f 97/121/98 98/120/98 105/146/98 107/147/98
f 96/122/99 97/121/99 107/147/99 108/148/99
f 95/123/100 96/122/100 108/148/100 109/149/100
f 95/123/101 109/149/101 101/140/101 94/110/101
f 13/19/102 90/114/102 104/144/102 14/17/102
f 258/18/103 265/128/103 213/129/103 126/150/103
f 246/151/104 112/152/104 113/153/104 245/154/104
f 246/151/105 247/155/105 115/156/105 112/152/105
f 247/155/106 248/157/106 117/158/106 115/156/106
f 248/157/107 249/159/107 119/160/107 117/158/107
f 249/159/108 250/161/108 121/162/108 119/160/108
f 285/163/109 239/16/109 123/15/109 272/164/109
f 272/164/110 273/165/110 125/166/110 121/162/110
f 121/162/111 125/166/111 124/167/111 119/160/111
f 117/158/112 130/168/112 129/169/112 115/156/112
f 115/156/113 129/169/113 127/170/113 112/152/113
f 112/152/114 127/170/114 128/171/114 113/153/114
f 117/158/115 119/160/115 124/167/115 130/168/115
f 110/172/116 131/173/116 132/174/116 111/175/116
f 110/172/117 114/176/117 133/177/117 131/173/117
f 114/176/118 116/178/118 134/179/118 133/177/118
f 116/178/119 118/180/119 135/181/119 134/179/119
f 118/180/120 120/182/120 136/183/120 135/181/120
f 271/184/121 122/39/121 137/38/121 274/185/121
f 132/174/122 141/186/122 138/187/122 111/175/122
f 128/171/123 140/188/123 139/189/123 113/153/123
f 245/154/124 251/190/124 141/186/124 132/174/124
f 146/191/125 145/192/125 142/193/125 149/194/125
f 150/195/126 144/196/126 143/197/126 153/198/126
f 254/199/127 252/200/127 145/192/127 146/191/127
f 141/186/128 147/201/128 148/202/128 138/187/128
f 147/201/129 146/191/129 149/194/129 148/202/129
f 140/188/130 151/203/130 152/204/130 139/189/130
f 151/203/131 150/195/131 153/198/131 152/204/131
f 251/190/132 253/205/132 147/201/132 141/186/132
f 253/205/133 254/199/133 146/191/133 147/201/133
f 151/203/134 160/206/134 159/207/134 150/195/134
f 150/195/135 159/207/135 158/208/135 144/196/135
f 140/188/136 157/209/136 160/206/136 151/203/136
f 128/171/137 155/210/137 157/209/137 140/188/137
f 129/169/138 156/211/138 154/212/138 127/170/138
f 127/170/139 154/212/139 155/210/139 128/171/139
f 155/210/140 161/213/140 162/214/140 157/209/140
f 163/215/141 160/206/141 157/209/141 162/214/141
f 164/216/142 159/207/142 160/206/142 163/215/142
f 165/217/143 158/208/143 159/207/143 164/216/143
f 156/211/144 166/218/144 179/219/144 154/212/144
f 155/210/145 154/212/145 179/219/145 161/213/145
f 161/213/146 167/220/146 168/221/146 162/214/146
f 167/220/147 169/222/147 170/223/147 168/221/147
f 169/222/148 171/224/148 172/225/148 170/223/148
f 162/214/149 168/221/149 164/216/149 163/215/149
f 165/217/150 164/216/150 168/221/150 170/223/150
f 165/217/151 178/226/151 177/227/151 158/208/151
f 158/208/152 177/227/152 175/228/152 144/196/152
f 145/192/153 176/229/153 173/230/153 142/193/153
f 144/196/154 175/228/154 174/231/154 143/197/154
f 252/200/155 255/232/155 176/229/155 145/192/155
f 170/223/156 172/225/156 178/226/156 165/217/156
f 169/222/157 181/233/157 182/234/157 171/224/157
f 167/220/158 180/235/158 181/233/158 169/222/158
f 161/213/159 179/219/159 180/235/159 167/220/159
f 166/218/160 183/236/160 184/237/160 179/219/160
f 183/236/161 185/238/161 186/239/161 184/237/161
f 185/238/162 187/240/162 188/241/162 186/239/162
f 188/241/163 191/242/163 190/243/163 186/239/163
f 186/239/164 190/243/164 189/244/164 184/237/164
f 180/235/165 179/219/165 184/237/165 189/244/165
f 191/242/166 194/245/166 193/246/166 190/243/166
f 190/243/167 193/246/167 192/247/167 189/244/167
f 181/233/168 180/235/168 189/244/168 192/247/168
f 194/245/169 197/248/169 196/249/169 193/246/169
f 193/246/170 196/249/170 195/250/170 192/247/170
f 185/238/171 201/251/171 202/252/171 187/240/171
f 183/236/172 200/253/172 201/251/172 185/238/172
f 166/218/173 199/254/173 200/253/173 183/236/173
f 156/211/174 198/255/174 199/254/174 166/218/174
f 129/169/175 130/168/175 198/255/175 156/211/175
f 201/251/176 206/256/176 207/257/176 202/252/176
f 200/253/177 205/258/177 206/256/177 201/251/177
f 199/254/178 204/259/178 205/258/178 200/253/178
f 198/255/179 203/260/179 204/259/179 199/254/179
f 130/168/180 124/167/180 203/260/180 198/255/180
f 182/234/181 181/233/181 192/247/181 195/250/181
f 277/261/182 216/262/182 217/263/182 275/264/182
f 194/245/183 211/265/183 212/266/183 197/248/183
f 191/242/184 210/267/184 211/265/184 194/245/184
f 188/241/185 209/268/185 210/267/185 191/242/185
f 187/240/186 208/269/186 209/268/186 188/241/186
f 202/252/187 207/257/187 208/269/187 187/240/187
f 278/270/188 215/271/188 216/262/188 277/261/188
f 279/272/189 214/127/189 215/271/189 278/270/189
f 280/273/190 213/129/190 214/127/190 279/272/190
f 281/274/191 221/275/191 222/276/191 276/277/191
f 282/278/192 220/279/192 221/275/192 281/274/192
f 283/280/193 219/281/193 220/279/193 282/278/193
f 284/282/194 218/283/194 219/281/194 283/280/194
f 284/282/195 275/264/195 217/263/195 218/283/195
f 206/256/196 223/284/196 224/285/196 207/257/196
f 205/258/197 225/286/197 223/284/197 206/256/197
f 204/259/198 226/287/198 225/286/198 205/258/198
f 203/260/199 227/288/199 226/287/199 204/259/199
f 211/265/200 228/289/200 229/290/200 212/266/200
f 210/267/201 230/291/201 228/289/201 211/265/201
f 209/268/202 231/292/202 230/291/202 210/267/202
f 208/269/203 232/293/203 231/292/203 209/268/203
f 208/269/204 207/257/204 224/285/204 232/293/204
f 124/167/205 125/166/205 227/288/205 203/260/205
f 273/165/206 126/150/206 213/129/206 280/273/206
f 19/27/207 20/26/207 233/2/207 234/1/207
f 19/27/208 234/1/208 235/6/208 21/28/208
f 21/28/209 235/6/209 236/8/209 22/30/209
f 22/30/210 236/8/210 237/10/210 23/32/210
f 23/32/211 237/10/211 238/12/211 24/34/211
f 259/37/212 270/13/212 239/16/212 137/38/212
f 4/3/213 233/2/213 240/44/213 26/42/213
f 40/50/214 243/53/214 241/54/214 30/51/214
f 26/42/215 240/44/215 242/59/215 39/57/215
f 39/57/216 242/59/216 243/53/216 40/50/216
f 30/51/217 241/54/217 244/86/217 61/85/217
f 131/173/218 246/151/218 245/154/218 132/174/218
f 131/173/219 133/177/219 247/155/219 246/151/219
f 133/177/220 134/179/220 248/157/220 247/155/220
f 134/179/221 135/181/221 249/159/221 248/157/221
f 135/181/222 136/183/222 250/161/222 249/159/222
f 274/185/223 137/38/223 239/16/223 285/163/223
f 113/153/224 139/189/224 251/190/224 245/154/224
f 153/198/225 143/197/225 252/200/225 254/199/225
f 139/189/226 152/204/226 253/205/226 251/190/226
f 152/204/227 153/198/227 254/199/227 253/205/227
f 143/197/228 174/231/228 255/232/228 252/200/228
f 238/12/229 12/11/229 257/14/229 270/13/229
f 123/15/230 257/14/230 258/18/230 126/150/230
f 11/35/231 24/34/231 259/37/231 256/36/231
f 100/141/232 101/140/232 260/116/232 262/115/232
f 102/142/233 100/141/233 262/115/233 263/124/233
f 103/143/234 102/142/234 263/124/234 264/126/234
f 104/144/235 103/143/235 264/126/235 265/128/235
f 105/146/236 106/145/236 261/131/236 266/130/236
f 107/147/237 105/146/237 266/130/237 267/134/237
f 108/148/238 107/147/238 267/134/238 268/136/238
f 109/149/239 108/148/239 268/136/239 269/138/239
f 109/149/240 269/138/240 260/116/240 101/140/240
f 14/17/241 104/144/241 265/128/241 258/18/241
f 24/34/242 238/12/242 270/13/242 259/37/242
f 250/161/243 285/163/243 272/164/243 121/162/243
f 123/15/244 126/150/244 273/165/244 272/164/244
f 120/182/245 271/184/245 274/185/245 136/183/245
f 223/284/246 277/261/246 275/264/246 224/285/246
f 225/286/247 278/270/247 277/261/247 223/284/247
f 226/287/248 279/272/248 278/270/248 225/286/248
f 227/288/249 280/273/249 279/272/249 226/287/249
f 228/289/250 281/274/250 276/277/250 229/290/250
f 230/291/251 282/278/251 281/274/251 228/289/251
f 231/292/252 283/280/252 282/278/252 230/291/252
f 232/293/253 284/282/253 283/280/253 231/292/253
f 232/293/254 224/285/254 275/264/254 284/282/254
f 125/166/255 273/165/255 280/273/255 227/288/255
f 136/183/256 274/185/256 285/163/256 250/161/256
f 441/294/257 390/295/257 287/296/257 364/297/257
f 582/298/258 545/299/258 291/300/258 366/301/258
f 642/302/259 632/303/259 327/304/259 367/305/259
f 385/306/260 396/307/260 295/308/260 286/309/260
f 540/310/261 551/311/261 297/312/261 290/313/261
f 643/314/262 636/315/262 335/316/262 326/317/262
f 645/318/263 638/319/263 350/320/263 349/321/263
f 647/322/264 645/323/264 349/324/264 348/325/264
f 649/326/265 647/322/265 348/325/265 347/327/265
f 651/328/266 649/326/266 347/327/266 346/329/266
f 653/330/267 640/331/267 354/332/267 353/333/267
f 655/334/268 653/330/268 353/333/268 352/335/268
f 657/336/269 655/337/269 352/338/269 351/339/269
f 662/340/270 657/341/270 351/342/270 407/343/270
f 665/344/271 462/345/271 350/320/271 638/319/271
f 552/346/272 576/347/272 311/348/272 310/349/272
f 555/350/273 552/346/273 310/349/273 312/351/273
f 558/352/274 555/353/274 312/354/274 313/355/274
f 561/356/275 558/352/275 313/355/275 314/357/275
f 564/358/276 579/359/276 316/360/276 315/361/276
f 567/362/277 564/358/277 315/361/277 317/363/277
f 570/364/278 567/362/278 317/363/278 318/365/278
f 588/366/279 570/364/279 318/365/279 409/367/279
f 592/368/280 465/369/280 311/348/280 576/347/280
f 548/370/281 561/356/281 314/357/281 292/371/281
f 634/372/282 651/328/282 346/329/282 329/373/282
f 865/374/283 839/375/283 321/376/283 368/377/283
f 442/378/284 369/379/284 323/380/284 416/381/284
f 775/382/285 370/383/285 325/384/285 743/385/285
f 839/386/286 842/387/286 330/388/286 321/389/286
f 838/390/287 845/391/287 332/392/287 320/393/287
f 411/394/288 322/395/288 333/396/288 422/397/288
f 738/398/289 324/399/289 334/400/289 749/401/289
f 842/402/290 848/403/290 336/404/290 330/405/290
f 750/406/291 355/407/291 356/408/291 771/409/291
f 753/410/292 357/411/292 355/407/292 750/406/292
f 756/412/293 358/413/293 357/414/293 753/415/293
f 759/416/294 359/417/294 358/413/294 756/412/294
f 762/418/295 360/419/295 361/420/295 774/421/295
f 765/422/296 362/423/296 360/424/296 762/425/296
f 768/426/297 363/427/297 362/423/297 765/422/297
f 766/428/298 767/429/298 780/430/298 779/431/298
f 503/432/299 536/433/299 537/434/299 502/435/299
f 746/436/300 328/437/300 359/438/300 759/439/300
f 396/307/301 441/294/301 364/297/301 295/308/301
f 551/311/302 582/440/302 366/441/302 297/312/302
f 636/315/303 642/302/303 367/305/303 335/316/303
f 845/391/304 865/374/304 368/377/304 332/392/304
f 422/397/305 333/396/305 369/379/305 442/378/305
f 749/401/306 334/400/306 370/442/306 775/443/306
f 631/444/307 372/445/307 373/446/307 633/447/307
f 439/448/308 388/449/308 389/450/308 440/451/308
f 287/296/309 390/295/309 393/452/309 293/453/309
f 389/450/310 388/449/310 391/454/310 392/455/310
f 387/456/311 394/457/311 395/458/311 386/459/311
f 293/453/312 393/452/312 399/460/312 298/461/312
f 392/455/313 391/454/313 397/462/313 398/463/313
f 298/461/314 399/460/314 402/464/314 299/465/314
f 398/463/315 397/462/315 400/466/315 401/467/315
f 299/465/316 402/464/316 405/468/316 300/469/316
f 401/470/317 400/471/317 403/472/317 404/473/317
f 573/474/318 585/475/318 410/476/318 319/477/318
f 660/478/319 662/479/319 407/480/319 408/481/319
f 585/475/320 588/366/320 409/367/320 410/476/320
f 659/482/321 664/483/321 489/484/321 446/485/321
f 444/486/322 443/487/322 415/488/322 414/489/322
f 323/380/323 331/490/323 419/491/323 416/381/323
f 415/488/324 418/492/324 417/493/324 414/489/324
f 413/494/325 412/495/325 421/496/325 420/497/325
f 331/498/326 337/499/326 425/500/326 419/501/326
f 418/502/327 424/503/327 423/504/327 417/505/327
f 337/499/328 339/506/328 428/507/328 425/500/328
f 424/503/329 427/508/329 426/509/329 423/504/329
f 339/506/330 343/510/330 431/511/330 428/507/330
f 427/508/331 430/512/331 429/513/331 426/509/331
f 343/510/332 344/514/332 434/515/332 431/511/332
f 430/512/333 433/516/333 432/517/333 429/513/333
f 344/514/334 345/518/334 437/519/334 434/515/334
f 433/516/335 436/520/335 435/521/335 432/517/335
f 780/430/336 781/522/336 782/523/336 779/431/336
f 363/427/337 768/426/337 778/524/337 438/525/337
f 394/457/338 439/448/338 440/451/338 395/458/338
f 420/497/339 421/496/339 443/487/339 444/486/339
f 485/526/340 449/527/340 450/528/340 486/529/340
f 450/528/341 449/527/341 451/530/341 452/531/341
f 448/532/342 453/533/342 454/534/342 447/535/342
f 459/536/343 457/537/343 456/538/343 458/539/343
f 461/540/344 459/536/344 458/539/344 460/541/344
f 451/530/345 461/540/345 460/541/345 452/531/345
f 462/345/346 665/344/346 663/338/346 463/542/346
f 589/543/347 593/544/347 594/545/347 590/546/347
f 488/547/348 487/548/348 469/549/348 468/550/348
f 469/549/349 471/551/349 470/552/349 468/550/349
f 467/553/350 466/554/350 473/555/350 472/556/350
f 475/557/351 474/558/351 477/559/351 476/560/351
f 479/561/352 478/562/352 474/558/352 475/557/352
f 481/563/353 480/564/353 478/562/353 479/561/353
f 483/565/354 482/566/354 480/564/354 481/563/354
f 470/567/355 471/568/355 482/566/355 483/565/355
f 783/569/356 771/409/356 356/408/356 484/570/356
f 453/533/357 485/526/357 486/529/357 454/534/357
f 472/556/358 473/555/358 487/548/358 488/547/358
f 365/571/359 289/572/359 493/573/359 527/574/359
f 528/575/360 494/576/360 495/577/360 529/578/360
f 289/579/361 294/580/361 498/581/361 493/582/361
f 494/576/362 497/583/362 496/584/362 495/577/362
f 288/585/363 296/586/363 499/587/363 492/588/363
f 491/589/364 500/590/364 501/591/364 490/592/364
f 308/593/365 309/594/365 505/595/365 504/596/365
f 307/597/366 308/593/366 504/596/366 508/598/366
f 507/599/367 503/432/367 502/435/367 506/600/367
f 306/601/368 307/597/368 508/598/368 511/602/368
f 510/603/369 507/599/369 506/600/369 509/604/369
f 305/605/370 306/606/370 511/607/370 514/608/370
f 513/609/371 510/610/371 509/611/371 512/612/371
f 294/580/372 305/613/372 514/614/372 498/581/372
f 497/583/373 513/609/373 512/612/373 496/584/373
f 303/615/374 304/616/374 518/617/374 517/618/374
f 516/619/375 519/620/375 520/621/375 515/622/375
f 302/623/376 303/615/376 517/618/376 523/624/376
f 522/625/377 516/619/377 515/622/377 521/626/377
f 301/627/378 302/623/378 523/624/378 526/628/378
f 525/629/379 522/625/379 521/626/379 524/630/379
f 533/631/380 525/629/380 524/630/380 534/632/380
f 538/633/381 530/634/381 531/635/381 539/636/381
f 584/637/382 589/543/382 590/546/382 583/638/382
f 296/586/383 365/571/383 527/574/383 499/587/383
f 500/590/384 528/575/384 529/578/384 501/591/384
f 530/634/385 533/631/385 534/632/385 531/635/385
f 301/627/386 526/628/386 532/639/386 406/640/386
f 309/594/387 455/641/387 535/642/387 505/595/387
f 536/433/388 538/633/388 539/636/388 537/434/388
f 406/640/389 532/639/389 535/642/389 455/641/389
f 580/643/390 543/644/390 544/645/390 581/646/390
f 291/647/391 545/648/391 548/370/391 292/371/391
f 544/649/392 543/650/392 546/651/392 547/652/392
f 542/653/393 549/654/393 550/655/393 541/656/393
f 554/657/394 574/658/394 575/659/394 553/660/394
f 557/661/395 554/657/395 553/660/395 556/662/395
f 560/663/396 557/664/396 556/665/396 559/666/396
f 563/667/397 560/663/397 559/666/397 562/668/397
f 566/669/398 577/670/398 578/671/398 565/672/398
f 569/673/399 566/669/399 565/672/399 568/674/399
f 572/675/400 569/673/400 568/674/400 571/676/400
f 586/677/401 572/675/401 571/676/401 587/678/401
f 594/545/402 593/544/402 575/659/402 574/658/402
f 546/651/403 563/667/403 562/668/403 547/652/403
f 549/679/404 580/643/404 581/646/404 550/680/404
f 583/638/405 586/677/405 587/678/405 584/637/405
f 319/477/406 464/681/406 591/682/406 573/474/406
f 464/681/407 465/369/407 592/368/407 591/682/407
f 614/683/408 613/684/408 615/685/408 616/686/408
f 623/687/409 613/688/409 614/689/409 624/690/409
f 596/691/410 617/692/410 618/693/410 595/694/410
f 598/695/411 619/696/411 620/697/411 597/698/411
f 600/699/412 598/695/412 597/698/412 599/700/412
f 602/701/413 600/702/413 599/703/413 601/704/413
f 604/705/414 602/701/414 601/704/414 603/706/414
f 606/707/415 621/708/415 622/709/415 605/710/415
f 608/711/416 606/707/416 605/710/416 607/712/416
f 610/713/417 608/711/417 607/712/417 609/714/417
f 627/715/418 610/713/418 609/714/418 628/716/418
f 630/717/419 629/718/419 620/697/419 619/696/419
f 615/685/420 604/705/420 603/706/420 616/686/420
f 617/719/421 623/687/421 624/690/421 618/720/421
f 612/721/422 625/722/422 626/723/422 611/724/422
f 625/722/423 627/715/423 628/716/423 626/723/423
f 611/724/424 629/718/424 630/717/424 612/721/424
f 660/478/425 408/481/425 463/725/425 663/726/425
f 384/727/426 372/728/426 631/729/426 641/730/426
f 371/731/427 374/732/427 635/733/427 644/734/427
f 377/735/428 375/736/428 637/737/428 646/738/428
f 378/739/429 377/740/429 646/741/429 648/742/429
f 379/743/430 378/744/430 648/745/430 650/746/430
f 380/747/431 379/743/431 650/746/431 652/748/431
f 381/749/432 376/750/432 639/751/432 654/752/432
f 382/753/433 381/749/433 654/752/433 656/754/433
f 383/755/434 382/753/434 656/754/434 658/756/434
f 445/757/435 383/758/435 658/394/435 661/759/435
f 373/446/436 380/747/436 652/748/436 633/447/436
f 374/732/437 384/727/437 641/730/437 635/733/437
f 327/760/438 632/761/438 634/372/438 329/373/438
f 445/762/439 661/763/439 659/482/439 446/485/439
f 664/764/440 637/737/440 375/736/440 489/765/440
f 693/766/441 692/767/441 667/768/441 666/769/441
f 677/770/442 676/771/442 671/772/442 670/773/442
f 679/774/443 678/775/443 673/776/443 672/777/443
f 681/778/444 680/779/444 678/775/444 679/774/444
f 683/780/445 682/781/445 680/782/445 681/783/445
f 685/784/446 684/785/446 682/781/446 683/780/446
f 687/786/447 686/787/447 675/788/447 674/789/447
f 689/790/448 688/791/448 686/787/448 687/786/448
f 691/792/449 690/793/449 688/794/449 689/795/449
f 700/796/450 672/777/450 673/776/450 701/797/450
f 668/798/451 669/799/451 684/785/451 685/784/451
f 670/800/452 671/801/452 692/767/452 693/766/452
f 667/802/453 669/799/453 668/798/453 666/803/453
f 695/804/454 698/805/454 699/806/454 694/807/454
f 697/808/455 696/809/455 690/793/455 691/792/455
f 695/804/456 694/807/456 696/809/456 697/808/456
f 698/810/457 700/796/457 701/797/457 699/811/457
f 723/812/458 725/813/458 724/814/458 722/815/458
f 721/816/459 720/817/459 723/812/459 722/815/459
f 703/818/460 702/819/460 727/820/460 726/821/460
f 705/822/461 704/823/461 729/824/461 728/825/461
f 707/826/462 706/827/462 704/828/462 705/829/462
f 709/830/463 708/831/463 706/827/463 707/826/463
f 711/832/464 710/833/464 708/831/464 709/830/464
f 713/834/465 712/835/465 731/836/465 730/837/465
f 715/838/466 714/839/466 712/840/466 713/841/466
f 717/842/467 716/843/467 714/839/467 715/838/467
f 733/844/468 732/845/468 716/843/468 717/842/468
f 736/846/469 728/847/469 729/848/469 737/849/469
f 724/850/470 725/851/470 710/833/470 711/832/470
f 726/821/471 727/820/471 720/817/471 721/816/471
f 718/852/472 732/853/472 733/854/472 719/855/472
f 719/855/473 734/856/473 735/857/473 718/852/473
f 734/856/474 736/846/474 737/849/474 735/857/474
f 777/858/475 776/859/475 742/860/475 741/861/475
f 325/862/476 328/863/476 746/864/476 743/865/476
f 742/860/477 745/866/477 744/867/477 741/861/477
f 740/868/478 739/869/478 748/870/478 747/871/478
f 752/872/479 751/873/479 770/874/479 769/875/479
f 755/876/480 754/877/480 751/873/480 752/872/480
f 758/878/481 757/879/481 754/880/481 755/881/481
f 761/882/482 760/883/482 757/879/482 758/878/482
f 764/884/483 763/885/483 773/886/483 772/887/483
f 767/429/484 766/428/484 763/885/484 764/884/484
f 778/524/485 783/569/485 484/570/485 438/525/485
f 784/888/486 769/875/486 770/874/486 785/889/486
f 744/890/487 745/891/487 760/883/487 761/882/487
f 747/871/488 748/870/488 776/859/488 777/858/488
f 781/522/489 784/888/489 785/889/489 782/523/489
f 811/892/490 810/893/490 789/894/490 788/895/490
f 788/895/491 789/894/491 790/896/491 791/897/491
f 787/898/492 786/899/492 793/900/492 792/901/492
f 797/902/493 796/903/493 794/904/493 795/905/493
f 799/906/494 798/907/494 796/903/494 797/902/494
f 801/908/495 800/909/495 798/907/495 799/906/495
f 791/910/496 790/911/496 800/909/496 801/908/496
f 803/912/497 802/913/497 805/914/497 804/915/497
f 807/916/498 806/917/498 802/913/498 803/912/498
f 809/918/499 808/919/499 806/917/499 807/916/499
f 794/904/500 814/920/500 815/921/500 795/905/500
f 792/901/501 793/900/501 810/893/501 811/892/501
f 812/922/502 808/919/502 809/918/502 813/923/502
f 814/924/503 812/925/503 813/926/503 815/927/503
f 835/928/504 834/929/504 818/930/504 819/931/504
f 819/931/505 818/930/505 820/932/505 821/933/505
f 816/934/506 817/935/506 822/936/506 823/937/506
f 821/933/507 820/932/507 824/938/507 825/939/507
f 824/938/508 833/940/508 832/941/508 825/939/508
f 827/942/509 828/943/509 829/944/509 826/945/509
f 831/946/510 827/947/510 826/948/510 830/949/510
f 833/940/511 831/946/511 830/949/511 832/941/511
f 823/937/512 822/936/512 834/929/512 835/928/512
f 863/950/513 841/951/513 840/952/513 864/953/513
f 841/954/514 844/955/514 843/956/514 840/957/514
f 836/958/515 847/959/515 846/960/515 837/961/515
f 844/955/516 850/962/516 849/963/516 843/956/516
f 336/964/517 848/965/517 862/966/517 338/967/517
f 849/963/518 850/962/518 860/968/518 861/969/518
f 341/970/519 853/971/519 854/972/519 342/973/519
f 852/974/520 851/975/520 856/976/520 855/977/520
f 340/978/521 859/979/521 853/971/521 341/970/521
f 858/980/522 857/981/522 851/975/522 852/974/522
f 338/967/523 862/966/523 859/979/523 340/978/523
f 861/969/524 860/968/524 857/981/524 858/980/524
f 847/959/525 863/950/525 864/953/525 846/960/525
