# Blender 5.0.1
# www.blender.org
mtllib hair.mtl
o short4
v 0.519498 15.366500 1.124913
v 0.535914 15.285500 1.132971
v 0.714780 15.408199 0.862569
v 0.704634 15.231800 0.856347
v 0.494532 15.448099 1.103697
v 0.652080 15.622999 0.831051
v 0.440838 15.522800 1.112775
v 0.536142 15.795200 0.826767
v 0.367764 15.559700 1.143069
v 0.386232 15.897999 0.812283
v 0.250002 15.578800 1.189581
v 0.217740 15.931799 0.840537
v 0.439356 15.943600 0.496287
v 0.247836 16.007900 0.506997
v 0.784092 15.365900 0.571053
v 0.753996 15.167900 0.639903
v 0.744876 15.581400 0.521481
v 0.625290 15.796600 0.498123
v 0.592686 15.377700 1.033725
v 0.605340 15.278600 1.049433
v 0.544464 15.489700 1.040253
v 0.484614 15.598299 1.043211
v 0.390564 15.660999 1.052901
v 0.246582 15.682100 1.113285
v 0.598044 15.134900 1.117977
v 0.712956 15.043799 0.859611
v 0.763344 14.993099 0.677949
v 0.663594 15.109799 1.014957
v 0.665076 14.639800 1.046067
v 0.707598 14.595099 0.889599
v 0.721620 14.580100 0.780969
v 0.684000 14.615299 0.994965
v 0.690384 14.759700 0.997617
v 0.679326 14.926100 0.999759
v 0.640566 14.949300 1.062693
v 0.651966 14.786799 1.058205
v 0.742140 14.701799 0.756897
v 0.760038 14.842799 0.724665
v 0.730056 14.880799 0.865731
v 0.725610 14.723300 0.880113
v 0.825246 15.249499 0.355527
v 0.840864 15.073899 0.450081
v 0.794352 15.481300 0.255465
v 0.809970 14.941600 0.540861
v 0.731880 14.577900 0.678765
v 0.755820 14.697499 0.640413
v 0.786030 14.818199 0.598389
v 0.815670 14.951400 0.316257
v 0.843486 14.881200 0.450387
v 0.800166 14.805200 0.530151
v 0.775656 14.699900 0.545247
v 0.747954 14.568600 0.559323
v 0.794922 15.334200 0.050649
v 0.762660 14.746099 0.324213
v 0.763914 14.693500 0.414381
v 0.778050 14.506200 0.303201
v 0.829122 14.544100 0.421419
v 0.726408 14.431800 0.366033
v 0.752514 14.473800 0.456405
v 0.653448 14.557899 1.030461
v 0.687534 14.525700 0.889395
v 0.705432 14.513900 0.793209
v 0.668040 14.540099 0.982725
v 0.716946 14.511200 0.705897
v 0.732450 14.512000 0.574317
v 0.833796 15.042999 0.177129
v 0.813048 14.742800 0.163563
v 0.765396 14.550300 0.271173
v 0.677958 14.433000 0.209361
v 0.750462 15.180099 -0.123363
v 0.784776 14.933300 -0.024831
v 0.671916 15.016000 -0.280137
v 0.670434 14.811600 -0.204657
v 0.537738 14.878400 -0.387033
v 0.537054 14.707800 -0.320019
v 0.753312 14.717799 0.031473
v 0.621642 14.627700 -0.133257
v 0.506274 14.548800 -0.218937
v 0.659148 14.523200 0.049629
v 0.545832 14.435200 -0.059001
v 0.431148 14.307500 -0.153963
v 0.603174 14.355900 0.079821
v 0.516078 14.248699 -0.022485
v 0.433428 14.154200 -0.118263
v 0.700188 15.699600 0.184167
v 0.717630 15.567200 -0.075015
v 0.657894 15.406000 -0.261471
v 0.589494 15.218900 -0.389991
v 0.533634 15.044000 -0.432423
v 0.522348 15.878000 0.153261
v 0.536940 15.763000 -0.156105
v 0.507642 15.593100 -0.354903
v 0.455544 15.375700 -0.475875
v 0.414390 15.086900 -0.517287
v 0.379734 14.846399 -0.497397
v 0.366738 14.683100 -0.441603
v 0.339264 14.508400 -0.345723
v 0.301872 14.196799 -0.263205
v 0.297768 14.058300 -0.273813
v 0.273828 15.461599 -0.535647
v 0.237918 15.158099 -0.581343
v 0.298452 15.708200 -0.397233
v 0.316578 15.863300 -0.203127
v 0.292866 15.978100 0.123273
v 0.175674 14.104899 -0.339093
v 0.156522 13.998500 -0.341133
v 0.196080 14.469399 -0.410901
v 0.202806 14.683900 -0.554415
v 0.205770 14.861500 -0.577977
v -0.519498 15.366500 1.124913
v -0.535914 15.285500 1.132971
v -0.714780 15.408199 0.862569
v -0.704634 15.231800 0.856347
v -0.494532 15.448099 1.103697
v -0.652080 15.622999 0.831051
v -0.440838 15.522800 1.112775
v -0.536142 15.795200 0.826767
v -0.367764 15.559700 1.143069
v -0.386232 15.897999 0.812283
v -0.250002 15.578800 1.189581
v -0.217740 15.931799 0.840537
v 0.000000 15.605799 1.201515
v -0.004902 15.960400 0.786477
v -0.439356 15.943600 0.496287
v -0.247836 16.007900 0.506997
v -0.003534 16.019699 0.479967
v -0.784092 15.365900 0.571053
v -0.753312 15.168200 0.639801
v -0.744876 15.581400 0.521481
v -0.625290 15.796600 0.498123
v -0.592686 15.377600 1.033725
v -0.605340 15.278600 1.049433
v -0.544464 15.489700 1.040253
v -0.484614 15.598299 1.043211
v -0.390564 15.660999 1.052901
v -0.246582 15.682100 1.113285
v 0.000000 15.716700 1.140213
v -0.598044 15.134900 1.117977
v -0.712956 15.043799 0.859611
v -0.760266 14.994400 0.677439
v -0.663594 15.109799 1.014957
v -0.665076 14.639800 1.046067
v -0.707598 14.595099 0.889599
v -0.721620 14.580100 0.780969
v -0.684000 14.615299 0.994965
v -0.690384 14.759700 0.997617
v -0.679326 14.926100 0.999759
v -0.640566 14.949300 1.062693
v -0.651966 14.786799 1.058205
v -0.742140 14.701699 0.756897
v -0.758328 14.843699 0.724257
v -0.730056 14.880899 0.865731
v -0.725610 14.723300 0.880113
v -0.825246 15.249499 0.355527
v -0.838356 15.075000 0.449571
v -0.794352 15.481300 0.255465
v -0.804384 14.943899 0.539739
v -0.731766 14.577900 0.678765
v -0.755478 14.697700 0.640311
v -0.782838 14.819599 0.597777
v -0.814644 14.951200 0.316563
v -0.839838 14.883800 0.449775
v -0.797088 14.806499 0.529437
v -0.774972 14.700299 0.545145
v -0.747954 14.568600 0.559323
v -0.794922 15.334200 0.050649
v -0.762660 14.746099 0.324213
v -0.763914 14.693500 0.414381
v -0.778050 14.506200 0.303201
v -0.829122 14.544100 0.421419
v -0.726408 14.431800 0.366033
v -0.752514 14.473800 0.456405
v -0.653448 14.557899 1.030461
v -0.687534 14.525700 0.889395
v -0.705432 14.513900 0.793209
v -0.668040 14.540099 0.982725
v -0.716946 14.511200 0.705897
v -0.732450 14.512000 0.574317
v -0.833796 15.042999 0.177129
v -0.813048 14.742800 0.163563
v -0.765396 14.550300 0.271173
v -0.677958 14.433000 0.209361
v -0.750462 15.180099 -0.123363
v -0.784776 14.933300 -0.024831
v -0.671916 15.016000 -0.280137
v -0.670434 14.811600 -0.204657
v -0.537738 14.878400 -0.387033
v -0.537054 14.707800 -0.320019
v -0.753312 14.717799 0.031473
v -0.621642 14.627700 -0.133257
v -0.506274 14.548800 -0.218937
v -0.659148 14.523200 0.049629
v -0.545832 14.435200 -0.059001
v -0.431148 14.307500 -0.153963
v -0.603174 14.355900 0.079821
v -0.516078 14.248699 -0.022485
v -0.433428 14.154200 -0.118263
v -0.700188 15.699600 0.184167
v -0.717630 15.567200 -0.075015
v -0.657894 15.406000 -0.261471
v -0.589494 15.218900 -0.389991
v -0.533634 15.044000 -0.432423
v -0.522348 15.878000 0.153261
v -0.536940 15.763000 -0.156105
v -0.507642 15.593100 -0.354903
v -0.455544 15.375700 -0.475875
v -0.414390 15.086900 -0.517287
v -0.379734 14.846399 -0.497397
v -0.366738 14.683100 -0.441603
v -0.339264 14.508400 -0.345723
v -0.301872 14.196699 -0.263205
v -0.297768 14.058300 -0.273813
v -0.006042 16.008200 0.086655
v -0.005586 15.903999 -0.232095
v -0.007638 15.745501 -0.421305
v -0.011742 15.503700 -0.572265
v 0.002052 15.177899 -0.628875
v 0.005928 14.872000 -0.623571
v -0.001710 14.677799 -0.587259
v 0.010716 14.447499 -0.450171
v 0.046512 14.121400 -0.358167
v 0.035226 13.986400 -0.363879
v -0.273828 15.461599 -0.535647
v -0.237918 15.158099 -0.581343
v -0.298452 15.708200 -0.397233
v -0.316578 15.863300 -0.203127
v -0.292866 15.978100 0.123273
v -0.175674 14.104899 -0.339093
v -0.156522 13.998500 -0.341133
v -0.196080 14.469399 -0.410901
v -0.202806 14.683900 -0.554415
v -0.205770 14.861500 -0.577977
v 0.660744 15.257999 0.970791
v 0.650484 15.407299 0.956001
v 0.595764 15.561501 0.959367
v 0.515622 15.715000 0.941721
v 0.383610 15.803400 0.923769
v 0.223212 15.827999 0.979563
v 0.000000 15.879400 0.932949
v 0.689814 15.077700 0.934071
v 0.697338 14.605499 0.942843
v 0.708282 14.904200 0.929073
v 0.712272 14.741199 0.940293
v 0.678528 14.533400 0.936417
v -0.660744 15.257999 0.970791
v -0.650484 15.407299 0.956001
v -0.595764 15.561501 0.959367
v -0.515622 15.715000 0.941721
v -0.383610 15.803400 0.923769
v -0.223212 15.827999 0.979563
v -0.689814 15.077700 0.934071
v -0.697338 14.605499 0.942843
v -0.708282 14.904200 0.929073
v -0.712272 14.741199 0.940293
v -0.678528 14.533400 0.936417
v 0.140562 15.592899 1.194375
v 0.099066 15.948299 0.811263
v 0.114798 16.015299 0.498735
v 0.137256 15.701000 1.129911
v 0.120840 15.171599 -0.600519
v 0.100434 13.991400 -0.347763
v 0.137598 15.489899 -0.557781
v 0.152760 15.727699 -0.403761
v 0.167124 15.881001 -0.211899
v 0.153216 15.992599 0.104403
v 0.115368 14.107800 -0.352557
v 0.115596 14.459200 -0.433035
v 0.105222 14.682799 -0.572571
v 0.105678 14.869900 -0.604599
v 0.110010 15.855499 0.956001
v -0.140562 15.592899 1.194375
v -0.099066 15.948299 0.811263
v -0.114798 16.015299 0.498735
v -0.137256 15.701000 1.129911
v -0.120840 15.171599 -0.600519
v -0.100434 13.991400 -0.347763
v -0.137598 15.489899 -0.557781
v -0.152760 15.727699 -0.403761
v -0.167124 15.881001 -0.211899
v -0.153216 15.992599 0.104403
v -0.115368 14.107800 -0.352557
v -0.115596 14.459200 -0.433035
v -0.105222 14.682799 -0.572571
v -0.105678 14.869900 -0.604599
v -0.110010 15.855499 0.956001
v 0.509238 15.454300 1.090335
v 0.663708 15.634399 0.797187
v 0.447564 15.540699 1.097067
v 0.555864 15.820900 0.776685
v 0.254562 15.602299 1.169997
v 0.227544 15.945200 0.771789
v 0.264252 16.012100 0.482415
v 0.746244 15.591600 0.523113
v 0.631446 15.818501 0.487719
v 0.557004 15.515900 1.038825
v 0.488718 15.632401 1.034031
v 0.249204 15.684700 1.106553
v 0.794124 15.490299 0.268929
v 0.805524 15.350900 0.061869
v 0.798798 15.237800 -0.072873
v 0.425904 14.701099 -0.452313
v 0.355908 14.556800 -0.427833
v 0.210786 14.299399 -0.357453
v 0.158916 14.091900 -0.397743
v 0.697794 15.724600 0.186003
v 0.709080 15.589800 -0.077973
v 0.678300 15.433599 -0.276363
v 0.624378 15.266600 -0.365613
v 0.600438 15.118600 -0.416817
v 0.290928 15.477900 -0.533199
v 0.262656 15.229300 -0.556251
v 0.323076 15.718399 -0.410289
v 0.329118 15.888199 -0.194049
v 0.304266 15.982100 0.126027
v 0.160740 14.194900 -0.369081
v 0.162678 14.057699 -0.381627
v 0.177384 14.509800 -0.480363
v 0.190950 14.676100 -0.584505
v 0.221274 14.895800 -0.611535
v -0.553014 15.288199 1.111245
v -0.723216 15.254100 0.844923
v -0.509238 15.454300 1.090335
v -0.677388 15.635201 0.796983
v -0.254562 15.602299 1.169997
v -0.228000 15.944500 0.773217
v 0.009576 15.633101 1.187541
v 0.002508 15.969700 0.731397
v -0.282264 16.000000 0.475071
v 0.004446 16.018499 0.437025
v -0.749892 15.199300 0.636843
v -0.753198 15.590099 0.519543
v -0.602034 15.280200 1.049025
v -0.545262 15.488800 1.037499
v -0.249204 15.684700 1.106553
v 0.004560 15.722900 1.122261
v -0.837672 15.101399 0.453039
v -0.801648 15.488400 0.267195
v -0.848730 14.973700 0.333801
v -0.806208 15.350100 0.063399
v -0.775428 14.766399 0.315849
v -0.806664 14.577000 0.337983
v -0.764712 14.479799 0.358281
v -0.758556 15.199200 -0.109491
v -0.694830 15.046300 -0.279015
v -0.601692 14.932400 -0.366327
v 0.002850 16.013300 0.090225
v 0.002166 15.913000 -0.225261
v -0.002964 15.763399 -0.440991
v -0.003762 15.522100 -0.582873
v 0.003420 15.246900 -0.657129
v 0.004332 14.681900 -0.590625
v 0.017100 14.515800 -0.499539
v 0.036594 14.193100 -0.392949
v 0.041724 14.055500 -0.376935
v -0.329232 15.449100 -0.522183
v -0.200070 15.210899 -0.604395
v -0.392046 15.701700 -0.405495
v -0.376086 15.856800 -0.196395
v -0.374490 15.951099 0.108891
v -0.145920 14.214000 -0.370611
v -0.141702 14.072900 -0.361533
v -0.162222 14.526199 -0.495561
v -0.133152 14.690499 -0.581139
v 0.598044 15.581999 0.953349
v 0.518700 15.744299 0.924585
v 0.229482 15.845299 0.945291
v 0.005586 15.888199 0.911427
v -0.658236 15.262500 0.962937
v -0.608304 15.581999 0.945393
v -0.233358 15.849400 0.953553
v 0.134748 15.623600 1.182543
v 0.094848 15.965300 0.760161
v 0.108528 16.005899 0.462627
v 0.130986 15.705700 1.119201
v 0.120498 15.242499 -0.632241
v 0.102030 14.059099 -0.380199
v 0.134292 15.509899 -0.566859
v 0.145806 15.739300 -0.411411
v 0.155952 15.905899 -0.205779
v 0.146262 16.008600 0.104607
v 0.110124 14.199800 -0.383871
v 0.116736 14.516999 -0.487707
v 0.101574 14.683700 -0.587361
v 0.105906 15.886299 0.937845
v 0.512772 15.444700 1.090539
v 0.527250 15.401800 1.095945
v 0.530670 15.392400 1.095537
v 0.712158 15.476200 0.823299
v 0.712842 15.506100 0.823299
v 0.671574 15.605400 0.802287
v 0.779760 15.433300 0.567891
v 0.782496 15.461899 0.561159
v 0.760152 15.558701 0.529437
v 0.592800 15.432199 1.041783
v 0.582654 15.447800 1.036173
v 0.555180 15.496000 1.030053
v 0.817722 15.324599 0.343287
v 0.813048 15.355599 0.330333
v 0.795720 15.461500 0.284025
v 0.834708 15.158600 0.160095
v 0.823878 15.195200 0.144897
v 0.812364 15.321899 0.081555
v 0.808146 15.057699 0.001587
v 0.809286 15.086300 -0.010143
v 0.793098 15.211699 -0.055023
v 0.483930 14.836200 -0.442113
v 0.004332 14.739799 -0.611331
v 0.005472 14.782499 -0.614493
v 0.189924 14.739300 -0.587259
v 0.205884 14.813900 -0.603681
v -0.512772 15.444700 1.090539
v -0.527250 15.401800 1.095945
v -0.530670 15.392400 1.095537
v -0.706116 15.473700 0.819015
v -0.699048 15.501699 0.814629
v -0.685254 15.606199 0.802083
v -0.780216 15.431601 0.564321
v -0.761406 15.455700 0.549939
v -0.760836 15.556700 0.525867
v -0.580260 15.406700 1.038519
v -0.573990 15.421600 1.038519
v -0.551418 15.473799 1.039131
v -0.818292 15.320600 0.336453
v -0.828552 15.352900 0.322275
v -0.825816 15.461100 0.275763
v -0.829122 15.155299 0.155097
v -0.839382 15.191999 0.138063
v -0.813960 15.319699 0.080127
v -0.796062 15.019400 -0.047475
v -0.791844 15.053800 -0.059511
v -0.771666 15.166699 -0.095925
v -0.697110 14.889500 -0.217305
v -0.688104 14.919600 -0.224139
v -0.684114 15.016999 -0.262389
v -0.603402 14.799200 -0.323385
v -0.597816 14.816999 -0.326853
v -0.588240 14.912000 -0.354903
v -0.115368 14.855900 -0.618879
v 0.647292 15.465500 0.954063
v 0.652650 15.487400 0.962325
v 0.628596 15.559900 0.961305
v -0.616284 15.556499 0.950085
v -0.651738 15.485100 0.956307
v -0.652308 15.463400 0.953961
v 0.097470 14.743199 -0.603273
v 0.102486 14.863100 -0.628365
v 0.476748 15.503099 1.092987
v 0.482562 15.494400 1.092273
v 0.627570 15.724100 0.794841
v 0.604998 15.744801 0.791271
v 0.693006 15.697100 0.512199
v 0.690270 15.733700 0.511179
v 0.521550 15.568800 1.032603
v 0.519840 15.586500 1.033827
v 0.586302 15.062699 -0.424671
v 0.748752 15.376699 -0.158451
v 0.749550 15.353700 -0.143253
v 0.774972 15.492399 -0.013203
v 0.781356 15.461700 0.006993
v 0.744420 15.617599 0.226803
v 0.770412 15.594099 0.233943
v 0.006270 15.149899 -0.655191
v 0.008778 14.967999 -0.650907
v 0.244872 15.012300 -0.609087
v 0.258096 15.117399 -0.571143
v -0.476748 15.503099 1.092987
v -0.482562 15.494400 1.092273
v -0.619932 15.719700 0.790353
v -0.605568 15.743399 0.788823
v -0.684342 15.694901 0.507813
v -0.691524 15.731800 0.506487
v -0.533976 15.571301 1.042701
v -0.519042 15.581900 1.035561
v -0.658008 15.174600 -0.352149
v -0.646494 15.149500 -0.326649
v -0.592344 15.024699 -0.395499
v -0.588810 15.042999 -0.402027
v -0.707598 15.339499 -0.197313
v -0.740658 15.311700 -0.190071
v -0.774630 15.491100 -0.018915
v -0.786714 15.460800 -0.004839
v -0.759468 15.621799 0.220887
v -0.757074 15.588800 0.228537
v -0.158460 15.064799 -0.624387
v 0.571026 15.663099 0.936111
v 0.570684 15.683701 0.945699
v -0.563046 15.679399 0.941109
v -0.564186 15.654900 0.934275
v 0.111378 15.027100 -0.626529
v 0.392502 15.572199 1.115733
v 0.400824 15.567499 1.113489
v 0.439356 15.546099 1.099617
v 0.528048 15.831400 0.776685
v 0.455316 15.872499 0.767607
v 0.429780 15.881899 0.760365
v 0.493734 15.917700 0.479151
v 0.507414 15.887499 0.481089
v 0.600096 15.832399 0.485781
v 0.471048 15.640299 1.031991
v 0.430122 15.669399 1.033419
v 0.418950 15.680399 1.038315
v 0.516990 15.362599 -0.435585
v 0.527934 15.344000 -0.416715
v 0.608304 15.284900 -0.379383
v 0.577182 15.128799 -0.421203
v 0.548910 15.562901 -0.324201
v 0.575130 15.540100 -0.313797
v 0.656070 15.456499 -0.287685
v 0.602148 15.744400 -0.142029
v 0.624264 15.720699 -0.134073
v 0.693006 15.618900 -0.092559
v 0.561450 15.861200 0.162033
v 0.589836 15.847300 0.163257
v 0.664392 15.750200 0.180699
v 0.199956 14.290099 -0.366429
v 0.209874 14.300799 -0.337359
v 0.189582 14.288099 -0.387033
v 0.149454 14.092500 -0.415083
v 0.192432 14.163600 -0.336645
v 0.187644 14.150800 -0.362451
v 0.282948 14.543099 -0.430179
v 0.294462 14.552299 -0.406107
v 0.319998 14.555099 -0.424569
v 0.355224 14.690499 -0.462207
v 0.378366 14.693199 -0.449355
v 0.395808 14.699400 -0.462819
v 0.495102 15.755499 0.920811
v 0.441408 15.796799 0.917037
v 0.428640 15.812300 0.919689
v 0.460560 14.847699 -0.471489
v 0.427842 14.847300 -0.476793
v 0.467172 14.828700 -0.464451
v 0.411312 14.740900 -0.459351
v 0.378708 14.740800 -0.465573
v 0.568746 15.065800 -0.435789
v 0.497610 15.060200 -0.463227
v 0.496812 15.060599 -0.492093
v 0.488832 14.928699 -0.474855
v 0.462384 14.928300 -0.483525
v 0.267558 15.599800 1.164897
v 0.328890 15.588600 1.140723
v 0.342456 15.586899 1.135113
v 0.361380 15.933300 0.764241
v 0.334818 15.934099 0.767097
v 0.256500 15.948599 0.777603
v 0.404586 15.968399 0.478029
v 0.379164 15.975100 0.478641
v 0.291156 16.001900 0.480987
v 0.351348 15.694300 1.035969
v 0.332538 15.695601 1.044333
v 0.268014 15.681900 1.099209
v 0.312588 15.462900 -0.515655
v 0.401622 15.420300 -0.488013
v 0.430920 15.412399 -0.493725
v 0.357162 15.709299 -0.408249
v 0.447450 15.652800 -0.379179
v 0.472986 15.635300 -0.368265
v 0.358530 15.873499 -0.190071
v 0.460218 15.804800 -0.167529
v 0.496356 15.801600 -0.164877
v 0.331968 15.968700 0.128679
v 0.430806 15.910999 0.145407
v 0.460902 15.897699 0.148671
v 0.179664 14.200900 -0.370305
v 0.106248 14.168500 -0.447111
v 0.120156 14.181399 -0.425487
v 0.202122 14.511000 -0.475773
v 0.189240 14.496400 -0.487299
v 0.204744 14.504200 -0.464655
v 0.216828 14.675500 -0.577671
v 0.254562 14.675300 -0.542787
v 0.264024 14.682899 -0.510249
v 0.236892 14.899199 -0.587259
v 0.392958 15.178100 -0.539727
v 0.373692 15.185100 -0.552681
v 0.299478 15.198299 -0.548907
v 0.091428 14.048200 -0.449457
v 0.082080 14.040000 -0.465267
v 0.174876 14.064699 -0.367755
v 0.349866 15.835199 0.916833
v 0.322848 15.832399 0.910815
v 0.250230 15.841700 0.939069
v 0.316806 14.853399 -0.530241
v 0.305862 14.853399 -0.559107
v 0.232446 14.809999 -0.594603
v 0.291042 14.740999 -0.519531
v 0.267216 14.739200 -0.534423
v 0.220248 14.731600 -0.590013
v 0.324672 14.943100 -0.540951
v 0.347016 14.938700 -0.532689
v 0.256158 15.010400 -0.577467
v 0.279984 15.110800 -0.561045
v 0.366966 15.092700 -0.567777
v 0.381786 15.085700 -0.547275
v 0.194142 15.615200 1.175403
v 0.205770 15.613400 1.173159
v 0.203376 15.498600 -0.554313
v 0.219108 15.490499 -0.544419
v 0.224580 15.729500 -0.404475
v 0.245214 15.730400 -0.409371
v 0.233130 15.896000 -0.185685
v 0.255588 15.893299 -0.206085
v 0.214662 15.996201 0.123375
v 0.234612 15.991899 0.115725
v 0.140106 14.200500 -0.364389
v 0.148314 14.201699 -0.362655
v 0.159258 14.514999 -0.474447
v 0.167466 14.516100 -0.469551
v 0.151164 14.682699 -0.581547
v 0.163590 14.685699 -0.567369
v 0.154698 14.904699 -0.627957
v 0.168378 14.903500 -0.624387
v 0.168606 15.962999 0.766689
v 0.152076 15.964800 0.765567
v 0.188328 16.014099 0.477111
v 0.171456 16.021799 0.474051
v 0.200526 15.693699 1.110735
v 0.186276 15.696400 1.111755
v 0.194370 15.229500 -0.606027
v 0.178182 15.231299 -0.608781
v 0.139536 14.059199 -0.373263
v 0.133950 14.058700 -0.374283
v 0.175104 15.872799 0.953451
v 0.159486 15.876101 0.951411
v 0.166554 14.860300 -0.617043
v 0.153102 14.860499 -0.623877
v 0.159258 14.744900 -0.588177
v 0.146376 14.743899 -0.595113
v 0.173736 15.139899 -0.624285
v 0.188100 15.132600 -0.608373
v 0.078660 15.962200 0.751287
v 0.020976 15.968199 0.734763
v 0.091656 16.014400 0.458139
v 0.024282 16.029200 0.447327
v 0.113088 15.708799 1.119201
v 0.029412 15.718599 1.122669
v 0.095760 15.237000 -0.620817
v 0.025422 15.252100 -0.654273
v 0.095076 14.058499 -0.381525
v 0.053922 14.055799 -0.376221
v 0.085956 15.878901 0.933459
v 0.025992 15.899700 0.924177
v 0.029298 15.631701 1.186521
v 0.119814 15.625099 1.183563
v 0.020862 15.526199 -0.584607
v 0.106134 15.506701 -0.558801
v 0.024510 15.766800 -0.442521
v 0.119814 15.747499 -0.421815
v 0.027930 15.928400 -0.233829
v 0.130074 15.908800 -0.218325
v 0.029754 16.017900 0.089103
v 0.119472 15.997700 0.097977
v 0.053238 14.196099 -0.387849
v 0.099978 14.198299 -0.386013
v 0.034542 14.514700 -0.505047
v 0.103512 14.515100 -0.495051
v 0.023598 14.681100 -0.592155
v 0.086526 14.682799 -0.582975
v 0.086868 14.862100 -0.636831
v 0.021660 14.778000 -0.628161
v 0.079686 14.744499 -0.595623
v 0.021090 14.740499 -0.609699
v 0.025992 14.967099 -0.654579
v 0.091086 15.028299 -0.621633
v 0.025764 15.148800 -0.651213
v -0.074784 15.981899 0.757101
v -0.059508 15.983799 0.753531
v -0.085044 16.028299 0.465789
v -0.066804 16.029699 0.462117
v -0.102942 15.709600 1.119507
v -0.079458 15.712299 1.120425
v -0.042408 15.238700 -0.635403
v -0.024738 15.239200 -0.646011
v -0.081168 14.057600 -0.379587
v -0.066804 14.056100 -0.380709
v -0.087552 15.626900 1.182237
v -0.104652 15.625200 1.181217
v -0.059166 15.507700 -0.575427
v -0.085842 15.512600 -0.572775
v -0.086298 15.744499 -0.421407
v -0.115482 15.750099 -0.427119
v -0.091542 15.910999 -0.219141
v -0.116052 15.900499 -0.211797
v -0.081396 15.996700 0.105525
v -0.110010 16.011700 0.104709
v -0.064524 14.202600 -0.368877
v -0.083334 14.204599 -0.366123
v -0.067146 14.514600 -0.498213
v -0.090858 14.517099 -0.487809
v -0.046398 14.682099 -0.592053
v -0.069882 14.684999 -0.578793
v -0.061560 15.886099 0.918363
v -0.077292 15.893400 0.929379
v -0.031692 14.823199 -0.614187
v -0.049362 14.823299 -0.611739
v -0.039216 14.777699 -0.624693
v -0.053124 14.782399 -0.613269
v -0.037506 14.961800 -0.626427
v -0.019836 14.961300 -0.636321
v -0.035112 15.140800 -0.630915
v -0.014706 15.141800 -0.634995
v -0.176244 15.616299 1.174791
v -0.190950 15.614300 1.172751
v -0.202806 15.501400 -0.555741
v -0.224580 15.497299 -0.554415
v -0.257526 15.742300 -0.419877
v -0.277248 15.735199 -0.414879
v -0.262086 15.886099 -0.212103
v -0.283974 15.877399 -0.206391
v -0.198816 15.995100 0.111135
v -0.220818 15.993000 0.113889
v -0.130758 14.202700 -0.357963
v -0.141474 14.202499 -0.361941
v -0.142386 14.512799 -0.486177
v -0.152418 14.517099 -0.469857
v -0.097698 14.683800 -0.582873
v -0.115140 14.686600 -0.574509
v -0.057228 14.899600 -0.616941
v -0.076038 14.897900 -0.630201
v -0.142614 15.874500 0.941109
v -0.161196 15.875799 0.951411
v -0.150024 15.954300 0.758631
v -0.133266 15.973299 0.770463
v -0.171798 16.014000 0.475377
v -0.144666 16.011999 0.473031
v -0.187644 15.695900 1.111551
v -0.169062 15.699400 1.112979
v -0.113544 15.227300 -0.616635
v -0.095760 15.229300 -0.633771
v -0.132126 14.059000 -0.374487
v -0.121182 14.060499 -0.374385
v -0.081852 14.740900 -0.602457
v -0.094620 14.744400 -0.592359
v -0.076722 15.073600 -0.622755
v -0.057684 15.074500 -0.626835
v -0.086754 15.132099 -0.628671
v -0.066690 15.132799 -0.627447
v -0.267558 15.599800 1.164897
v -0.328890 15.588600 1.140723
v -0.342456 15.586899 1.135113
v -0.349524 15.917400 0.761385
v -0.330600 15.929100 0.771279
v -0.256728 15.948799 0.777807
v -0.401052 15.960899 0.476091
v -0.370842 15.961899 0.479661
v -0.304494 15.986000 0.474663
v -0.354540 15.699900 1.040865
v -0.342228 15.706400 1.062591
v -0.268470 15.702600 1.073199
v -0.351804 15.437300 -0.515247
v -0.402990 15.427200 -0.510759
v -0.420546 15.409399 -0.492093
v -0.410856 15.682400 -0.377955
v -0.445056 15.652399 -0.381015
v -0.469794 15.636499 -0.369285
v -0.415758 15.860800 -0.197619
v -0.468654 15.820099 -0.179259
v -0.497838 15.805000 -0.172935
v -0.398202 15.926100 0.114297
v -0.429666 15.911200 0.140613
v -0.459762 15.898600 0.144183
v -0.166212 14.223100 -0.367551
v -0.105564 14.226000 -0.400089
v -0.121296 14.232100 -0.384687
v -0.171114 14.536900 -0.465981
v -0.153330 14.525399 -0.492603
v -0.166554 14.531400 -0.468531
v -0.155610 14.690599 -0.565329
v -0.340860 15.173699 -0.565431
v -0.322848 15.185599 -0.579813
v -0.219564 15.200200 -0.581343
v -0.108642 14.094700 -0.376017
v -0.098724 14.090500 -0.388971
v -0.153216 14.081100 -0.348885
v -0.259122 15.855700 0.955695
v -0.332766 15.843700 0.929787
v -0.353400 15.840099 0.923055
v -0.142728 14.854799 -0.608883
v -0.211014 14.764299 -0.572367
v -0.235866 14.761000 -0.560637
v -0.264138 14.931000 -0.572061
v -0.242820 14.933000 -0.590115
v -0.176472 15.058200 -0.600009
v -0.309168 15.079000 -0.566451
v -0.294462 15.088599 -0.587769
v -0.397290 15.569700 1.113999
v -0.407664 15.563499 1.111143
v -0.461586 15.867199 0.759141
v -0.440496 15.885599 0.760875
v -0.508098 15.912600 0.488025
v -0.530898 15.886999 0.486291
v -0.429894 15.660400 1.029543
v -0.423966 15.676300 1.037703
v -0.514026 15.353399 -0.456597
v -0.522348 15.330000 -0.431505
v -0.562362 15.552200 -0.330933
v -0.609330 15.514400 -0.249231
v -0.599982 15.725199 -0.135093
v -0.641136 15.699999 -0.127749
v -0.570456 15.853100 0.163665
v -0.585162 15.820299 0.170091
v -0.158118 14.255799 -0.369489
v -0.176814 14.276500 -0.347661
v -0.164502 14.131000 -0.341031
v -0.144324 14.121400 -0.361839
v -0.245442 14.539000 -0.434259
v -0.268470 14.547500 -0.419571
v -0.289674 14.685599 -0.522183
v -0.325926 14.688499 -0.498519
v -0.425676 15.802900 0.909387
v -0.440268 15.783600 0.907551
v -0.328092 14.852300 -0.526977
v -0.357732 14.853900 -0.515043
v -0.390564 15.012000 -0.515655
v -0.412908 15.010099 -0.528915
v 0.543324 15.343800 1.102881
v 0.545034 15.332900 1.104309
v 0.727320 15.345099 0.842067
v 0.729372 15.373600 0.838599
v 0.776568 15.294399 0.608793
v 0.765396 15.326699 0.593901
v 0.608304 15.358000 1.040661
v 0.601350 15.374800 1.038213
v 0.830946 15.188499 0.405405
v 0.824790 15.216900 0.385719
v 0.786258 14.557300 0.256791
v 0.795492 14.559799 0.281475
v 0.736098 14.479600 0.289839
v 0.736668 14.488600 0.262401
v 0.846564 14.787399 0.213339
v 0.836076 14.785100 0.238329
v 0.862410 15.019600 0.256995
v 0.837558 15.006300 0.275355
v 0.674310 15.360499 0.962937
v 0.652536 15.383499 0.951003
v -0.542412 15.348900 1.102575
v -0.543666 15.340199 1.103697
v -0.551646 15.297899 1.109001
v -0.700872 15.278999 0.834825
v -0.729372 15.359099 0.838599
v -0.722190 15.383200 0.833601
v -0.775314 15.223000 0.634803
v -0.773034 15.311299 0.599919
v -0.775656 15.335199 0.591249
v -0.598956 15.295000 1.046067
v -0.593028 15.343499 1.037091
v -0.592230 15.357699 1.036581
v -0.830490 15.124900 0.438963
v -0.846336 15.198700 0.396429
v -0.845766 15.221000 0.383577
v -0.791730 14.545199 0.244959
v -0.795720 14.542600 0.251589
v -0.806436 14.559999 0.316461
v -0.754452 14.478200 0.344409
v -0.738948 14.485000 0.261483
v -0.741684 14.484400 0.246693
v -0.832884 14.782100 0.201507
v -0.834936 14.781500 0.219969
v -0.771096 14.764700 0.291063
v -0.848502 15.027599 0.247611
v -0.847818 15.015100 0.263217
v -0.835278 14.969199 0.324621
v -0.672828 15.390699 0.961101
v -0.652536 15.350400 0.957225
v -0.657552 15.281600 0.962325
vn 0.8876 0.0124 0.4604
vn 0.8021 0.2949 0.5193
vn 0.7251 0.4704 0.5030
vn 0.4088 0.7017 0.5835
vn 0.2852 0.7529 0.5931
vn 0.0303 0.8590 0.5110
vn 0.0597 0.9737 0.2199
vn 0.2782 0.9370 0.2112
vn 0.8300 0.5192 0.2039
vn 0.9400 0.2635 0.2167
vn 0.9687 -0.0640 0.2397
vn 0.5806 0.7927 0.1859
vn 0.7559 0.2041 0.6220
vn 0.6893 0.3102 0.6547
vn 0.6097 0.3304 0.7205
vn 0.4676 0.4891 0.7363
vn 0.3855 0.5601 0.7333
vn 0.1052 0.4964 0.8617
vn 0.8079 0.2198 0.5468
vn 0.9722 0.0727 0.2227
vn 0.8995 0.1406 0.4138
vn 0.8891 -0.0027 0.4577
vn 0.9800 -0.1310 0.1498
vn 0.9439 -0.0720 0.3224
vn 0.8506 0.0340 0.5247
vn 0.8558 0.0480 0.5151
vn 0.9722 0.0799 0.2201
vn 0.9821 -0.0449 0.1830
vn 0.9452 0.0725 0.3183
vn 0.9337 0.0524 0.3543
vn 0.9760 -0.1298 0.1749
vn 0.9820 -0.1520 0.1120
vn 0.9644 0.0048 0.2645
vn 0.9348 0.0797 0.3462
vn 0.9773 0.1866 0.1000
vn 0.9616 0.0779 0.2633
vn 0.9996 0.0136 0.0260
vn 0.9409 -0.0932 0.3256
vn 0.9608 -0.1792 0.2114
vn 0.9719 -0.1650 0.1679
vn 0.9923 0.1019 -0.0704
vn 0.9993 -0.0291 -0.0226
vn 0.9162 -0.2893 -0.2771
vn 0.9526 0.2053 -0.2247
vn 0.7422 -0.6700 -0.0180
vn 0.9412 -0.3365 0.0299
vn 0.9618 0.1459 0.2317
vn 0.9721 -0.1959 0.1289
vn 0.9741 -0.1935 0.1169
vn 0.8888 -0.2267 0.3984
vn 0.9542 -0.2391 0.1800
vn 0.9297 -0.2533 0.2675
vn 0.8048 -0.4184 0.4210
vn 0.7498 -0.5460 -0.3739
vn 0.9821 -0.0363 0.1847
vn 0.9731 -0.1440 0.1800
vn 0.9661 0.0239 -0.2570
vn 0.8976 -0.1002 -0.4293
vn 0.7400 -0.2426 -0.6273
vn 0.7372 -0.4323 -0.5193
vn 0.8537 -0.3062 -0.4213
vn 0.9572 -0.1188 -0.2638
vn 0.7632 -0.4225 -0.4889
vn 0.7910 -0.4470 -0.4177
vn 0.8445 -0.4181 -0.3348
vn 0.7842 -0.1890 -0.5911
vn 0.8136 -0.2919 -0.5028
vn 0.7246 -0.1160 -0.6793
vn 0.8583 0.0553 -0.5101
vn 0.9187 0.1247 -0.3747
vn 0.9443 0.2967 -0.1421
vn 0.8928 0.4487 0.0390
vn 0.5739 0.0279 -0.8184
vn 0.6946 0.2163 -0.6861
vn 0.7480 0.4079 -0.5235
vn 0.7360 0.6349 -0.2348
vn 0.6677 0.7441 -0.0237
vn 0.8586 -0.3965 -0.3250
vn 0.1669 0.1496 -0.9746
vn 0.7297 -0.0631 -0.6809
vn 0.6844 -0.3147 -0.6577
vn 0.5767 -0.4876 -0.6555
vn 0.5844 -0.3011 -0.7536
vn 0.5626 -0.1723 -0.8086
vn 0.1405 0.5273 -0.8380
vn 0.1643 0.7599 -0.6289
vn 0.1451 0.9378 -0.3154
vn 0.1591 -0.0130 -0.9872
vn 0.1235 -0.2387 -0.9632
vn 0.1670 -0.5070 -0.8456
vn 0.1606 -0.1774 -0.9709
vn 0.2114 -0.0059 -0.9774
vn 0.3603 0.0897 -0.9285
vn 0.4154 0.3906 -0.8215
vn 0.4549 0.6585 -0.5996
vn 0.4303 0.8569 -0.2838
vn 0.4717 0.0007 -0.8817
vn 0.5371 -0.2311 -0.8112
vn 0.4820 -0.4894 -0.7267
vn 0.4767 -0.2204 -0.8510
vn 0.3621 -0.0852 -0.9282
vn 0.3654 0.9291 -0.0576
vn 0.0770 0.9962 -0.0398
vn -0.8876 0.0124 0.4604
vn -0.8021 0.2949 0.5193
vn -0.7251 0.4704 0.5030
vn -0.4088 0.7017 0.5835
vn -0.2853 0.7529 0.5931
vn -0.0315 0.8586 0.5118
vn -0.0597 0.9737 0.2199
vn -0.2782 0.9370 0.2112
vn -0.8300 0.5192 0.2039
vn -0.9400 0.2635 0.2167
vn -0.9688 -0.0661 0.2388
vn -0.5806 0.7927 0.1859
vn -0.7560 0.2042 0.6219
vn -0.6894 0.3101 0.6546
vn -0.6097 0.3304 0.7205
vn -0.4676 0.4891 0.7363
vn -0.3855 0.5601 0.7333
vn -0.1052 0.4964 0.8617
vn -0.8079 0.2198 0.5468
vn -0.9742 0.0655 0.2160
vn -0.8995 0.1406 0.4138
vn -0.8891 -0.0027 0.4577
vn -0.9800 -0.1310 0.1498
vn -0.9439 -0.0720 0.3224
vn -0.8506 0.0340 0.5247
vn -0.8558 0.0480 0.5151
vn -0.9752 0.0819 0.2058
vn -0.9837 -0.0402 0.1754
vn -0.9452 0.0725 0.3183
vn -0.9337 0.0524 0.3543
vn -0.9795 -0.1144 0.1657
vn -0.9823 -0.1516 0.1097
vn -0.9686 0.0119 0.2483
vn -0.9375 0.0606 0.3427
vn -0.9773 0.1866 0.1000
vn -0.9622 0.0695 0.2634
vn -0.9989 0.0078 0.0462
vn -0.9410 -0.0747 0.3300
vn -0.9653 -0.1560 0.2092
vn -0.9727 -0.1613 0.1668
vn -0.9923 0.1019 -0.0704
vn -0.9993 -0.0339 -0.0127
vn -0.9239 -0.2806 -0.2601
vn -0.9526 0.2053 -0.2247
vn -0.7422 -0.6700 -0.0180
vn -0.9481 -0.3159 0.0369
vn -0.9610 0.1482 0.2335
vn -0.9723 -0.1949 0.1293
vn -0.9743 -0.1929 0.1163
vn -0.8888 -0.2267 0.3984
vn -0.9542 -0.2391 0.1800
vn -0.9297 -0.2533 0.2675
vn -0.8048 -0.4184 0.4210
vn -0.7498 -0.5460 -0.3739
vn -0.9821 -0.0363 0.1847
vn -0.9727 -0.1422 0.1835
vn -0.9661 0.0239 -0.2570
vn -0.8976 -0.1002 -0.4293
vn -0.7400 -0.2426 -0.6273
vn -0.7372 -0.4323 -0.5193
vn -0.8537 -0.3062 -0.4213
vn -0.9572 -0.1188 -0.2638
vn -0.7632 -0.4225 -0.4889
vn -0.7910 -0.4470 -0.4177
vn -0.8445 -0.4181 -0.3348
vn -0.7842 -0.1890 -0.5911
vn -0.8136 -0.2919 -0.5028
vn -0.7246 -0.1160 -0.6793
vn -0.8583 0.0553 -0.5101
vn -0.9187 0.1247 -0.3747
vn -0.9443 0.2967 -0.1421
vn -0.8928 0.4487 0.0390
vn -0.5739 0.0279 -0.8184
vn -0.6946 0.2163 -0.6861
vn -0.7480 0.4079 -0.5235
vn -0.7360 0.6349 -0.2348
vn -0.6677 0.7441 -0.0237
vn -0.8586 -0.3965 -0.3250
vn -0.1791 0.1417 -0.9736
vn -0.7297 -0.0631 -0.6808
vn -0.6845 -0.3147 -0.6576
vn -0.5767 -0.4876 -0.6555
vn -0.5844 -0.3011 -0.7536
vn -0.5626 -0.1723 -0.8086
vn -0.1601 0.5270 -0.8346
vn -0.1781 0.7587 -0.6266
vn -0.1558 0.9363 -0.3149
vn -0.0729 0.0026 -0.9973
vn -0.0746 -0.2498 -0.9654
vn -0.1542 -0.5147 -0.8434
vn -0.1546 -0.1715 -0.9730
vn -0.1976 -0.0082 -0.9803
vn -0.3603 0.0897 -0.9285
vn -0.4154 0.3906 -0.8215
vn -0.4549 0.6585 -0.5996
vn -0.4303 0.8569 -0.2838
vn -0.4717 0.0007 -0.8817
vn -0.5370 -0.2311 -0.8113
vn -0.4820 -0.4894 -0.7267
vn -0.4767 -0.2204 -0.8510
vn -0.3621 -0.0852 -0.9282
vn -0.3654 0.9291 -0.0576
vn -0.0826 0.9958 -0.0389
vn 0.7974 0.1455 0.5857
vn 0.7145 0.2521 0.6526
vn 0.6341 0.3765 0.6754
vn 0.3733 0.5972 0.7099
vn 0.3542 0.6501 0.6722
vn 0.0905 0.7687 0.6332
vn 0.9469 0.0676 0.3145
vn 0.9672 -0.1103 0.2288
vn 0.9575 0.1021 0.2696
vn 0.9634 0.0200 0.2672
vn 0.9360 -0.2679 0.2282
vn -0.7973 0.1455 0.5857
vn -0.7145 0.2519 0.6527
vn -0.6341 0.3765 0.6754
vn -0.3733 0.5972 0.7099
vn -0.3542 0.6501 0.6722
vn -0.0905 0.7687 0.6332
vn -0.9469 0.0676 0.3145
vn -0.9672 -0.1103 0.2288
vn -0.9575 0.1021 0.2697
vn -0.9634 0.0200 0.2672
vn -0.9360 -0.2679 0.2282
vn 0.0266 0.8224 0.5683
vn 0.0334 0.9791 0.2007
vn 0.1632 0.5504 0.8188
vn 0.1796 0.1236 -0.9760
vn 0.1710 0.4989 -0.8496
vn 0.1294 0.7693 -0.6256
vn 0.1352 0.9370 -0.3222
vn 0.1713 -0.0384 -0.9845
vn 0.2499 -0.2083 -0.9456
vn 0.2191 -0.5282 -0.8204
vn 0.2132 -0.1492 -0.9656
vn 0.2049 -0.0150 -0.9787
vn 0.0856 0.9946 -0.0579
vn 0.1289 0.7200 0.6819
vn -0.0266 0.8224 0.5683
vn -0.0361 0.9790 0.2006
vn -0.1632 0.5504 0.8188
vn -0.1796 0.1236 -0.9760
vn -0.1710 0.4989 -0.8496
vn -0.1294 0.7693 -0.6256
vn -0.1352 0.9370 -0.3222
vn -0.1713 -0.0384 -0.9845
vn -0.2499 -0.2083 -0.9456
vn -0.2191 -0.5282 -0.8204
vn -0.2132 -0.1492 -0.9656
vn -0.2049 -0.0150 -0.9787
vn -0.0856 0.9946 -0.0579
vn -0.1289 0.7200 0.6819
vn 0.6701 0.6114 0.4209
vn 0.0077 0.8508 0.5254
vn -0.3687 0.8584 0.3566
vn 0.8263 -0.1124 0.5519
vn 0.3790 0.5784 0.7224
vn 0.0864 0.5894 0.8032
vn -0.0271 0.2528 -0.9671
vn -0.1261 0.5045 -0.8542
vn -0.3692 0.7530 -0.5447
vn -0.3843 0.8853 -0.2617
vn 0.2069 -0.0926 -0.9740
vn 0.0070 -0.3291 -0.9443
vn -0.1894 -0.4743 -0.8598
vn 0.0018 -0.3100 -0.9507
vn 0.1646 -0.0220 -0.9861
vn 0.4328 0.0638 -0.8992
vn 0.4361 0.3277 -0.8381
vn 0.3339 0.7445 -0.5781
vn 0.4511 0.8650 -0.2198
vn 0.3655 0.0302 -0.9303
vn 0.1268 -0.3321 -0.9347
vn 0.1926 -0.5306 -0.8255
vn 0.0532 -0.1264 -0.9905
vn 0.3344 0.0869 -0.9384
vn 0.3971 0.9170 -0.0365
vn -0.3068 0.9515 -0.0240
vn -0.8006 0.4995 0.3308
vn -0.8099 0.3234 0.4894
vn 0.2239 0.8608 0.4571
vn -0.9706 -0.0013 0.2408
vn -0.7756 0.2626 0.5740
vn -0.6705 0.3143 0.6720
vn -0.5112 0.5591 0.6528
vn -0.8812 -0.1932 0.4315
vn -0.5615 -0.0511 -0.8259
vn -0.7053 0.1776 -0.6863
vn -0.4397 0.6883 -0.5770
vn -0.3197 0.9197 -0.2279
vn -0.4893 -0.1145 -0.8646
vn -0.7906 -0.2294 -0.5677
vn -0.8284 -0.1903 -0.5269
vn -0.6396 -0.4116 -0.6492
vn 0.9666 -0.0388 -0.2532
vn -0.6432 0.7641 0.0502
vn 0.5664 0.3731 0.7348
vn 0.3327 0.6870 0.6460
vn -0.2956 0.7284 0.6181
vn -0.8317 0.1486 0.5350
vn -0.5965 0.3229 0.7348
vn -0.1682 0.6466 0.7440
vn 0.0964 0.9826 0.1587
vn 0.9011 -0.1688 0.3993
vn 0.9056 0.3600 0.2244
vn 0.9651 -0.0265 0.2604
vn 0.4588 0.4127 0.7869
vn 0.9634 0.2618 0.0569
vn 0.9908 0.0705 0.1158
vn 0.9911 0.1316 -0.0218
vn 0.9782 0.1864 -0.0912
vn 0.9970 -0.0285 -0.0721
vn 0.9815 0.0726 -0.1774
vn 0.6180 -0.0740 -0.7827
vn -0.3573 -0.2360 -0.9037
vn 0.0790 -0.1499 -0.9855
vn 0.0991 0.0473 -0.9940
vn -0.9227 0.1563 0.3525
vn -0.9391 0.2718 0.2103
vn -0.8642 0.4816 0.1454
vn -0.6967 0.2666 0.6659
vn -0.8840 0.4672 0.0161
vn -0.9696 0.2104 0.1252
vn -0.8872 0.3701 -0.2754
vn -0.9575 -0.1846 0.2214
vn -0.9246 0.1352 -0.3561
vn -0.9855 -0.1288 -0.1103
vn -0.9410 -0.1184 -0.3170
vn -0.8483 0.0191 -0.5292
vn -0.8210 -0.5254 -0.2234
vn -0.7161 0.0688 -0.6946
vn -0.5213 -0.1646 -0.8374
vn -0.4502 -0.1741 -0.8758
vn 0.7787 0.0552 0.6249
vn -0.7089 0.0876 0.6999
vn 0.8200 0.3945 0.4148
vn 0.8880 0.4090 0.2101
vn 0.7080 0.1512 0.6898
vn 0.9808 0.0028 -0.1947
vn 0.8812 0.4427 -0.1659
vn 0.8993 0.4354 0.0407
vn 0.0082 -0.0025 -1.0000
vn 0.5425 -0.2528 -0.8011
vn -0.8850 0.2409 0.3984
vn -0.9607 0.1255 0.2476
vn -0.1812 0.4806 0.8580
vn -0.9146 -0.3352 -0.2263
vn -0.8710 0.0524 -0.4885
vn -0.7466 0.3797 -0.5462
vn -0.9880 0.1544 0.0091
vn -0.9567 -0.0958 0.2749
vn -0.7527 -0.1348 -0.6444
vn 0.9051 -0.0699 0.4193
vn -0.7401 0.3440 0.5778
vn 0.3061 0.8117 0.4974
vn 0.4669 0.7911 0.3951
vn 0.3769 0.9215 0.0937
vn 0.6723 0.7124 0.2012
vn 0.2646 0.4830 0.8347
vn 0.5756 0.3872 0.7203
vn 0.5099 0.1659 -0.8441
vn 0.6693 0.1837 -0.7200
vn 0.7353 0.2028 -0.6467
vn 0.8125 0.3768 -0.4449
vn 0.6535 0.4346 -0.6197
vn 0.7618 0.6013 -0.2412
vn 0.6077 0.7597 -0.2315
vn 0.5269 0.8399 -0.1303
vn 0.7198 0.6912 0.0649
vn 0.8432 -0.1030 -0.5276
vn 0.9709 -0.1081 -0.2139
vn 0.4571 -0.4033 -0.7927
vn 0.9040 -0.3606 -0.2296
vn 0.1187 -0.2678 -0.9561
vn 0.7030 -0.5102 -0.4954
vn 0.3218 -0.3074 -0.8955
vn 0.2292 -0.1488 -0.9619
vn 0.7283 -0.1439 -0.6700
vn 0.2019 0.6573 0.7261
vn 0.6853 0.4578 0.5663
vn 0.1721 -0.1853 -0.9675
vn 0.5879 -0.2629 -0.7650
vn 0.3819 0.1009 -0.9187
vn 0.8030 -0.1247 -0.5828
vn 0.6936 -0.2375 -0.6801
vn -0.0637 0.8298 0.5545
vn 0.1017 0.9720 0.2118
vn 0.1511 0.9767 0.1524
vn 0.3593 0.6173 0.6999
vn 0.2036 0.1975 -0.9589
vn 0.2681 0.3993 -0.8767
vn 0.3708 0.7211 -0.5853
vn 0.2554 0.9275 -0.2730
vn 0.8691 -0.0976 -0.4849
vn 0.8552 -0.2739 -0.4401
vn 0.8759 -0.3867 -0.2884
vn 0.8127 -0.2682 -0.5172
vn 0.7043 0.0188 -0.7097
vn 0.3415 0.9303 -0.1336
vn 0.0158 0.6732 0.7393
vn 0.7517 -0.3050 -0.5848
vn 0.8930 -0.1452 -0.4259
vn 0.7847 0.0224 -0.6194
vn 0.2460 0.9498 0.1932
vn 0.1005 0.8984 0.4276
vn 0.2029 0.6127 0.7638
vn 0.4060 0.1593 -0.8999
vn 0.2132 0.4900 -0.8452
vn -0.3070 0.7569 -0.5769
vn -0.0430 0.9521 -0.3027
vn 0.1882 0.0608 -0.9802
vn 0.3930 -0.3212 -0.8616
vn 0.6695 -0.3682 -0.6451
vn 0.6471 -0.1636 -0.7447
vn 0.5315 0.0499 -0.8456
vn 0.3069 0.9514 -0.0253
vn 0.1090 0.6677 0.7364
vn 0.3487 -0.1349 -0.9275
vn 0.4555 -0.2404 -0.8571
vn 0.5679 -0.0125 -0.8230
vn -0.4737 -0.1363 -0.8701
vn -0.3871 0.8330 0.3954
vn 0.1099 0.6109 0.7841
vn -0.3694 0.2302 -0.9003
vn 0.0850 0.5229 -0.8481
vn 0.4083 0.7022 -0.5832
vn -0.0383 0.9553 -0.2933
vn 0.2031 -0.0379 -0.9784
vn 0.3959 -0.2980 -0.8686
vn 0.1380 -0.4744 -0.8694
vn -0.3364 -0.2447 -0.9094
vn -0.0488 0.9985 -0.0239
vn -0.1602 0.7023 0.6937
vn -0.2885 0.9413 0.1750
vn 0.0211 -0.2698 -0.9627
vn -0.3408 0.0002 -0.9402
vn 0.3564 0.8158 0.4554
vn -0.1021 0.5890 0.8016
vn -0.2633 0.1943 -0.9450
vn 0.1470 0.5409 -0.8282
vn -0.0907 0.7927 -0.6028
vn 0.0447 0.9547 -0.2943
vn -0.1067 0.0854 -0.9906
vn -0.3104 -0.3589 -0.8803
vn -0.4482 -0.3880 -0.8053
vn -0.3543 -0.1052 -0.9292
vn 0.2732 0.9585 -0.0813
vn 0.2539 0.7005 0.6669
vn -0.0629 0.9854 0.1580
vn -0.3296 -0.0968 -0.9391
vn -0.5679 -0.2066 -0.7967
vn -0.3734 0.1757 -0.9109
vn -0.3445 -0.0010 -0.9388
vn -0.3883 0.9047 0.1755
vn -0.4278 0.8216 0.3767
vn -0.1800 0.5960 0.7826
vn -0.4298 0.0602 -0.9009
vn -0.2502 0.4400 -0.8625
vn -0.4169 0.7438 -0.5224
vn -0.2785 0.9225 -0.2672
vn 0.1756 0.1108 -0.9782
vn -0.5304 -0.3164 -0.7865
vn -0.6823 -0.2434 -0.6894
vn -0.5343 -0.1042 -0.8388
vn -0.3811 -0.0836 -0.9207
vn -0.0073 0.9987 -0.0513
vn 0.1357 0.6659 0.7336
vn 0.0881 -0.1765 -0.9803
vn 0.2361 -0.0060 -0.9717
vn -0.0700 -0.0670 -0.9953
vn -0.4706 0.7901 0.3926
vn -0.1699 0.9692 0.1782
vn -0.2901 0.9416 0.1707
vn -0.7296 0.3558 0.5840
vn -0.6774 -0.0074 -0.7356
vn -0.6866 0.2438 -0.6850
vn -0.5429 0.6056 -0.5818
vn -0.4420 0.8744 -0.2001
vn -0.7558 -0.1009 -0.6470
vn -0.8133 -0.2771 -0.5117
vn -0.5894 -0.1033 -0.8012
vn -0.6705 -0.1764 -0.7207
vn -0.2183 0.9679 -0.1248
vn -0.6423 0.5271 0.5565
vn -0.6921 -0.2022 -0.6929
vn -0.6786 0.6025 0.4201
vn -0.6976 0.6775 0.2331
vn -0.7636 0.2712 0.5860
vn -0.8962 0.0386 -0.4419
vn -0.7771 0.3260 -0.5384
vn -0.7296 0.6621 -0.1709
vn -0.8389 0.5424 0.0459
vn -0.7706 -0.1040 -0.6288
vn -0.7452 -0.3764 -0.5505
vn -0.5236 -0.5584 -0.6434
vn -0.4095 0.0710 -0.9095
vn -0.8340 0.3699 0.4094
vn -0.4777 -0.1565 -0.8645
vn 0.0255 0.0014 -0.9997
vn 0.8079 0.4299 0.4031
vn 0.9730 0.1868 0.1354
vn 0.6258 0.2967 0.7213
vn 0.9424 0.3215 0.0920
vn 0.9361 -0.1171 0.3317
vn 0.7809 -0.5906 -0.2035
vn 0.9770 -0.2116 0.0255
vn 0.7913 -0.1363 0.5960
vn 0.6187 0.6206 0.4818
vn -0.8771 -0.1707 0.4489
vn -0.9755 0.1408 0.1689
vn -0.7906 0.1137 0.6017
vn -0.9548 0.0897 0.2836
vn -0.8236 0.3874 -0.4142
vn -0.9999 0.0044 0.0094
vn -0.8836 -0.4680 -0.0159
vn -0.7332 -0.6718 -0.1056
vn -0.9770 0.1463 -0.1553
vn -0.9465 -0.1999 -0.2534
vn -0.8772 -0.2409 -0.4153
vn -0.9971 -0.0484 -0.0586
vn -0.7451 -0.3032 0.5941
vt 0.297000 0.909900
vt 0.251300 0.923900
vt 0.242500 0.888700
vt 0.291900 0.881500
vt 0.342100 0.872000
vt 0.341900 0.902600
vt 0.383500 0.873200
vt 0.378600 0.897800
vt 0.419000 0.875400
vt 0.412300 0.901400
vt 0.453000 0.886500
vt 0.449700 0.919600
vt 0.472900 0.917000
vt 0.475000 0.883000
vt 0.496500 0.878200
vt 0.495500 0.912500
vt 0.451700 0.816800
vt 0.474000 0.815200
vt 0.415200 0.812600
vt 0.325200 0.811800
vt 0.370800 0.810900
vt 0.274700 0.817900
vt 0.223800 0.833300
vt 0.295400 0.981500
vt 0.266700 0.983900
vt 0.259900 0.951100
vt 0.292900 0.941800
vt 0.333600 0.936200
vt 0.329000 0.969400
vt 0.369400 0.930500
vt 0.363800 0.967900
vt 0.399600 0.936700
vt 0.392700 0.978600
vt 0.440200 0.959600
vt 0.433400 0.998500
vt 0.464300 1.002100
vt 0.468000 0.964200
vt 0.495300 0.965400
vt 0.495200 1.003100
vt 0.216700 0.971900
vt 0.206000 0.939700
vt 0.188100 0.890500
vt 0.177200 0.840800
vt 0.196400 0.914800
vt 0.100100 0.924200
vt 0.105300 0.944000
vt 0.061700 0.936000
vt 0.056900 0.919600
vt 0.092400 0.850100
vt 0.094300 0.888800
vt 0.054200 0.889300
vt 0.054800 0.855500
vt 0.097100 0.906400
vt 0.055500 0.904500
vt 0.157800 0.954100
vt 0.150100 0.931500
vt 0.139800 0.888700
vt 0.133700 0.846600
vt 0.144700 0.910000
vt 0.094300 0.821800
vt 0.131100 0.815400
vt 0.058700 0.826400
vt 0.167300 0.803600
vt 0.205700 0.782400
vt 0.248100 0.765000
vt 0.303300 0.752700
vt 0.160900 0.777400
vt 0.177800 0.743300
vt 0.129600 0.797400
vt 0.099200 0.796800
vt 0.062700 0.797100
vt 0.206500 0.712100
vt 0.273800 0.700900
vt 0.107400 0.759700
vt 0.122300 0.737800
vt 0.065300 0.755400
vt 0.060400 0.715200
vt 0.030500 0.751600
vt 0.032300 0.716400
vt 0.037200 0.830300
vt 0.039500 0.797500
vt 0.033000 0.859400
vt 0.037400 0.932300
vt 0.033400 0.917900
vt 0.031300 0.891100
vt 0.032300 0.904500
vt 0.027800 0.674900
vt 0.069300 0.708300
vt 0.126800 0.700000
vt 0.189000 0.657900
vt 0.246900 0.654400
vt 0.166900 0.606900
vt 0.218200 0.609100
vt 0.146200 0.560000
vt 0.196100 0.564700
vt 0.106400 0.598300
vt 0.089600 0.553100
vt 0.127500 0.652900
vt 0.045700 0.594600
vt 0.038000 0.541900
vt 0.058300 0.636900
vt 0.010400 0.591400
vt 0.010400 0.542400
vt 0.017700 0.635200
vt 0.237700 0.568800
vt 0.269900 0.599200
vt 0.304700 0.642900
vt 0.331200 0.690300
vt 0.353900 0.746300
vt 0.257500 0.540800
vt 0.319700 0.581400
vt 0.358500 0.628100
vt 0.384100 0.678000
vt 0.400200 0.742600
vt 0.380400 0.531100
vt 0.303400 0.482100
vt 0.318900 0.457800
vt 0.405400 0.507300
vt 0.014100 0.474600
vt 0.036800 0.484700
vt 0.095400 0.495700
vt 0.151100 0.506600
vt 0.200800 0.517800
vt 0.434200 0.591600
vt 0.464600 0.573900
vt 0.462100 0.653400
vt 0.497200 0.644000
vt 0.471100 0.734000
vt 0.496800 0.730500
vt 0.040500 0.417700
vt 0.012200 0.408000
vt 0.012600 0.390800
vt 0.045400 0.398700
vt 0.101500 0.426600
vt 0.104200 0.402500
vt 0.169900 0.435400
vt 0.173200 0.409900
vt 0.223600 0.450100
vt 0.232700 0.425400
vt 0.289000 0.505500
vt 0.357900 0.553300
vt 0.407800 0.607700
vt 0.431600 0.663900
vt 0.445700 0.738700
vt 0.011700 0.425200
vt 0.035700 0.436700
vt 0.099000 0.450700
vt 0.166800 0.460200
vt 0.215100 0.474000
vt 0.496200 0.813200
vt 0.694000 0.910900
vt 0.699300 0.882500
vt 0.748600 0.890000
vt 0.739500 0.925100
vt 0.649100 0.903300
vt 0.649100 0.872800
vt 0.612400 0.898300
vt 0.607700 0.873800
vt 0.578700 0.901800
vt 0.572100 0.875700
vt 0.541200 0.919800
vt 0.538000 0.886700
vt 0.518000 0.917100
vt 0.516100 0.883200
vt 0.517400 0.815300
vt 0.539600 0.817000
vt 0.576200 0.812900
vt 0.620600 0.811400
vt 0.666300 0.812600
vt 0.716800 0.819000
vt 0.767600 0.834800
vt 0.695200 0.982500
vt 0.697900 0.942800
vt 0.730800 0.952400
vt 0.723800 0.985100
vt 0.661600 0.970200
vt 0.657200 0.937000
vt 0.626800 0.968600
vt 0.621500 0.931200
vt 0.597900 0.979100
vt 0.591200 0.937200
vt 0.557100 0.998800
vt 0.550500 0.959900
vt 0.526200 1.002200
vt 0.522700 0.964400
vt 0.784800 0.941300
vt 0.773900 0.973400
vt 0.814200 0.842600
vt 0.803000 0.892200
vt 0.794500 0.916400
vt 0.890700 0.926400
vt 0.934000 0.922100
vt 0.929100 0.938400
vt 0.885500 0.946200
vt 0.898900 0.852400
vt 0.936500 0.858000
vt 0.936900 0.891800
vt 0.896800 0.891000
vt 0.893900 0.908600
vt 0.935500 0.906900
vt 0.840700 0.933400
vt 0.832900 0.956000
vt 0.857600 0.848600
vt 0.851300 0.890700
vt 0.846300 0.912000
vt 0.860400 0.817400
vt 0.897200 0.824000
vt 0.932800 0.828900
vt 0.824400 0.805400
vt 0.786000 0.783900
vt 0.688600 0.753500
vt 0.743700 0.766200
vt 0.814200 0.744900
vt 0.830900 0.779200
vt 0.862100 0.799400
vt 0.892500 0.799000
vt 0.929000 0.799600
vt 0.718500 0.701900
vt 0.785800 0.713500
vt 0.869800 0.739900
vt 0.884500 0.761900
vt 0.931800 0.717700
vt 0.926600 0.757900
vt 0.959900 0.719100
vt 0.961500 0.754300
vt 0.952200 0.800100
vt 0.954200 0.832900
vt 0.958300 0.862100
vt 0.957500 0.920500
vt 0.953400 0.934900
vt 0.959800 0.893800
vt 0.958700 0.907200
vt 0.923000 0.710700
vt 0.964700 0.677700
vt 0.865500 0.702000
vt 0.745700 0.655600
vt 0.803600 0.659500
vt 0.774800 0.610400
vt 0.826100 0.608600
vt 0.797200 0.566200
vt 0.847200 0.561800
vt 0.903800 0.555400
vt 0.886700 0.600500
vt 0.865100 0.654900
vt 0.955500 0.544500
vt 0.947500 0.597200
vt 0.934500 0.639500
vt 0.983200 0.545200
vt 0.982800 0.594200
vt 0.975100 0.638000
vt 0.723100 0.600100
vt 0.755600 0.570000
vt 0.687900 0.643600
vt 0.661000 0.690900
vt 0.637900 0.746900
vt 0.673400 0.581800
vt 0.736000 0.541800
vt 0.634100 0.628300
vt 0.608000 0.678300
vt 0.591600 0.742900
vt 0.613100 0.530700
vt 0.591900 0.511000
vt 0.675000 0.457400
vt 0.690700 0.482700
vt 0.957300 0.487300
vt 0.980000 0.477300
vt 0.898500 0.497800
vt 0.842700 0.508400
vt 0.792800 0.519200
vt 0.558400 0.591000
vt 0.531100 0.575000
vt 0.529800 0.653000
vt 0.520600 0.734000
vt 0.954000 0.420200
vt 0.947300 0.386900
vt 0.981100 0.385100
vt 0.982500 0.410700
vt 0.892900 0.428600
vt 0.889700 0.399800
vt 0.824300 0.437100
vt 0.821200 0.412200
vt 0.770500 0.451400
vt 0.760500 0.423900
vt 0.635400 0.553300
vt 0.704800 0.506300
vt 0.584700 0.607400
vt 0.560400 0.663700
vt 0.546000 0.738800
vt 0.958700 0.439200
vt 0.982800 0.427900
vt 0.895200 0.452700
vt 0.827200 0.461900
vt 0.778900 0.475400
vt 0.560000 0.051400
vt 0.548600 0.076600
vt 0.543200 0.075400
vt 0.555500 0.048400
vt 0.492100 0.433800
vt 0.489600 0.400300
vt 0.494500 0.399900
vt 0.494500 0.433900
vt 0.404100 0.339200
vt 0.410500 0.304600
vt 0.413200 0.303400
vt 0.408800 0.339500
vt 0.589900 0.020000
vt 0.574900 0.033900
vt 0.571400 0.031900
vt 0.587500 0.019500
vt 0.589500 0.328000
vt 0.589100 0.348100
vt 0.585600 0.347000
vt 0.587100 0.327200
vt 0.411500 0.402200
vt 0.408000 0.381600
vt 0.410300 0.381000
vt 0.413200 0.401900
vt 0.483100 0.247300
vt 0.481700 0.301800
vt 0.478700 0.302900
vt 0.479800 0.248300
vt 0.553200 0.278800
vt 0.556800 0.238000
vt 0.560900 0.238200
vt 0.557800 0.279100
vt 0.551000 0.329700
vt 0.555500 0.330500
vt 0.550700 0.403500
vt 0.555300 0.403600
vt 0.381500 0.385500
vt 0.380600 0.403700
vt 0.379300 0.403500
vt 0.379300 0.385400
vt 0.381500 0.349300
vt 0.380200 0.349000
vt 0.481000 0.398100
vt 0.480800 0.360700
vt 0.483100 0.360300
vt 0.483100 0.397600
vt 0.328100 0.408300
vt 0.328100 0.422100
vt 0.326000 0.421800
vt 0.325500 0.408100
vt 0.482400 0.324200
vt 0.479400 0.324000
vt 0.727200 0.074500
vt 0.728100 0.130900
vt 0.721200 0.125300
vt 0.722000 0.072300
vt 0.738100 0.020500
vt 0.732500 0.019500
vt 0.611300 0.279100
vt 0.618700 0.224700
vt 0.624500 0.225200
vt 0.616600 0.279300
vt 0.609100 0.350700
vt 0.614300 0.351500
vt 0.736700 0.306700
vt 0.738100 0.322700
vt 0.735200 0.324000
vt 0.733700 0.307300
vt 0.730300 0.270400
vt 0.726200 0.271100
vt 0.723600 0.234800
vt 0.719100 0.235100
vt 0.722500 0.221700
vt 0.718500 0.221100
vt 0.725500 0.149400
vt 0.721200 0.148700
vt 0.611400 0.426500
vt 0.616200 0.427900
vt 0.553300 0.479700
vt 0.557400 0.477500
vt 0.510700 0.413500
vt 0.513300 0.438800
vt 0.507100 0.439100
vt 0.506900 0.412600
vt 0.347400 0.360500
vt 0.343000 0.359600
vt 0.342800 0.331200
vt 0.348100 0.332500
vt 0.658600 0.403400
vt 0.662200 0.403300
vt 0.662200 0.437700
vt 0.658600 0.437100
vt 0.420500 0.431200
vt 0.421900 0.402700
vt 0.426100 0.399300
vt 0.426100 0.432900
vt 0.513300 0.378900
vt 0.512400 0.394100
vt 0.509500 0.393600
vt 0.511500 0.378700
vt 0.358700 0.403800
vt 0.356400 0.403300
vt 0.352700 0.387100
vt 0.356300 0.387900
vt 0.466900 0.386100
vt 0.469700 0.385400
vt 0.470700 0.405300
vt 0.465500 0.412900
vt 0.495600 0.430000
vt 0.494500 0.400500
vt 0.499500 0.399900
vt 0.499500 0.432900
vt 0.403300 0.243800
vt 0.399800 0.245600
vt 0.383900 0.191400
vt 0.389100 0.190000
vt 0.426800 0.300600
vt 0.420100 0.303400
vt 0.420500 0.354900
vt 0.413200 0.355200
vt 0.415900 0.303400
vt 0.420100 0.307200
vt 0.420500 0.422500
vt 0.415800 0.423400
vt 0.349300 0.422700
vt 0.345700 0.420800
vt 0.348300 0.403800
vt 0.349300 0.405200
vt 0.416300 0.057200
vt 0.411000 0.054900
vt 0.425200 0.019500
vt 0.426800 0.020400
vt 0.399800 0.089600
vt 0.395900 0.088900
vt 0.661500 0.069100
vt 0.665900 0.070900
vt 0.651900 0.120800
vt 0.648700 0.120500
vt 0.702800 0.111900
vt 0.709600 0.169200
vt 0.707000 0.169700
vt 0.698200 0.108900
vt 0.450400 0.442000
vt 0.445600 0.444700
vt 0.443800 0.378200
vt 0.450400 0.376600
vt 0.589500 0.383600
vt 0.585800 0.382700
vt 0.470700 0.441000
vt 0.467000 0.442600
vt 0.437900 0.496800
vt 0.434200 0.498200
vt 0.429800 0.446500
vt 0.433400 0.446500
vt 0.256400 0.256100
vt 0.249600 0.282000
vt 0.244200 0.280700
vt 0.252400 0.254600
vt 0.544400 0.125300
vt 0.538200 0.124000
vt 0.247100 0.328000
vt 0.241000 0.327200
vt 0.280700 0.221500
vt 0.268000 0.236800
vt 0.263900 0.236400
vt 0.278400 0.221000
vt 0.553100 0.174300
vt 0.546300 0.174600
vt 0.258200 0.372700
vt 0.251400 0.372800
vt 0.574100 0.214400
vt 0.567000 0.214800
vt 0.280700 0.410400
vt 0.273300 0.410600
vt 0.589900 0.236000
vt 0.584800 0.238000
vt 0.489600 0.431600
vt 0.483100 0.428000
vt 0.486000 0.399900
vt 0.489600 0.403600
vt 0.722100 0.191200
vt 0.722400 0.207200
vt 0.717900 0.207300
vt 0.717900 0.192200
vt 0.407900 0.438200
vt 0.405700 0.445800
vt 0.404500 0.445900
vt 0.404100 0.437900
vt 0.666100 0.418400
vt 0.668400 0.387100
vt 0.670400 0.387200
vt 0.669200 0.418400
vt 0.386300 0.368300
vt 0.382200 0.367500
vt 0.381500 0.342400
vt 0.386900 0.343100
vt 0.353100 0.290000
vt 0.358700 0.292100
vt 0.388600 0.303400
vt 0.395300 0.303600
vt 0.395300 0.411200
vt 0.392900 0.410900
vt 0.390300 0.393800
vt 0.393900 0.394100
vt 0.603700 0.442200
vt 0.590800 0.396200
vt 0.597100 0.394300
vt 0.609100 0.439400
vt 0.579600 0.449300
vt 0.572400 0.406600
vt 0.578400 0.403200
vt 0.585600 0.448500
vt 0.589900 0.345800
vt 0.596800 0.343800
vt 0.575400 0.356900
vt 0.581800 0.353700
vt 0.594000 0.298700
vt 0.600300 0.296900
vt 0.575800 0.310500
vt 0.581800 0.308300
vt 0.600700 0.255800
vt 0.605900 0.253500
vt 0.578800 0.268400
vt 0.584000 0.266300
vt 0.605400 0.226500
vt 0.609100 0.224700
vt 0.582400 0.239300
vt 0.585600 0.238000
vt 0.647000 0.151200
vt 0.642800 0.150900
vt 0.388200 0.120500
vt 0.384800 0.120100
vt 0.449100 0.052400
vt 0.436900 0.077200
vt 0.432500 0.074700
vt 0.445800 0.050100
vt 0.433200 0.127000
vt 0.426800 0.126300
vt 0.483100 0.020300
vt 0.465900 0.034200
vt 0.462600 0.033500
vt 0.481000 0.019500
vt 0.464400 0.222700
vt 0.483100 0.245300
vt 0.477800 0.247300
vt 0.457300 0.224800
vt 0.441800 0.181800
vt 0.435800 0.179800
vt 0.480700 0.360300
vt 0.744400 0.171500
vt 0.741200 0.141600
vt 0.745700 0.141800
vt 0.748700 0.170900
vt 0.330400 0.363400
vt 0.326700 0.362900
vt 0.325500 0.334900
vt 0.330500 0.335300
vt 0.338400 0.290000
vt 0.342800 0.293700
vt 0.342800 0.408100
vt 0.340600 0.407900
vt 0.333000 0.386600
vt 0.336600 0.387100
vt 0.302400 0.248800
vt 0.296900 0.249700
vt 0.306500 0.222000
vt 0.310200 0.221000
vt 0.292100 0.292700
vt 0.286000 0.293700
vt 0.287500 0.341300
vt 0.280700 0.343100
vt 0.291700 0.392000
vt 0.285800 0.395700
vt 0.310200 0.438300
vt 0.305500 0.443200
vt 0.386800 0.159700
vt 0.381500 0.160300
vt 0.669700 0.358700
vt 0.674700 0.387100
vt 0.670700 0.387000
vt 0.666100 0.359000
vt 0.503400 0.060000
vt 0.491000 0.086100
vt 0.487600 0.084400
vt 0.499800 0.058100
vt 0.373500 0.407600
vt 0.368900 0.355600
vt 0.373500 0.357500
vt 0.377900 0.409400
vt 0.490100 0.141200
vt 0.483100 0.140300
vt 0.674700 0.310200
vt 0.671800 0.333700
vt 0.669000 0.333700
vt 0.672800 0.310000
vt 0.538200 0.020600
vt 0.521900 0.040600
vt 0.519200 0.038600
vt 0.536800 0.019500
vt 0.764600 0.101800
vt 0.766500 0.131800
vt 0.762100 0.131600
vt 0.759700 0.099300
vt 0.765700 0.060700
vt 0.759700 0.057400
vt 0.705900 0.064000
vt 0.699500 0.061300
vt 0.773700 0.022200
vt 0.768100 0.018000
vt 0.717900 0.023400
vt 0.712200 0.019500
vt 0.465500 0.389600
vt 0.465500 0.441000
vt 0.459000 0.439100
vt 0.461100 0.385400
vt 0.506700 0.203600
vt 0.538200 0.251000
vt 0.532000 0.252100
vt 0.500900 0.202300
vt 0.373300 0.290000
vt 0.377900 0.291500
vt 0.769500 0.294200
vt 0.767200 0.319600
vt 0.764200 0.320500
vt 0.764100 0.297900
vt 0.716200 0.313800
vt 0.717900 0.329300
vt 0.715500 0.331600
vt 0.712500 0.316600
vt 0.773700 0.255700
vt 0.768900 0.258200
vt 0.715100 0.280000
vt 0.711600 0.282400
vt 0.769600 0.219800
vt 0.764800 0.222600
vt 0.715300 0.245400
vt 0.711200 0.247700
vt 0.715800 0.232100
vt 0.710800 0.234400
vt 0.715500 0.193500
vt 0.716100 0.209500
vt 0.711100 0.211600
vt 0.711100 0.195300
vt 0.744000 0.189000
vt 0.748100 0.187700
vt 0.764600 0.192100
vt 0.768200 0.189000
vt 0.767500 0.142900
vt 0.763900 0.143700
vt 0.514000 0.409700
vt 0.515900 0.378700
vt 0.519700 0.379500
vt 0.518700 0.410100
vt 0.624500 0.475800
vt 0.619000 0.476300
vt 0.640000 0.469600
vt 0.634800 0.468600
vt 0.626900 0.418700
vt 0.631700 0.420100
vt 0.381500 0.404700
vt 0.381500 0.431900
vt 0.378100 0.430500
vt 0.379200 0.403700
vt 0.742700 0.072200
vt 0.743800 0.123500
vt 0.739300 0.122900
vt 0.738100 0.072000
vt 0.749900 0.021500
vt 0.743700 0.019500
vt 0.625100 0.275500
vt 0.635100 0.225500
vt 0.640000 0.224700
vt 0.631800 0.275900
vt 0.624500 0.345700
vt 0.629700 0.346600
vt 0.745700 0.302900
vt 0.743900 0.320100
vt 0.741400 0.321900
vt 0.741900 0.305200
vt 0.749900 0.263000
vt 0.746000 0.265300
vt 0.749000 0.224300
vt 0.745100 0.226200
vt 0.749700 0.210100
vt 0.745100 0.211200
vt 0.517700 0.438100
vt 0.519700 0.438800
vt 0.718600 0.169500
vt 0.723000 0.169600
vt 0.572400 0.489700
vt 0.569600 0.489800
vt 0.563600 0.439400
vt 0.566500 0.439300
vt 0.501200 0.413900
vt 0.504700 0.379500
vt 0.506900 0.378700
vt 0.503100 0.413100
vt 0.479000 0.380600
vt 0.478700 0.360400
vt 0.480400 0.360300
vt 0.480400 0.380600
vt 0.686500 0.072900
vt 0.681300 0.126600
vt 0.678700 0.126400
vt 0.683100 0.071600
vt 0.698200 0.019500
vt 0.695500 0.020100
vt 0.562300 0.289000
vt 0.568800 0.238000
vt 0.572400 0.238800
vt 0.566400 0.293600
vt 0.560900 0.363300
vt 0.564300 0.365300
vt 0.698200 0.307300
vt 0.697500 0.324800
vt 0.696500 0.324900
vt 0.696700 0.307400
vt 0.693300 0.270700
vt 0.691700 0.271000
vt 0.686100 0.234200
vt 0.683200 0.235000
vt 0.683900 0.221000
vt 0.681500 0.221600
vt 0.681000 0.147200
vt 0.677600 0.145700
vt 0.505200 0.452000
vt 0.506900 0.451600
vt 0.680400 0.192100
vt 0.681300 0.200000
vt 0.678800 0.200200
vt 0.678200 0.192200
vt 0.405700 0.402200
vt 0.407900 0.402300
vt 0.650500 0.344500
vt 0.654900 0.310900
vt 0.658600 0.310000
vt 0.654200 0.345100
vt 0.656800 0.405000
vt 0.653900 0.384700
vt 0.656200 0.384100
vt 0.658600 0.404700
vt 0.646700 0.408900
vt 0.642500 0.354300
vt 0.647200 0.353900
vt 0.650500 0.408700
vt 0.476100 0.439300
vt 0.477900 0.387000
vt 0.480600 0.385400
vt 0.480600 0.439700
vt 0.428800 0.299900
vt 0.434000 0.248200
vt 0.437900 0.247300
vt 0.432900 0.297800
vt 0.426800 0.372200
vt 0.431600 0.370400
vt 0.678900 0.342300
vt 0.680900 0.324900
vt 0.682200 0.325000
vt 0.680900 0.342500
vt 0.677600 0.379200
vt 0.680200 0.379200
vt 0.679900 0.415900
vt 0.682200 0.415800
vt 0.355900 0.418100
vt 0.356800 0.404300
vt 0.358700 0.417800
vt 0.560900 0.528100
vt 0.557500 0.528400
vt 0.670400 0.440600
vt 0.668400 0.440600
vt 0.650500 0.310600
vt 0.647700 0.310000
vt 0.437900 0.417800
vt 0.441200 0.418600
vt 0.443800 0.454800
vt 0.442100 0.453600
vt 0.352100 0.424700
vt 0.350000 0.424600
vt 0.349300 0.403800
vt 0.352100 0.404100
vt 0.358700 0.342000
vt 0.362500 0.342600
vt 0.365700 0.395500
vt 0.363700 0.396100
vt 0.364200 0.290000
vt 0.368900 0.290900
vt 0.535600 0.304300
vt 0.531600 0.303700
vt 0.532200 0.252800
vt 0.536700 0.252100
vt 0.535600 0.378500
vt 0.530600 0.378000
vt 0.588700 0.402500
vt 0.585700 0.402200
vt 0.587800 0.383600
vt 0.589500 0.384000
vt 0.589500 0.438700
vt 0.587400 0.438100
vt 0.662900 0.347600
vt 0.660500 0.347600
vt 0.663400 0.310000
vt 0.666100 0.310000
vt 0.366100 0.417100
vt 0.368900 0.416500
vt 0.535900 0.454500
vt 0.532100 0.454300
vt 0.442500 0.376600
vt 0.443800 0.377300
vt 0.533400 0.504500
vt 0.536700 0.504800
vt 0.663200 0.376700
vt 0.666100 0.402600
vt 0.663200 0.403300
vt 0.661500 0.377000
vt 0.661500 0.369100
vt 0.658600 0.369100
vt 0.366900 0.452700
vt 0.368900 0.452300
vt 0.483100 0.306300
vt 0.497900 0.253300
vt 0.501200 0.252100
vt 0.487800 0.307900
vt 0.486500 0.342300
vt 0.484400 0.342500
vt 0.501200 0.399400
vt 0.499100 0.399900
vt 0.493200 0.380400
vt 0.496000 0.379800
vt 0.379600 0.290000
vt 0.381500 0.290200
vt 0.381500 0.349000
vt 0.378000 0.348500
vt 0.540400 0.439600
vt 0.544600 0.440300
vt 0.550700 0.480700
vt 0.546900 0.480800
vt 0.538200 0.389000
vt 0.542700 0.389700
vt 0.545900 0.314000
vt 0.550300 0.314100
vt 0.352100 0.403900
vt 0.354700 0.403800
vt 0.354700 0.421600
vt 0.353300 0.421500
vt 0.585600 0.289900
vt 0.588800 0.289700
vt 0.589400 0.327000
vt 0.589500 0.327200
vt 0.587200 0.251800
vt 0.589500 0.251600
vt 0.586800 0.238200
vt 0.589400 0.238000
vt 0.424500 0.378400
vt 0.426500 0.398500
vt 0.425000 0.399300
vt 0.421200 0.378500
vt 0.545900 0.238000
vt 0.550700 0.238300
vt 0.422100 0.332900
vt 0.425400 0.303400
vt 0.426500 0.303900
vt 0.426300 0.332700
vt 0.423100 0.366500
vt 0.420500 0.366800
vt 0.465200 0.329600
vt 0.461200 0.331600
vt 0.459000 0.301400
vt 0.463800 0.300100
vt 0.470700 0.437800
vt 0.471700 0.387400
vt 0.476100 0.385400
vt 0.476100 0.437700
vt 0.473400 0.249200
vt 0.478700 0.247300
vt 0.478700 0.383900
vt 0.476200 0.385400
vt 0.469100 0.359300
vt 0.473200 0.356900
vt 0.658600 0.255000
vt 0.653300 0.257400
vt 0.643000 0.202700
vt 0.647300 0.200900
vt 0.677600 0.307800
vt 0.672900 0.310000
vt 0.519700 0.397300
vt 0.525500 0.397200
vt 0.530600 0.447600
vt 0.525300 0.446500
vt 0.522000 0.326800
vt 0.527600 0.326100
vt 0.672500 0.035900
vt 0.669100 0.034100
vt 0.674900 0.019500
vt 0.677600 0.021100
vt 0.647600 0.181400
vt 0.642500 0.182100
vt 0.524800 0.253800
vt 0.530600 0.252100
vt 0.446100 0.325800
vt 0.441200 0.325700
vt 0.437900 0.296500
vt 0.444000 0.297100
vt 0.451700 0.247300
vt 0.459000 0.249000
vt 0.459000 0.376000
vt 0.456600 0.376600
vt 0.449900 0.351800
vt 0.453300 0.351500
vt 0.344100 0.139600
vt 0.326200 0.131800
vt 0.342400 0.081400
vt 0.349900 0.081800
vt 0.332300 0.183400
vt 0.325500 0.183700
vt 0.350100 0.237200
vt 0.342800 0.240700
vt 0.381500 0.286400
vt 0.376500 0.290000
vt 0.399100 0.404900
vt 0.404100 0.407000
vt 0.402600 0.421600
vt 0.397900 0.420700
vt 0.395300 0.370400
vt 0.398700 0.371900
vt 0.397900 0.337900
vt 0.404100 0.338300
vt 0.381500 0.019800
vt 0.381300 0.019500
vt 0.400800 0.304400
vt 0.396000 0.303400
vt 0.408800 0.434000
vt 0.410200 0.402200
vt 0.413200 0.403800
vt 0.413200 0.435100
vt 0.290300 0.041700
vt 0.295200 0.045400
vt 0.279100 0.066200
vt 0.274100 0.063000
vt 0.258100 0.101700
vt 0.251900 0.098000
vt 0.323600 0.019500
vt 0.325500 0.021100
vt 0.309800 0.030700
vt 0.306600 0.028000
vt 0.247500 0.141200
vt 0.241000 0.140000
vt 0.256800 0.177200
vt 0.251800 0.180600
vt 0.345700 0.403800
vt 0.345700 0.426300
vt 0.343400 0.428000
vt 0.342800 0.405700
vt 0.292100 0.203000
vt 0.325500 0.218000
vt 0.323100 0.221000
vt 0.288700 0.206900
vt 0.450400 0.401300
vt 0.451800 0.376600
vt 0.456900 0.377600
vt 0.456700 0.405600
vt 0.639000 0.224700
vt 0.613200 0.200400
vt 0.616400 0.196400
vt 0.642500 0.220900
vt 0.454400 0.442800
vt 0.454000 0.425700
vt 0.456900 0.426500
vt 0.456200 0.443200
vt 0.595300 0.164600
vt 0.599100 0.162000
vt 0.519700 0.374900
vt 0.516300 0.378700
vt 0.501200 0.345900
vt 0.505300 0.344700
vt 0.589900 0.118700
vt 0.593600 0.118300
vt 0.517500 0.271400
vt 0.514300 0.269800
vt 0.516900 0.252100
vt 0.519700 0.253500
vt 0.635800 0.039200
vt 0.633800 0.036900
vt 0.641200 0.019500
vt 0.642500 0.021600
vt 0.510600 0.307800
vt 0.507100 0.306700
vt 0.614900 0.074800
vt 0.611800 0.073300
s 0
usemtl short04
f 234/1/1 233/2/1 4/3/1 3/4/1
f 234/1/2 3/4/2 6/5/2 235/6/2
f 235/6/3 6/5/3 8/7/3 236/8/3
f 236/8/4 8/7/4 10/9/4 237/10/4
f 237/10/5 10/9/5 12/11/5 238/12/5
f 270/13/6 257/14/6 123/15/6 239/16/6
f 257/14/7 12/11/7 14/17/7 258/18/7
f 12/11/8 10/9/8 13/19/8 14/17/8
f 8/7/9 6/5/9 17/20/9 18/21/9
f 6/5/10 3/4/10 15/22/10 17/20/10
f 3/4/11 4/3/11 16/23/11 15/22/11
f 8/7/12 18/21/12 13/19/12 10/9/12
f 1/24/13 2/25/13 20/26/13 19/27/13
f 1/24/14 19/27/14 21/28/14 5/29/14
f 5/29/15 21/28/15 22/30/15 7/31/15
f 7/31/16 22/30/16 23/32/16 9/33/16
f 9/33/17 23/32/17 24/34/17 11/35/17
f 256/36/18 259/37/18 137/38/18 122/39/18
f 20/26/19 2/25/19 25/40/19 28/41/19
f 16/23/20 4/3/20 26/42/20 27/43/20
f 233/2/21 20/26/21 28/41/21 240/44/21
f 33/45/22 36/46/22 29/47/22 32/48/22
f 37/49/23 40/50/23 30/51/23 31/52/23
f 243/53/24 33/45/24 32/48/24 241/54/24
f 28/41/25 25/40/25 35/55/25 34/56/25
f 34/56/26 35/55/26 36/46/26 33/45/26
f 27/43/27 26/42/27 39/57/27 38/58/27
f 38/58/28 39/57/28 40/50/28 37/49/28
f 240/44/29 28/41/29 34/56/29 242/59/29
f 242/59/30 34/56/30 33/45/30 243/53/30
f 38/58/31 37/49/31 46/60/31 47/61/31
f 37/49/32 31/52/32 45/62/32 46/60/32
f 27/43/33 38/58/33 47/61/33 44/63/33
f 16/23/34 27/43/34 44/63/34 42/64/34
f 17/20/35 15/22/35 41/65/35 43/66/35
f 15/22/36 16/23/36 42/64/36 41/65/36
f 42/64/37 44/63/37 49/67/37 48/68/37
f 50/69/38 49/67/38 44/63/38 47/61/38
f 51/70/39 50/69/39 47/61/39 46/60/39
f 52/71/40 51/70/40 46/60/40 45/62/40
f 43/66/41 41/65/41 66/72/41 53/73/41
f 42/64/42 48/68/42 66/72/42 41/65/42
f 48/68/43 49/67/43 55/74/43 54/75/43
f 54/75/44 55/74/44 57/76/44 56/77/44
f 56/77/45 57/76/45 59/78/45 58/79/45
f 49/67/46 50/69/46 51/70/46 55/74/46
f 52/71/47 57/76/47 55/74/47 51/70/47
f 52/71/48 45/62/48 64/80/48 65/81/48
f 45/62/49 31/52/49 62/82/49 64/80/49
f 32/48/50 29/47/50 60/83/50 63/84/50
f 31/52/51 30/51/51 61/85/51 62/82/51
f 241/54/52 32/48/52 63/84/52 244/86/52
f 57/76/53 52/71/53 65/81/53 59/78/53
f 56/77/54 58/79/54 69/87/54 68/88/54
f 54/75/55 56/77/55 68/88/55 67/89/55
f 48/68/56 54/75/56 67/89/56 66/72/56
f 53/73/57 66/72/57 71/90/57 70/91/57
f 70/91/58 71/90/58 73/92/58 72/93/58
f 72/93/59 73/92/59 75/94/59 74/95/59
f 75/94/60 73/92/60 77/96/60 78/97/60
f 73/92/61 71/90/61 76/98/61 77/96/61
f 67/89/62 76/98/62 71/90/62 66/72/62
f 78/97/63 77/96/63 80/99/63 81/100/63
f 77/96/64 76/98/64 79/101/64 80/99/64
f 68/88/65 79/101/65 76/98/65 67/89/65
f 81/100/66 80/99/66 83/102/66 84/103/66
f 80/99/67 79/101/67 82/104/67 83/102/67
f 72/93/68 74/95/68 89/105/68 88/106/68
f 70/91/69 72/93/69 88/106/69 87/107/69
f 53/73/70 70/91/70 87/107/70 86/108/70
f 43/66/71 53/73/71 86/108/71 85/109/71
f 17/20/72 43/66/72 85/109/72 18/21/72
f 88/106/73 89/105/73 94/110/73 93/111/73
f 87/107/74 88/106/74 93/111/74 92/112/74
f 86/108/75 87/107/75 92/112/75 91/113/75
f 85/109/76 86/108/76 91/113/76 90/114/76
f 18/21/77 85/109/77 90/114/77 13/19/77
f 69/87/78 82/104/78 79/101/78 68/88/78
f 262/115/79 260/116/79 217/117/79 216/118/79
f 81/100/80 84/103/80 99/119/80 98/120/80
f 78/97/81 81/100/81 98/120/81 97/121/81
f 75/94/82 78/97/82 97/121/82 96/122/82
f 74/95/83 75/94/83 96/122/83 95/123/83
f 89/105/84 74/95/84 95/123/84 94/110/84
f 263/124/85 262/115/85 216/118/85 215/125/85
f 264/126/86 263/124/86 215/125/86 214/127/86
f 265/128/87 264/126/87 214/127/87 213/129/87
f 266/130/88 261/131/88 222/132/88 221/133/88
f 267/134/89 266/130/89 221/133/89 220/135/89
f 268/136/90 267/134/90 220/135/90 219/137/90
f 269/138/91 268/136/91 219/137/91 218/139/91
f 269/138/92 218/139/92 217/117/92 260/116/92
f 93/111/93 94/110/93 101/140/93 100/141/93
f 92/112/94 93/111/94 100/141/94 102/142/94
f 91/113/95 92/112/95 102/142/95 103/143/95
f 90/114/96 91/113/96 103/143/96 104/144/96
f 98/120/97 99/119/97 106/145/97 105/146/97
f 97/121/98 98/120/98 105/146/98 107/147/98
f 96/122/99 97/121/99 107/147/99 108/148/99
f 95/123/100 96/122/100 108/148/100 109/149/100
f 95/123/101 109/149/101 101/140/101 94/110/101
f 13/19/102 90/114/102 104/144/102 14/17/102
f 258/18/103 265/128/103 213/129/103 126/150/103
f 246/151/104 112/152/104 113/153/104 245/154/104
f 246/151/105 247/155/105 115/156/105 112/152/105
f 247/155/106 248/157/106 117/158/106 115/156/106
f 248/157/107 249/159/107 119/160/107 117/158/107
f 249/159/108 250/161/108 121/162/108 119/160/108
f 285/163/109 239/16/109 123/15/109 272/164/109
f 272/164/110 273/165/110 125/166/110 121/162/110
f 121/162/111 125/166/111 124/167/111 119/160/111
f 117/158/112 130/168/112 129/169/112 115/156/112
f 115/156/113 129/169/113 127/170/113 112/152/113
f 112/152/114 127/170/114 128/171/114 113/153/114
f 117/158/115 119/160/115 124/167/115 130/168/115
f 110/172/116 131/173/116 132/174/116 111/175/116
f 110/172/117 114/176/117 133/177/117 131/173/117
f 114/176/118 116/178/118 134/179/118 133/177/118
f 116/178/119 118/180/119 135/181/119 134/179/119
f 118/180/120 120/182/120 136/183/120 135/181/120
f 271/184/121 122/39/121 137/38/121 274/185/121
f 132/174/122 141/186/122 138/187/122 111/175/122
f 128/171/123 140/188/123 139/189/123 113/153/123
f 245/154/124 251/190/124 141/186/124 132/174/124
f 146/191/125 145/192/125 142/193/125 149/194/125
f 150/195/126 144/196/126 143/197/126 153/198/126
f 254/199/127 252/200/127 145/192/127 146/191/127
f 141/186/128 147/201/128 148/202/128 138/187/128
f 147/201/129 146/191/129 149/194/129 148/202/129
f 140/188/130 151/203/130 152/204/130 139/189/130
f 151/203/131 150/195/131 153/198/131 152/204/131
f 251/190/132 253/205/132 147/201/132 141/186/132
f 253/205/133 254/199/133 146/191/133 147/201/133
f 151/203/134 160/206/134 159/207/134 150/195/134
f 150/195/135 159/207/135 158/208/135 144/196/135
f 140/188/136 157/209/136 160/206/136 151/203/136
f 128/171/137 155/210/137 157/209/137 140/188/137
f 129/169/138 156/211/138 154/212/138 127/170/138
f 127/170/139 154/212/139 155/210/139 128/171/139
f 155/210/140 161/213/140 162/214/140 157/209/140
f 163/215/141 160/206/141 157/209/141 162/214/141
f 164/216/142 159/207/142 160/206/142 163/215/142
f 165/217/143 158/208/143 159/207/143 164/216/143
f 156/211/144 166/218/144 179/219/144 154/212/144
f 155/210/145 154/212/145 179/219/145 161/213/145
f 161/213/146 167/220/146 168/221/146 162/214/146
f 167/220/147 169/222/147 170/223/147 168/221/147
f 169/222/148 171/224/148 172/225/148 170/223/148
f 162/214/149 168/221/149 164/216/149 163/215/149
f 165/217/150 164/216/150 168/221/150 170/223/150
f 165/217/151 178/226/151 177/227/151 158/208/151
f 158/208/152 177/227/152 175/228/152 144/196/152
f 145/192/153 176/229/153 173/230/153 142/193/153
f 144/196/154 175/228/154 174/231/154 143/197/154
f 252/200/155 255/232/155 176/229/155 145/192/155
f 170/223/156 172/225/156 178/226/156 165/217/156
f 169/222/157 181/233/157 182/234/157 171/224/157
f 167/220/158 180/235/158 181/233/158 169/222/158
f 161/213/159 179/219/159 180/235/159 167/220/159
f 166/218/160 183/236/160 184/237/160 179/219/160
f 183/236/161 185/238/161 186/239/161 184/237/161
f 185/238/162 187/240/162 188/241/162 186/239/162
f 188/241/163 191/242/163 190/243/163 186/239/163
f 186/239/164 190/243/164 189/244/164 184/237/164
f 180/235/165 179/219/165 184/237/165 189/244/165
f 191/242/166 194/245/166 193/246/166 190/243/166
f 190/243/167 193/246/167 192/247/167 189/244/167
f 181/233/168 180/235/168 189/244/168 192/247/168
f 194/245/169 197/248/169 196/249/169 193/246/169
f 193/246/170 196/249/170 195/250/170 192/247/170
f 185/238/171 201/251/171 202/252/171 187/240/171
f 183/236/172 200/253/172 201/251/172 185/238/172
f 166/218/173 199/254/173 200/253/173 183/236/173
f 156/211/174 198/255/174 199/254/174 166/218/174
f 129/169/175 130/168/175 198/255/175 156/211/175
f 201/251/176 206/256/176 207/257/176 202/252/176
f 200/253/177 205/258/177 206/256/177 201/251/177
f 199/254/178 204/259/178 205/258/178 200/253/178
f 198/255/179 203/260/179 204/259/179 199/254/179
f 130/168/180 124/167/180 203/260/180 198/255/180
f 182/234/181 181/233/181 192/247/181 195/250/181
f 277/261/182 216/262/182 217/263/182 275/264/182
f 194/245/183 211/265/183 212/266/183 197/248/183
f 191/242/184 210/267/184 211/265/184 194/245/184
f 188/241/185 209/268/185 210/267/185 191/242/185
f 187/240/186 208/269/186 209/268/186 188/241/186
f 202/252/187 207/257/187 208/269/187 187/240/187
f 278/270/188 215/271/188 216/262/188 277/261/188
f 279/272/189 214/127/189 215/271/189 278/270/189
f 280/273/190 213/129/190 214/127/190 279/272/190
f 281/274/191 221/275/191 222/276/191 276/277/191
f 282/278/192 220/279/192 221/275/192 281/274/192
f 283/280/193 219/281/193 220/279/193 282/278/193
f 284/282/194 218/283/194 219/281/194 283/280/194
f 284/282/195 275/264/195 217/263/195 218/283/195
f 206/256/196 223/284/196 224/285/196 207/257/196
f 205/258/197 225/286/197 223/284/197 206/256/197
f 204/259/198 226/287/198 225/286/198 205/258/198
f 203/260/199 227/288/199 226/287/199 204/259/199
f 211/265/200 228/289/200 229/290/200 212/266/200
f 210/267/201 230/291/201 228/289/201 211/265/201
f 209/268/202 231/292/202 230/291/202 210/267/202
f 208/269/203 232/293/203 231/292/203 209/268/203
f 208/269/204 207/257/204 224/285/204 232/293/204
f 124/167/205 125/166/205 227/288/205 203/260/205
f 273/165/206 126/150/206 213/129/206 280/273/206
f 19/27/207 20/26/207 233/2/207 234/1/207
f 19/27/208 234/1/208 235/6/208 21/28/208
f 21/28/209 235/6/209 236/8/209 22/30/209
f 22/30/210 236/8/210 237/10/210 23/32/210
f 23/32/211 237/10/211 238/12/211 24/34/211
f 259/37/212 270/13/212 239/16/212 137/38/212
f 4/3/213 233/2/213 240/44/213 26/42/213
f 40/50/214 243/53/214 241/54/214 30/51/214
f 26/42/215 240/44/215 242/59/215 39/57/215
f 39/57/216 242/59/216 243/53/216 40/50/216
f 30/51/217 241/54/217 244/86/217 61/85/217
f 131/173/218 246/151/218 245/154/218 132/174/218
f 131/173/219 133/177/219 247/155/219 246/151/219
f 133/177/220 134/179/220 248/157/220 247/155/220
f 134/179/221 135/181/221 249/159/221 248/157/221
f 135/181/222 136/183/222 250/161/222 249/159/222
f 274/185/223 137/38/223 239/16/223 285/163/223
f 113/153/224 139/189/224 251/190/224 245/154/224
f 153/198/225 143/197/225 252/200/225 254/199/225
f 139/189/226 152/204/226 253/205/226 251/190/226
f 152/204/227 153/198/227 254/199/227 253/205/227
f 143/197/228 174/231/228 255/232/228 252/200/228
f 238/12/229 12/11/229 257/14/229 270/13/229
f 123/15/230 257/14/230 258/18/230 126/150/230
f 11/35/231 24/34/231 259/37/231 256/36/231
f 100/141/232 101/140/232 260/116/232 262/115/232
f 102/142/233 100/141/233 262/115/233 263/124/233
f 103/143/234 102/142/234 263/124/234 264/126/234
f 104/144/235 103/143/235 264/126/235 265/128/235
f 105/146/236 106/145/236 261/131/236 266/130/236
f 107/147/237 105/146/237 266/130/237 267/134/237
f 108/148/238 107/147/238 267/134/238 268/136/238
f 109/149/239 108/148/239 268/136/239 269/138/239
f 109/149/240 269/138/240 260/116/240 101/140/240
f 14/17/241 104/144/241 265/128/241 258/18/241
f 24/34/242 238/12/242 270/13/242 259/37/242
f 250/161/243 285/163/243 272/164/243 121/162/243
f 123/15/244 126/150/244 273/165/244 272/164/244
f 120/182/245 271/184/245 274/185/245 136/183/245
f 223/284/246 277/261/246 275/264/246 224/285/246
f 225/286/247 278/270/247 277/261/247 223/284/247
f 226/287/248 279/272/248 278/270/248 225/286/248
f 227/288/249 280/273/249 279/272/249 226/287/249
f 228/289/250 281/274/250 276/277/250 229/290/250
f 230/291/251 282/278/251 281/274/251 228/289/251
f 231/292/252 283/280/252 282/278/252 230/291/252
f 232/293/253 284/282/253 283/280/253 231/292/253
f 232/293/254 224/285/254 275/264/254 284/282/254
f 125/166/255 273/165/255 280/273/255 227/288/255
f 136/183/256 274/185/256 285/163/256 250/161/256
f 441/294/257 390/295/257 287/296/257 364/297/257
f 582/298/258 545/299/258 291/300/258 366/301/258
f 642/302/259 632/303/259 327/304/259 367/305/259
f 385/306/260 396/307/260 295/308/260 286/309/260
f 540/310/261 551/311/261 297/312/261 290/313/261
f 643/314/262 636/315/262 335/316/262 326/317/262
f 645/318/263 638/319/263 350/320/263 349/321/263
f 647/322/264 645/323/264 349/324/264 348/325/264
f 649/326/265 647/322/265 348/325/265 347/327/265
f 651/328/266 649/326/266 347/327/266 346/329/266
f 653/330/267 640/331/267 354/332/267 353/333/267
f 655/334/268 653/330/268 353/333/268 352/335/268
f 657/336/269 655/337/269 352/338/269 351/339/269
f 662/340/270 657/341/270 351/342/270 407/343/270
f 665/344/271 462/345/271 350/320/271 638/319/271
f 552/346/272 576/347/272 311/348/272 310/349/272
f 555/350/273 552/346/273 310/349/273 312/351/273
f 558/352/274 555/353/274 312/354/274 313/355/274
f 561/356/275 558/352/275 313/355/275 314/357/275
f 564/358/276 579/359/276 316/360/276 315/361/276
f 567/362/277 564/358/277 315/361/277 317/363/277
f 570/364/278 567/362/278 317/363/278 318/365/278
f 588/366/279 570/364/279 318/365/279 409/367/279
f 592/368/280 465/369/280 311/348/280 576/347/280
f 548/370/281 561/356/281 314/357/281 292/371/281
f 634/372/282 651/328/282 346/329/282 329/373/282
f 865/374/283 839/375/283 321/376/283 368/377/283
f 442/378/284 369/379/284 323/380/284 416/381/284
f 775/382/285 370/383/285 325/384/285 743/385/285
f 839/386/286 842/387/286 330/388/286 321/389/286
f 838/390/287 845/391/287 332/392/287 320/393/287
f 411/394/288 322/395/288 333/396/288 422/397/288
f 738/398/289 324/399/289 334/400/289 749/401/289
f 842/402/290 848/403/290 336/404/290 330/405/290
f 750/406/291 355/407/291 356/408/291 771/409/291
f 753/410/292 357/411/292 355/407/292 750/406/292
f 756/412/293 358/413/293 357/414/293 753/415/293
f 759/416/294 359/417/294 358/413/294 756/412/294
f 762/418/295 360/419/295 361/420/295 774/421/295
f 765/422/296 362/423/296 360/424/296 762/425/296
f 768/426/297 363/427/297 362/423/297 765/422/297
f 766/428/298 767/429/298 780/430/298 779/431/298
f 503/432/299 536/433/299 537/434/299 502/435/299
f 746/436/300 328/437/300 359/438/300 759/439/300
f 396/307/301 441/294/301 364/297/301 295/308/301
f 551/311/302 582/440/302 366/441/302 297/312/302
f 636/315/303 642/302/303 367/305/303 335/316/303
f 845/391/304 865/374/304 368/377/304 332/392/304
f 422/397/305 333/396/305 369/379/305 442/378/305
f 749/401/306 334/400/306 370/442/306 775/443/306
f 631/444/307 372/445/307 373/446/307 633/447/307
f 439/448/308 388/449/308 389/450/308 440/451/308
f 287/296/309 390/295/309 393/452/309 293/453/309
f 389/450/310 388/449/310 391/454/310 392/455/310
f 387/456/311 394/457/311 395/458/311 386/459/311
f 293/453/312 393/452/312 399/460/312 298/461/312
f 392/455/313 391/454/313 397/462/313 398/463/313
f 298/461/314 399/460/314 402/464/314 299/465/314
f 398/463/315 397/462/315 400/466/315 401/467/315
f 299/465/316 402/464/316 405/468/316 300/469/316
f 401/470/317 400/471/317 403/472/317 404/473/317
f 573/474/318 585/475/318 410/476/318 319/477/318
f 660/478/319 662/479/319 407/480/319 408/481/319
f 585/475/320 588/366/320 409/367/320 410/476/320
f 659/482/321 664/483/321 489/484/321 446/485/321
f 444/486/322 443/487/322 415/488/322 414/489/322
f 323/380/323 331/490/323 419/491/323 416/381/323
f 415/488/324 418/492/324 417/493/324 414/489/324
f 413/494/325 412/495/325 421/496/325 420/497/325
f 331/498/326 337/499/326 425/500/326 419/501/326
f 418/502/327 424/503/327 423/504/327 417/505/327
f 337/499/328 339/506/328 428/507/328 425/500/328
f 424/503/329 427/508/329 426/509/329 423/504/329
f 339/506/330 343/510/330 431/511/330 428/507/330
f 427/508/331 430/512/331 429/513/331 426/509/331
f 343/510/332 344/514/332 434/515/332 431/511/332
f 430/512/333 433/516/333 432/517/333 429/513/333
f 344/514/334 345/518/334 437/519/334 434/515/334
f 433/516/335 436/520/335 435/521/335 432/517/335
f 780/430/336 781/522/336 782/523/336 779/431/336
f 363/427/337 768/426/337 778/524/337 438/525/337
f 394/457/338 439/448/338 440/451/338 395/458/338
f 420/497/339 421/496/339 443/487/339 444/486/339
f 485/526/340 449/527/340 450/528/340 486/529/340
f 450/528/341 449/527/341 451/530/341 452/531/341
f 448/532/342 453/533/342 454/534/342 447/535/342
f 459/536/343 457/537/343 456/538/343 458/539/343
f 461/540/344 459/536/344 458/539/344 460/541/344
f 451/530/345 461/540/345 460/541/345 452/531/345
f 462/345/346 665/344/346 663/338/346 463/542/346
f 589/543/347 593/544/347 594/545/347 590/546/347
f 488/547/348 487/548/348 469/549/348 468/550/348
f 469/549/349 471/551/349 470/552/349 468/550/349
f 467/553/350 466/554/350 473/555/350 472/556/350
f 475/557/351 474/558/351 477/559/351 476/560/351
f 479/561/352 478/562/352 474/558/352 475/557/352
f 481/563/353 480/564/353 478/562/353 479/561/353
f 483/565/354 482/566/354 480/564/354 481/563/354
f 470/567/355 471/568/355 482/566/355 483/565/355
f 783/569/356 771/409/356 356/408/356 484/570/356
f 453/533/357 485/526/357 486/529/357 454/534/357
f 472/556/358 473/555/358 487/548/358 488/547/358
f 365/571/359 289/572/359 493/573/359 527/574/359
f 528/575/360 494/576/360 495/577/360 529/578/360
f 289/579/361 294/580/361 498/581/361 493/582/361
f 494/576/362 497/583/362 496/584/362 495/577/362
f 288/585/363 296/586/363 499/587/363 492/588/363
f 491/589/364 500/590/364 501/591/364 490/592/364
f 308/593/365 309/594/365 505/595/365 504/596/365
f 307/597/366 308/593/366 504/596/366 508/598/366
f 507/599/367 503/432/367 502/435/367 506/600/367
f 306/601/368 307/597/368 508/598/368 511/602/368
f 510/603/369 507/599/369 506/600/369 509/604/369
f 305/605/370 306/606/370 511/607/370 514/608/370
f 513/609/371 510/610/371 509/611/371 512/612/371
f 294/580/372 305/613/372 514/614/372 498/581/372
f 497/583/373 513/609/373 512/612/373 496/584/373
f 303/615/374 304/616/374 518/617/374 517/618/374
f 516/619/375 519/620/375 520/621/375 515/622/375
f 302/623/376 303/615/376 517/618/376 523/624/376
f 522/625/377 516/619/377 515/622/377 521/626/377
f 301/627/378 302/623/378 523/624/378 526/628/378
f 525/629/379 522/625/379 521/626/379 524/630/379
f 533/631/380 525/629/380 524/630/380 534/632/380
f 538/633/381 530/634/381 531/635/381 539/636/381
f 584/637/382 589/543/382 590/546/382 583/638/382
f 296/586/383 365/571/383 527/574/383 499/587/383
f 500/590/384 528/575/384 529/578/384 501/591/384
f 530/634/385 533/631/385 534/632/385 531/635/385
f 301/627/386 526/628/386 532/639/386 406/640/386
f 309/594/387 455/641/387 535/642/387 505/595/387
f 536/433/388 538/633/388 539/636/388 537/434/388
f 406/640/389 532/639/389 535/642/389 455/641/389
f 580/643/390 543/644/390 544/645/390 581/646/390
f 291/647/391 545/648/391 548/370/391 292/371/391
f 544/649/392 543/650/392 546/651/392 547/652/392
f 542/653/393 549/654/393 550/655/393 541/656/393
f 554/657/394 574/658/394 575/659/394 553/660/394
f 557/661/395 554/657/395 553/660/395 556/662/395
f 560/663/396 557/664/396 556/665/396 559/666/396
f 563/667/397 560/663/397 559/666/397 562/668/397
f 566/669/398 577/670/398 578/671/398 565/672/398
f 569/673/399 566/669/399 565/672/399 568/674/399
f 572/675/400 569/673/400 568/674/400 571/676/400
f 586/677/401 572/675/401 571/676/401 587/678/401
f 594/545/402 593/544/402 575/659/402 574/658/402
f 546/651/403 563/667/403 562/668/403 547/652/403
f 549/679/404 580/643/404 581/646/404 550/680/404
f 583/638/405 586/677/405 587/678/405 584/637/405
f 319/477/406 464/681/406 591/682/406 573/474/406
f 464/681/407 465/369/407 592/368/407 591/682/407
f 614/683/408 613/684/408 615/685/408 616/686/408
f 623/687/409 613/688/409 614/689/409 624/690/409
f 596/691/410 617/692/410 618/693/410 595/694/410
f 598/695/411 619/696/411 620/697/411 597/698/411
f 600/699/412 598/695/412 597/698/412 599/700/412
f 602/701/413 600/702/413 599/703/413 601/704/413
f 604/705/414 602/701/414 601/704/414 603/706/414
f 606/707/415 621/708/415 622/709/415 605/710/415
f 608/711/416 606/707/416 605/710/416 607/712/416
f 610/713/417 608/711/417 607/712/417 609/714/417
f 627/715/418 610/713/418 609/714/418 628/716/418
f 630/717/419 629/718/419 620/697/419 619/696/419
f 615/685/420 604/705/420 603/706/420 616/686/420
f 617/719/421 623/687/421 624/690/421 618/720/421
f 612/721/422 625/722/422 626/723/422 611/724/422
f 625/722/423 627/715/423 628/716/423 626/723/423
f 611/724/424 629/718/424 630/717/424 612/721/424
f 660/478/425 408/481/425 463/725/425 663/726/425
f 384/727/426 372/728/426 631/729/426 641/730/426
f 371/731/427 374/732/427 635/733/427 644/734/427
f 377/735/428 375/736/428 637/737/428 646/738/428
f 378/739/429 377/740/429 646/741/429 648/742/429
f 379/743/430 378/744/430 648/745/430 650/746/430
f 380/747/431 379/743/431 650/746/431 652/748/431
f 381/749/432 376/750/432 639/751/432 654/752/432
f 382/753/433 381/749/433 654/752/433 656/754/433
f 383/755/434 382/753/434 656/754/434 658/756/434
f 445/757/435 383/758/435 658/394/435 661/759/435
f 373/446/436 380/747/436 652/748/436 633/447/436
f 374/732/437 384/727/437 641/730/437 635/733/437
f 327/760/438 632/761/438 634/372/438 329/373/438
f 445/762/439 661/763/439 659/482/439 446/485/439
f 664/764/440 637/737/440 375/736/440 489/765/440
f 693/766/441 692/767/441 667/768/441 666/769/441
f 677/770/442 676/771/442 671/772/442 670/773/442
f 679/774/443 678/775/443 673/776/443 672/777/443
f 681/778/444 680/779/444 678/775/444 679/774/444
f 683/780/445 682/781/445 680/782/445 681/783/445
f 685/784/446 684/785/446 682/781/446 683/780/446
f 687/786/447 686/787/447 675/788/447 674/789/447
f 689/790/448 688/791/448 686/787/448 687/786/448
f 691/792/449 690/793/449 688/794/449 689/795/449
f 700/796/450 672/777/450 673/776/450 701/797/450
f 668/798/451 669/799/451 684/785/451 685/784/451
f 670/800/452 671/801/452 692/767/452 693/766/452
f 667/802/453 669/799/453 668/798/453 666/803/453
f 695/804/454 698/805/454 699/806/454 694/807/454
f 697/808/455 696/809/455 690/793/455 691/792/455
f 695/804/456 694/807/456 696/809/456 697/808/456
f 698/810/457 700/796/457 701/797/457 699/811/457
f 723/812/458 725/813/458 724/814/458 722/815/458
f 721/816/459 720/817/459 723/812/459 722/815/459
f 703/818/460 702/819/460 727/820/460 726/821/460
f 705/822/461 704/823/461 729/824/461 728/825/461
f 707/826/462 706/827/462 704/828/462 705/829/462
f 709/830/463 708/831/463 706/827/463 707/826/463
f 711/832/464 710/833/464 708/831/464 709/830/464
f 713/834/465 712/835/465 731/836/465 730/837/465
f 715/838/466 714/839/466 712/840/466 713/841/466
f 717/842/467 716/843/467 714/839/467 715/838/467
f 733/844/468 732/845/468 716/843/468 717/842/468
f 736/846/469 728/847/469 729/848/469 737/849/469
f 724/850/470 725/851/470 710/833/470 711/832/470
f 726/821/471 727/820/471 720/817/471 721/816/471
f 718/852/472 732/853/472 733/854/472 719/855/472
f 719/855/473 734/856/473 735/857/473 718/852/473
f 734/856/474 736/846/474 737/849/474 735/857/474
f 777/858/475 776/859/475 742/860/475 741/861/475
f 325/862/476 328/863/476 746/864/476 743/865/476
f 742/860/477 745/866/477 744/867/477 741/861/477
f 740/868/478 739/869/478 748/870/478 747/871/478
f 752/872/479 751/873/479 770/874/479 769/875/479
f 755/876/480 754/877/480 751/873/480 752/872/480
f 758/878/481 757/879/481 754/880/481 755/881/481
f 761/882/482 760/883/482 757/879/482 758/878/482
f 764/884/483 763/885/483 773/886/483 772/887/483
f 767/429/484 766/428/484 763/885/484 764/884/484
f 778/524/485 783/569/485 484/570/485 438/525/485
f 784/888/486 769/875/486 770/874/486 785/889/486
f 744/890/487 745/891/487 760/883/487 761/882/487
f 747/871/488 748/870/488 776/859/488 777/858/488
f 781/522/489 784/888/489 785/889/489 782/523/489
f 811/892/490 810/893/490 789/894/490 788/895/490
f 788/895/491 789/894/491 790/896/491 791/897/491
f 787/898/492 786/899/492 793/900/492 792/901/492
f 797/902/493 796/903/493 794/904/493 795/905/493
f 799/906/494 798/907/494 796/903/494 797/902/494
f 801/908/495 800/909/495 798/907/495 799/906/495
f 791/910/496 790/911/496 800/909/496 801/908/496
f 803/912/497 802/913/497 805/914/497 804/915/497
f 807/916/498 806/917/498 802/913/498 803/912/498
f 809/918/499 808/919/499 806/917/499 807/916/499
f 794/904/500 814/920/500 815/921/500 795/905/500
f 792/901/501 793/900/501 810/893/501 811/892/501
f 812/922/502 808/919/502 809/918/502 813/923/502
f 814/924/503 812/925/503 813/926/503 815/927/503
f 835/928/504 834/929/504 818/930/504 819/931/504
f 819/931/505 818/930/505 820/932/505 821/933/505
f 816/934/506 817/935/506 822/936/506 823/937/506
f 821/933/507 820/932/507 824/938/507 825/939/507
f 824/938/508 833/940/508 832/941/508 825/939/508
f 827/942/509 828/943/509 829/944/509 826/945/509
f 831/946/510 827/947/510 826/948/510 830/949/510
f 833/940/511 831/946/511 830/949/511 832/941/511
f 823/937/512 822/936/512 834/929/512 835/928/512
f 863/950/513 841/951/513 840/952/513 864/953/513
f 841/954/514 844/955/514 843/956/514 840/957/514
f 836/958/515 847/959/515 846/960/515 837/961/515
f 844/955/516 850/962/516 849/963/516 843/956/516
f 336/964/517 848/965/517 862/966/517 338/967/517
f 849/963/518 850/962/518 860/968/518 861/969/518
f 341/970/519 853/971/519 854/972/519 342/973/519
f 852/974/520 851/975/520 856/976/520 855/977/520
f 340/978/521 859/979/521 853/971/521 341/970/521
f 858/980/522 857/981/522 851/975/522 852/974/522
f 338/967/523 862/966/523 859/979/523 340/978/523
f 861/969/524 860/968/524 857/981/524 858/980/524
f 847/959/525 863/950/525 864/953/525 846/960/525
